<?xml version="1.0" standalone="no"?>
<!DOCTYPE svg PUBLIC "-//W3C//DTD SVG 1.1//EN" "http://www.w3.org/Graphics/SVG/1.1/DTD/svg11.dtd" >
<svg xmlns="http://www.w3.org/2000/svg" xmlns:xlink="http://www.w3.org/1999/xlink" version="1.1">
<metadata>
Created by FontForge 20170731 at Tue Jul 21 11:31:37 2020
 By Aleksey,,,
Copyright (c) 2009 by Fontsmith Ltd. All rights reserved.
</metadata>
<defs>
<font id="FSMe" horiz-adv-x="1167" >
  <font-face 
    font-family="FS Me"
    font-weight="400"
    font-stretch="normal"
    units-per-em="2048"
    panose-1="2 0 5 6 4 0 0 2 0 4"
    ascent="1536"
    descent="-512"
    x-height="1081"
    cap-height="1475"
    bbox="-171.143 -611.605 2521 2130"
    underline-thickness="102"
    underline-position="-307"
    unicode-range="U+000D-FB02"
  />
<missing-glyph horiz-adv-x="1421" 
d="M184 0v1475h1053v-1475h-1053zM713 831l356 539h-717zM774 737l359 -536v1073zM352 106h717l-356 537zM291 1274v-1073l356 536z" />
    <glyph glyph-name="fi" unicode="fi" horiz-adv-x="1171" 
d="M59 1081h150v39q0 228 104 342.5t322 114.5q170 0 315 -78q19 -8 2 -65l-6 -19q-10 -30 -21.5 -45.5t-25.5 -9.5q-144 63 -264 63q-73 0 -121.5 -21t-74.5 -62.5t-36 -91.5t-10 -120v-47h238q11 0 14.5 -12.5t3.5 -52.5v-17q0 -39 -3.5 -51t-14.5 -12h-238v-911
q0 -9 -3.5 -13t-22.5 -8t-58 -4h-12q-39 0 -59 3t-24.5 8t-4.5 14v911h-150q-11 0 -14.5 12t-3.5 51v17q0 40 3.5 52.5t14.5 12.5zM922 1081h12q39 0 58 -3.5t22.5 -7.5t3.5 -13v-1032q0 -9 -3.5 -13t-22.5 -8t-58 -4h-12q-39 0 -59 3t-24.5 8t-4.5 14v1032q0 9 4.5 13.5
t24 7.5t59.5 3z" />
    <glyph glyph-name="fl" unicode="fl" horiz-adv-x="1206" 
d="M59 1081h150v43q0 453 444 453q159 0 295 -61q17 -7 28 -15.5t15.5 -20.5t5.5 -16.5t2 -17.5q15 -185 15 -528v-674q0 -60 14.5 -81.5t63.5 -21.5h20q8 0 10 -10t2 -45v-6q0 -42 -1.5 -52.5t-10.5 -13.5q-46 -16 -96 -16q-105 0 -152 70q-35 51 -35 215v680
q0 253 -12 432q-79 30 -166 30q-75 0 -126.5 -21.5t-79.5 -63.5t-40 -93.5t-12 -120.5v-45h238q11 0 14.5 -12.5t3.5 -52.5v-17q0 -39 -3.5 -51t-14.5 -12h-238v-911q0 -9 -3.5 -13t-22.5 -8t-58 -4h-12q-39 0 -59 3t-24.5 8t-4.5 14v911h-150q-11 0 -14.5 12t-3.5 51v17
q0 40 3.5 52.5t14.5 12.5z" />
    <glyph glyph-name=".notdef" horiz-adv-x="1421" 
d="M184 0v1475h1053v-1475h-1053zM713 831l356 539h-717zM774 737l359 -536v1073zM352 106h717l-356 537zM291 1274v-1073l356 536z" />
    <glyph glyph-name=".null" horiz-adv-x="0" 
 />
    <glyph glyph-name="nonmarkingreturn" horiz-adv-x="682" 
 />
    <glyph glyph-name="CR" unicode="&#xd;" horiz-adv-x="512" 
 />
    <glyph glyph-name="space" unicode=" " horiz-adv-x="512" 
 />
    <glyph glyph-name="exclam" unicode="!" horiz-adv-x="620" 
d="M291 1475h28q101 0 101 -27l-33 -1024q0 -18 -65 -18h-23q-70 0 -70 18l-36 1024q0 27 98 27zM309 240q54 0 92.5 -38.5t38.5 -92.5q0 -53 -38.5 -91t-92.5 -38q-53 0 -91 38t-38 91q0 54 38 92.5t91 38.5z" />
    <glyph glyph-name="quotedbl" unicode="&#x22;" horiz-adv-x="868" 
d="M606 1475h35q84 0 84 -25l-20 -526q0 -21 -66 -21h-23q-69 0 -69 21l-19 526q0 25 78 25zM221 1475h35q84 0 84 -25l-21 -526q0 -21 -65 -21h-23q-69 0 -69 21l-19 526q0 25 78 25z" />
    <glyph glyph-name="numbersign" unicode="#" horiz-adv-x="1204" 
d="M498 1475h14q36 0 51 -4.5t12 -16.5l-75 -381h315l80 381q3 12 16.5 16.5t51.5 4.5h14q36 0 51 -4.5t12 -16.5l-73 -381h186q18 0 18 -59v-19q0 -61 -18 -61h-215l-78 -383h195q18 0 18 -59v-19q0 -61 -18 -61h-224l-77 -392q-3 -12 -17.5 -16t-52.5 -4h-16
q-37 0 -53 4.5t-13 15.5l78 392h-313l-78 -392q-3 -12 -17.5 -16t-52.5 -4h-16q-37 0 -53 4.5t-13 15.5l80 392h-158q-18 0 -18 61v19q0 59 18 59h185l80 383h-170q-19 0 -19 61v19q0 59 19 59h196l80 381q3 12 16.5 16.5t51.5 4.5zM473 934l-78 -383h314l79 383h-315z" />
    <glyph glyph-name="dollar" unicode="$" 
d="M623 1616h26q68 0 68 -23v-157q123 -18 229 -93q12 -10 -16 -65l-10 -18q-35 -57 -56 -43q-96 67 -219 67q-116 0 -174.5 -59t-58.5 -140q0 -56 32 -100.5t83 -76t112.5 -62t123.5 -66.5t113 -79.5t83 -111.5t32 -153q0 -161 -91 -265.5t-263 -125.5v-178q0 -23 -66 -23
h-26q-68 0 -68 23v178q-201 19 -307 117q-25 18 14 76l15 24q38 51 57 41q60 -45 139 -72.5t140 -27.5q117 0 192.5 56t75.5 155q0 64 -32 113.5t-83 82.5t-113 63t-124 63.5t-113 74.5t-83 104.5t-32 145.5q0 158 92 256t242 119v157q0 23 66 23z" />
    <glyph glyph-name="percent" unicode="%" horiz-adv-x="1804" 
d="M1227 1509h35q67 -1 59 -22l-688 -1503q-9 -19 -68 -19h-37q-23 0 -37.5 3t-19.5 8t-2 12l690 1503q9 18 68 18zM1382 676q-76 0 -119.5 -74t-43.5 -211q0 -266 153 -266q80 0 123 75t43 214q0 129 -39.5 195.5t-116.5 66.5zM1389 821q157 0 245 -100.5t88 -302.5
q0 -209 -93.5 -323.5t-260.5 -114.5q-156 0 -245 102t-89 301q0 211 94.5 324.5t260.5 113.5zM430 1350q-76 0 -120 -74t-44 -211q0 -130 39 -198t115 -68q80 0 123 74.5t43 213.5q0 129 -39.5 196t-116.5 67zM436 1495q157 0 245.5 -101t88.5 -302q0 -209 -93.5 -324
t-260.5 -115q-156 0 -245 102.5t-89 301.5q0 211 94 324.5t260 113.5z" />
    <glyph glyph-name="ampersand" unicode="&#x26;" horiz-adv-x="1427" 
d="M944 1362l-6 -19q-9 -29 -21.5 -47t-21.5 -14q-107 55 -217 55q-227 0 -227 -207q0 -74 32 -134.5t109 -151.5q185 -219 407 -416q81 154 117 381q2 14 17.5 20.5t56.5 6.5h22q41 0 58.5 -8.5t15.5 -22.5q-37 -280 -160 -488q121 -102 240 -188q18 -12 -25 -72l-16 -22
q-44 -59 -59 -49q-122 82 -240 186q-171 -192 -467 -192q-222 0 -345.5 114.5t-123.5 298.5q0 277 295 424q-129 135 -129 297q0 76 25 143t74.5 121t132.5 85.5t190 31.5q137 0 264 -68q19 -11 2 -65zM899 281q-231 200 -420 417q-194 -119 -194 -292q0 -123 83 -196
t214 -73q191 0 317 144z" />
    <glyph glyph-name="quotesingle" unicode="'" horiz-adv-x="483" 
d="M221 1475h35q84 0 84 -27l-21 -524q0 -21 -65 -21h-23q-69 0 -69 21l-19 524q0 27 78 27z" />
    <glyph glyph-name="parenleft" unicode="(" horiz-adv-x="667" 
d="M528 1546l17 -8q60 -31 47 -51q-236 -369 -236 -836q0 -262 63 -468.5t179 -389.5q13 -23 -49 -53l-17 -8q-59 -29 -71 -15q-58 76 -106 165t-91 203t-67.5 255.5t-24.5 294.5q0 154 25 298.5t68.5 260.5t91 205t102.5 162q10 15 69 -15z" />
    <glyph glyph-name="parenright" unicode=")" horiz-adv-x="667" 
d="M129 1538l16 8q60 31 70 15q56 -73 103 -156.5t90.5 -193.5t68.5 -248t25 -287q0 -158 -24.5 -306.5t-67 -268t-91.5 -213.5t-106 -171q-11 -13 -72 15l-16 8q-61 32 -49 53q117 190 179 391t62 467q0 479 -235 836q-13 20 47 51z" />
    <glyph glyph-name="asterisk" unicode="*" horiz-adv-x="813" 
d="M133 1335l211 -88l-18 226q0 12 13.5 17t51.5 5h29q61 0 61 -22l-18 -226l215 88q14 5 24 -8t19 -47l10 -29q18 -64 0 -69l-233 -54l159 -174q16 -19 -39 -57l-24 -18q-54 -36 -64 -19l-129 197l-120 -197q-12 -23 -68 19l-23 18q-50 39 -36 53l153 178l-223 52
q-21 6 -2 71l10 31q10 35 19 46.5t22 6.5z" />
    <glyph glyph-name="plus" unicode="+" 
d="M78 815h428v451q0 20 63 20h31q62 0 62 -20v-451h428q18 0 18 -59v-19q0 -61 -18 -61h-428v-455q0 -20 -62 -20h-31q-63 0 -63 20v455h-428q-19 0 -19 61v19q0 59 19 59z" />
    <glyph glyph-name="comma" unicode="," horiz-adv-x="493" 
d="M113 -332l-23 25q-30 29 -4 55q119 115 119 205q0 28 -14 48t-31 31.5t-31 38.5t-14 66q0 53 37.5 86t91.5 33q68 0 108.5 -46t40.5 -114q0 -120 -60.5 -236.5t-160.5 -195.5q-29 -26 -59 4z" />
    <glyph glyph-name="hyphen" unicode="-" horiz-adv-x="774" 
d="M106 694h562q18 0 18 -63v-19q0 -65 -18 -65h-562q-18 0 -18 65v19q0 63 18 63z" />
    <glyph glyph-name="period" unicode="." horiz-adv-x="493" 
d="M254 256q58 0 98.5 -40t40.5 -99q0 -57 -40.5 -97t-98.5 -40q-57 0 -97 40t-40 97q0 58 40 98.5t97 40.5z" />
    <glyph glyph-name="slash" unicode="/" horiz-adv-x="675" 
d="M547 1511h39q36 0 52 -6t13 -18l-448 -1501q-6 -21 -74 -21h-41q-36 0 -51 6.5t-12 18.5l450 1501q4 13 19 16.5t53 3.5z" />
    <glyph glyph-name="zero" unicode="0" 
d="M594 1333q-148 0 -228.5 -157t-80.5 -455q0 -284 73 -432t217 -148q151 0 231.5 160.5t80.5 458.5q0 282 -75 427.5t-218 145.5zM602 1495q228 0 353.5 -180.5t125.5 -544.5q0 -379 -134 -584.5t-380 -205.5q-228 0 -353.5 182.5t-125.5 544.5q0 381 134.5 584.5
t379.5 203.5z" />
    <glyph glyph-name="one" unicode="1" 
d="M172 1221l375 233q35 21 84 21h37q71 0 71 -23v-1300h213q17 0 17 -58v-35q0 -59 -17 -59h-637q-9 0 -12.5 11t-3.5 48v33q0 37 3.5 48.5t12.5 11.5h230v1099l-289 -172q-11 -6 -26.5 6t-30.5 39l-15 25q-33 58 -12 72z" />
    <glyph glyph-name="two" unicode="2" 
d="M184 1286l-10 21q-11 22 -13 42t7 27q77 56 176.5 87.5t202.5 31.5q179 0 297.5 -105t118.5 -290q0 -67 -18 -132.5t-43 -118.5t-78.5 -126.5t-96.5 -126.5t-125 -147l-248 -285h627q18 0 18 -68v-26q0 -70 -18 -70h-813q-25 0 -25 72v37q0 67 29 100l287 332
q187 215 250 318.5t63 219.5q0 121 -72 185.5t-190 64.5q-131 0 -279 -90q-8 -5 -21.5 9t-25.5 38z" />
    <glyph glyph-name="three" unicode="3" 
d="M186 1319l-14 31q-24 51 -4 63q154 82 326 82q86 0 163.5 -23.5t139.5 -68.5t98.5 -118t36.5 -165q0 -121 -61 -213t-158 -123q111 -21 192.5 -114.5t81.5 -245.5q0 -108 -42 -194t-113.5 -140t-161.5 -82t-189 -28q-184 0 -342 73q-19 8 4 70l15 35q11 29 22 39.5
t19 7.5q60 -30 136 -47t142 -17q137 0 225.5 72.5t88.5 204.5q0 71 -30.5 126.5t-83 88t-117 49t-138.5 16.5h-80q-9 0 -12.5 11.5t-3.5 48.5v35q0 37 3.5 48t12.5 11h78q91 0 160.5 25t114 83.5t44.5 145.5q0 118 -73.5 175.5t-186.5 57.5q-138 0 -252 -63q-18 -11 -41 43z
" />
    <glyph glyph-name="four" unicode="4" 
d="M606 1475h33q39 0 61.5 -8t16.5 -21l-436 -907h415v325q0 23 84 23h23q88 0 88 -23v-325h166q18 0 18 -68v-27q0 -69 -18 -69h-166v-352q0 -23 -84 -23h-23q-88 0 -88 23v352h-544q-41 0 -56.5 5.5t-15.5 22.5v91q0 53 24 110l410 846q11 25 92 25z" />
    <glyph glyph-name="five" unicode="5" 
d="M219 1475h731q19 0 19 -68v-27q0 -69 -19 -69h-540v-400q81 15 131 15q98 0 181.5 -26.5t148.5 -79t102 -140t37 -201.5q0 -122 -41.5 -218.5t-115.5 -157t-171.5 -92t-212.5 -31.5q-70 0 -156.5 16.5t-150.5 42.5q-20 8 0 72l8 26q9 33 20 48.5t21 11.5q126 -52 274 -52
q149 0 239.5 84.5t90.5 237.5q0 299 -307 299q-137 0 -289 -33v742z" />
    <glyph glyph-name="six" unicode="6" 
d="M987 1366l-6 -18q-12 -34 -21.5 -51t-17.5 -13q-94 49 -213 49q-76 0 -139 -29.5t-104.5 -77.5t-73 -115.5t-48.5 -136t-26 -147.5q122 93 295 93q213 0 323.5 -122.5t110.5 -330.5q0 -216 -120.5 -351.5t-334.5 -135.5q-113 0 -199 34.5t-139 92t-86.5 141.5t-46 173
t-12.5 197q0 109 13.5 211.5t42 203t76.5 183t112.5 145.5t155.5 98.5t200 35.5q140 0 258 -59q11 -6 11 -21t-11 -49zM326 672v-54q0 -51 2.5 -93.5t10 -93t20 -90t34.5 -78.5t52 -64.5t74 -41.5t99 -16q69 0 120 27.5t78.5 73.5t40.5 97.5t13 109.5q0 311 -256 311
q-155 0 -288 -88z" />
    <glyph glyph-name="seven" unicode="7" 
d="M174 1475h780q41 0 56.5 -6t15.5 -23v-100q0 -39 -18 -84l-510 -1242q-9 -20 -90 -20h-33q-81 0 -81 22l1 3l543 1286h-664q-18 0 -18 69v27q0 68 18 68z" />
    <glyph glyph-name="eight" unicode="8" 
d="M401 778q-107 39 -173 127.5t-66 214.5q0 73 24 135.5t65.5 106t97 74t117.5 45t128 14.5q81 0 154 -22.5t131.5 -64.5t93.5 -110.5t35 -152.5q0 -123 -70 -212.5t-174 -135.5q131 -51 214 -147.5t83 -239.5q0 -130 -68 -229.5t-180 -150t-248 -50.5q-92 0 -173 24.5
t-146 72t-102.5 126t-37.5 178.5q0 142 83 246t212 151zM592 881q103 45 163 105t60 147q0 92 -63.5 148t-165.5 56q-101 0 -166.5 -58t-65.5 -149q0 -88 64 -145.5t174 -103.5zM575 694q-274 -103 -274 -305q0 -116 76.5 -183t197.5 -67q122 0 206.5 71.5t84.5 184.5
q0 60 -24.5 108.5t-71.5 84.5t-90 58.5t-105 47.5z" />
    <glyph glyph-name="nine" unicode="9" 
d="M145 127l9 18q11 25 27 41.5t26 10.5q46 -26 111.5 -41t123.5 -15q88 0 157 35.5t111.5 91.5t71.5 135.5t42 155.5t18 164q-62 -53 -149 -84t-173 -31q-207 0 -311.5 116t-104.5 312q0 204 123 331.5t344 127.5q79 0 145 -18t114 -49.5t85 -78t61 -100t39 -119.5t21 -132
t6 -142q0 -97 -8.5 -185.5t-29 -177.5t-51.5 -164t-79 -140.5t-108.5 -111t-143 -71.5t-180.5 -26q-164 0 -299 69q-10 6 -9.5 29.5t11.5 48.5zM850 870v25q0 68 -5 122.5t-23 116.5t-47.5 103.5t-83 69.5t-126.5 28q-58 0 -104.5 -17t-76 -44.5t-49.5 -64.5t-28 -75t-8 -79
q0 -285 248 -285q141 0 303 100z" />
    <glyph glyph-name="colon" unicode=":" horiz-adv-x="493" 
d="M117 117q0 57 40 97t97 40t97 -40t40 -97t-40 -97t-97 -40t-97 40t-40 97zM117 881q0 57 40 97t97 40t97 -40t40 -97t-40 -97.5t-97 -40.5t-97 40.5t-40 97.5z" />
    <glyph glyph-name="semicolon" unicode=";" horiz-adv-x="493" 
d="M109 881q0 57 40 97t97 40t97 -40t40 -97t-40 -97.5t-97 -40.5t-97 40.5t-40 97.5zM106 -332l-22 25q-30 29 -4 55q119 115 119 205q0 28 -14 48t-31 31.5t-31 38.5t-14 66q0 54 38.5 86.5t96.5 32.5q67 0 105 -45.5t38 -114.5q0 -120 -60.5 -236.5t-160.5 -195.5
q-30 -26 -60 4z" />
    <glyph glyph-name="less" unicode="&#x3c;" 
d="M104 823l889 500q9 4 19 -7t26 -40l11 -19q32 -59 12 -69l-799 -436l803 -447q8 -6 4.5 -23.5t-14.5 -37.5l-15 -25q-11 -21 -25.5 -34t-23.5 -9l-887 492q-16 10 -16 67v23q0 55 16 65z" />
    <glyph glyph-name="equal" unicode="=" 
d="M88 1024h991q19 0 19 -59v-19q0 -61 -19 -61h-991q-18 0 -18 61v19q0 59 18 59zM88 606h991q19 0 19 -59v-19q0 -61 -19 -61h-991q-18 0 -18 61v19q0 59 18 59z" />
    <glyph glyph-name="greater" unicode="&#x3e;" 
d="M176 1327l887 -491q16 -10 16 -68v-23q0 -55 -16 -65l-889 -500q-9 -4 -19 7t-26 40l-10 19q-32 59 -13 69l799 437l-803 446q-8 6 -4 24t15 38l14 24q11 21 25.5 34t23.5 9z" />
    <glyph glyph-name="question" unicode="?" horiz-adv-x="843" 
d="M305 240q54 0 92.5 -38.5t38.5 -92.5q0 -53 -38.5 -91t-92.5 -38q-53 0 -91 38t-38 91q0 54 38 92.5t91 38.5zM104 1311l-18 41q-9 22 -8.5 42t8.5 25q61 36 143.5 56t157.5 20q89 0 162 -19.5t130 -59.5t88.5 -108.5t31.5 -160.5q0 -142 -69 -244t-189 -164
q-83 -43 -113.5 -80t-30.5 -96v-139q0 -21 -80 -21h-26q-84 0 -84 21v131q0 120 47.5 190t169.5 132q94 48 136 102.5t42 142.5q0 111 -63 156t-172 45q-111 0 -213 -51q-9 -5 -24 5t-26 34z" />
    <glyph glyph-name="at" unicode="@" horiz-adv-x="1675" 
d="M1061 1057l4 16q6 25 61 25h52q22 0 35.5 -5t17 -10.5t2.5 -11.5q-28 -103 -51 -219l-39 -199q-10 -55 -10 -88q0 -112 102 -112q62 0 109 40.5t72.5 104.5t37.5 130.5t12 131.5q0 157 -73.5 273t-199 174.5t-286.5 58.5q-146 0 -271.5 -50t-214.5 -138.5t-139.5 -215
t-50.5 -274.5q0 -277 160.5 -428t425.5 -151q174 0 326 49q9 3 18 -7t15 -32l4 -15q15 -53 -2 -59q-80 -31 -185 -48t-200 -17q-205 0 -363.5 80t-250 238t-91.5 372q0 236 109 425.5t297 294.5t417 105q146 0 273.5 -43t222 -122t149 -199t54.5 -265q0 -98 -25.5 -191.5
t-73.5 -172t-129 -126.5t-182 -48q-53 0 -91.5 16.5t-57.5 36.5t-45 59q-107 -112 -250 -112q-145 0 -215 80.5t-70 212.5q0 68 17 137t53 133t85.5 113t119 78.5t149.5 29.5q105 0 166 -55zM977 709l45 206q-54 60 -137 60q-75 0 -129.5 -53t-78.5 -127.5t-24 -155.5
q0 -84 30 -127t99 -43q45 0 78.5 18t55.5 54.5t35.5 74.5t25.5 93z" />
    <glyph glyph-name="A" unicode="A" horiz-adv-x="1327" 
d="M641 1475h39q83 0 92 -23l508 -1429q3 -22 -88 -23h-31q-85 0 -94 23l-121 360h-577l-121 -360q-9 -23 -90 -23h-27q-93 0 -84 23l500 1429q5 12 25 17.5t69 5.5zM655 1270l-239 -725h481z" />
    <glyph glyph-name="B" unicode="B" horiz-adv-x="1175" 
d="M164 1475h356q84 0 156 -12t136 -40.5t109 -72t71 -109.5t26 -149q0 -109 -49.5 -189t-124.5 -121q128 -55 190 -140t62 -214q0 -118 -41.5 -203t-117 -133t-167.5 -70t-207 -22h-399v1475zM358 682v-522h189q350 0 350 252q0 123 -79 196.5t-234 73.5h-226zM358 1315
v-479h160q153 0 228 65t75 176q0 59 -20 104t-49.5 69.5t-71 40t-77.5 20t-77 4.5h-168z" />
    <glyph glyph-name="C" unicode="C" horiz-adv-x="1173" 
d="M1081 1323l-12 -25q-12 -25 -26 -38.5t-23 -8.5q-144 78 -281 78q-95 0 -174 -36t-139 -108t-93.5 -188.5t-33.5 -267.5q0 -90 12.5 -170t43 -156.5t78.5 -131t123.5 -88t172.5 -33.5q147 0 281 67q10 5 24 -7t25 -38l12 -27q25 -56 6 -69q-169 -96 -385 -96
q-150 0 -265 54t-186.5 153t-107 232t-35.5 298q0 126 19.5 237t66 212t116.5 172.5t177 114t242 42.5q218 0 368 -102q9 -7 7 -26.5t-13 -43.5z" />
    <glyph glyph-name="D" unicode="D" horiz-adv-x="1339" 
d="M164 1475h344q204 0 335 -42t224 -139q180 -186 180 -549q0 -393 -209 -593q-88 -84 -214.5 -118t-305.5 -34h-354v1475zM358 1315v-1155h164q247 0 369 114q156 147 156 465q0 278 -117 420q-124 156 -395 156h-177z" />
    <glyph glyph-name="E" unicode="E" horiz-adv-x="1114" 
d="M164 1475h819q18 0 18 -68v-25q0 -69 -18 -69h-625v-486h531q18 0 18 -67v-25q0 -69 -18 -69h-531v-502h633q19 0 19 -68v-26q0 -70 -19 -70h-827v1475z" />
    <glyph glyph-name="F" unicode="F" horiz-adv-x="1003" 
d="M164 1475h768q18 0 18 -68v-25q0 -69 -18 -69h-574v-486h480q18 0 18 -67v-25q0 -69 -18 -69h-480v-643q0 -23 -84 -23h-22q-88 0 -88 23v1452z" />
    <glyph glyph-name="G" unicode="G" horiz-adv-x="1300" 
d="M1126 1300l-14 -24q-14 -26 -30.5 -37t-26.5 -4q-148 96 -330 96q-219 0 -329.5 -158.5t-110.5 -437.5q0 -134 26 -240.5t80 -186t143 -122.5t209 -43q143 0 248 43v443h-321q-19 0 -19 65v29q0 68 19 68h514v-709q-94 -42 -221.5 -72t-249.5 -30q-309 0 -469 195
t-160 548q0 359 163.5 565.5t469.5 206.5q251 0 413 -123q10 -7 10 -26.5t-14 -45.5z" />
    <glyph glyph-name="H" unicode="H" horiz-adv-x="1359" 
d="M248 1475h22q88 0 88 -23v-625h643v625q0 23 84 23h23q88 0 88 -23v-1429q0 -23 -84 -23h-22q-89 0 -89 23v643h-643v-643q0 -23 -84 -23h-22q-88 0 -88 23v1429q0 23 84 23z" />
    <glyph glyph-name="I" unicode="I" horiz-adv-x="780" 
d="M143 1475h494q16 0 16 -58v-24q0 -60 -16 -60h-150v-1192h150q16 0 16 -59v-25q0 -57 -16 -57h-494q-9 0 -12.5 11t-3.5 48v23q0 37 3.5 48t12.5 11h150v1192h-150q-9 0 -12.5 11.5t-3.5 48.5v22q0 37 3.5 48.5t12.5 11.5z" />
    <glyph glyph-name="J" unicode="J" horiz-adv-x="905" 
d="M653 1475h23q88 0 88 -23v-1010q0 -228 -96.5 -345t-307.5 -117q-198 0 -309 102q-8 7 -1.5 29.5t24.5 48.5l14 20q17 23 34 32t28 1q101 -68 200 -68q219 0 219 279v1028q0 23 84 23z" />
    <glyph glyph-name="K" unicode="K" horiz-adv-x="1204" 
d="M248 1475h22q88 0 88 -23v-700l158 176q276 309 393 526q6 13 22 17t64 4h19q81 0 84 -14q0 -4 -2 -9q-39 -96 -158 -263.5t-276 -336.5l499 -829q6 -11 -24 -18q-25 -5 -64 -5h-39q-85 0 -98 23l-410 700l-168 -186v-514q0 -23 -84 -23h-22q-88 0 -88 23v1429
q0 23 84 23z" />
    <glyph glyph-name="L" unicode="L" horiz-adv-x="1036" 
d="M248 1475h22q88 0 88 -23v-1288h586q19 0 19 -68v-26q0 -70 -19 -70h-708q-72 0 -72 29v1423q0 23 84 23z" />
    <glyph glyph-name="M" unicode="M" horiz-adv-x="1595" 
d="M303 1475h10q59 0 83 -6.5t30 -24.5l381 -955l371 955q6 18 27 24.5t79 6.5h14q61 0 84 -7.5t23 -23.5l57 -1421q0 -23 -80 -23h-22q-84 0 -84 23l-37 1136l-338 -883q-9 -20 -92 -20h-16q-49 0 -68.5 5t-24.5 18l-342 851l-41 -1107q0 -23 -84 -23h-20q-80 0 -80 23
l68 1421q2 20 19 25.5t83 5.5z" />
    <glyph glyph-name="N" unicode="N" horiz-adv-x="1388" 
d="M252 1475h10q62 0 82.5 -5.5t30.5 -21.5l682 -1135v1139q0 23 78 23h16q82 0 82 -23v-1429q0 -14 -19.5 -18.5t-76.5 -4.5h-7q-62 0 -82 5.5t-30 21.5l-686 1132v-1136q0 -23 -78 -23h-16q-82 0 -82 23v1429q0 14 19.5 18.5t76.5 4.5z" />
    <glyph glyph-name="O" unicode="O" horiz-adv-x="1427" 
d="M729 1329q-203 0 -319.5 -159t-116.5 -445q0 -279 106 -429.5t299 -150.5q202 0 319.5 161t117.5 446q0 278 -106.5 427.5t-299.5 149.5zM737 1495q133 0 242 -47t188.5 -137.5t123.5 -231t44 -319.5q0 -358 -175.5 -569t-469.5 -211q-133 0 -242 47t-188.5 138
t-123.5 232t-44 320q0 358 175.5 568t469.5 210z" />
    <glyph glyph-name="P" unicode="P" horiz-adv-x="1099" 
d="M164 1475h346q98 0 177.5 -12.5t150.5 -44t119 -81.5t76 -127.5t28 -179.5q0 -68 -14 -131.5t-49.5 -128t-89 -111.5t-140.5 -76.5t-197 -29.5q-111 0 -213 12v-542q0 -23 -84 -23h-22q-88 0 -88 23v1452zM358 1315v-592q95 -12 199 -12q152 0 227.5 84t75.5 229
q0 76 -21.5 132t-53 85.5t-78.5 47t-85.5 22t-86.5 4.5h-177z" />
    <glyph glyph-name="Q" unicode="Q" horiz-adv-x="1423" 
d="M1200 -158l-18 -20q-46 -51 -74 -27q-96 90 -197 221q-98 -36 -221 -36q-133 0 -242 47t-188.5 138t-123.5 232t-44 320q0 358 175.5 568t469.5 210q133 0 242 -47t188.5 -137.5t123.5 -231t44 -319.5q0 -226 -72 -397t-204 -269q88 -119 168 -184q19 -16 -27 -68z
M772 408l29 12q58 23 71 -4q58 -114 93 -170q170 156 170 506q0 278 -106.5 427.5t-299.5 149.5q-203 0 -319.5 -159t-116.5 -445q0 -279 106 -429.5t299 -150.5q70 0 129 21q-67 103 -102 196q-4 12 8 23.5t39 22.5z" />
    <glyph glyph-name="R" unicode="R" horiz-adv-x="1175" 
d="M164 1475h346q99 0 178.5 -11t151.5 -40t120.5 -75.5t76.5 -120t28 -171.5q0 -313 -301 -426l98 -191q109 -217 246 -407q10 -16 -26 -26q-23 -7 -56 -7h-39q-82 0 -108 39q-75 106 -174 299l-3.5 7l-3.5 7l-4 8l-125 244h-211v-581q0 -23 -84 -23h-22q-88 0 -88 23v1452
zM358 1317v-557h187q164 0 241.5 78.5t77.5 212.5q0 70 -21.5 121t-53 78.5t-78.5 43t-84.5 19.5t-85.5 4h-183z" />
    <glyph glyph-name="S" unicode="S" horiz-adv-x="1062" 
d="M903 1319l-10 -19q-16 -28 -31.5 -37.5t-25.5 -2.5q-109 71 -256 71q-122 0 -186 -63.5t-64 -153.5q0 -48 22.5 -88t60.5 -70t87 -57t103.5 -53.5t108.5 -55.5t103 -66t87 -81t60.5 -106t22.5 -136q0 -192 -122 -306.5t-349 -114.5q-126 0 -235.5 31.5t-178.5 84.5
q-24 21 13 84l14 25q14 24 31 34.5t26 4.5q67 -46 153.5 -73.5t154.5 -27.5q131 0 216 62t85 172q0 56 -22.5 102.5t-60 79.5t-87 61.5t-103.5 54t-108 52.5t-103.5 61t-87 74t-60 97.5t-22.5 127.5q0 187 123 297.5t303 110.5q94 0 192.5 -27.5t157.5 -76.5q18 -15 -12 -72
z" />
    <glyph glyph-name="T" unicode="T" horiz-adv-x="1048" 
d="M47 1475h954q19 0 19 -68v-25q0 -69 -19 -69h-380v-1290q0 -23 -89 -23h-22q-84 0 -84 23v1290h-379q-18 0 -18 69v25q0 68 18 68z" />
    <glyph glyph-name="U" unicode="U" horiz-adv-x="1388" 
d="M233 1475h23q88 0 88 -23v-901q0 -212 88 -310t262 -98q169 0 259.5 103.5t90.5 302.5v903q0 23 84 23h23q88 0 88 -23v-879q0 -301 -137.5 -447t-415.5 -146q-268 0 -402 135t-134 422v915q0 23 83 23z" />
    <glyph glyph-name="V" unicode="V" horiz-adv-x="1243" 
d="M127 1475h31q39 0 66 -7t30 -18l381 -1255l375 1255q6 25 88 25h26q87 -2 82 -25l-456 -1427q-9 -23 -97 -23h-49q-85 0 -94 23l-473 1427q-4 11 17 17q25 8 73 8z" />
    <glyph glyph-name="W" unicode="W" horiz-adv-x="1951" 
d="M147 1475h29q90 0 96 -25l303 -1255l299 1257q6 23 93 23h47q86 0 92 -23l307 -1257l295 1255q6 25 86 25h23q87 0 81 -25l-366 -1430q-6 -22 -96 -22h-62q-88 0 -94 22l-295 1209l-285 -1204q-7 -27 -96 -27h-63q-88 0 -95 27l-389 1425q-6 25 90 25z" />
    <glyph glyph-name="X" unicode="X" horiz-adv-x="1179" 
d="M193 1475h24q87 0 98 -23l306 -543l305 543q14 23 98 23h20q89 0 92 -20q1 -2 -1 -5l-422 -694l430 -729q7 -11 -19 -19t-71 -8h-31q-87 0 -100 23l-332 593l-340 -593q-13 -23 -98 -23h-25q-80 0 -89 19q-1 5 1 8l453 747l-390 676q-6 13 25 19q25 6 66 6z" />
    <glyph glyph-name="Y" unicode="Y" horiz-adv-x="1112" 
d="M111 1475h30q87 0 99 -23l325 -692l320 692q11 23 94 23h22q86 0 87 -21q0 -2 -1 -4l-438 -879v-548q0 -23 -88 -23h-22q-84 0 -84 23v548l-435 879q-6 13 25 19q25 6 66 6z" />
    <glyph glyph-name="Z" unicode="Z" horiz-adv-x="1120" 
d="M143 1475h815q41 0 56.5 -6t15.5 -23v-88q0 -32 -43 -103l-682 -1091h723q19 0 19 -68v-24q0 -72 -19 -72h-872q-40 0 -56 7t-16 22v88q0 46 37 104l684 1092h-662q-10 0 -14 16t-4 60v14q0 72 18 72z" />
    <glyph glyph-name="bracketleft" unicode="[" horiz-adv-x="667" 
d="M176 1542h416q18 0 18 -65v-13q0 -71 -18 -71h-234v-1514h240q18 0 18 -65v-13q0 -71 -18 -71h-422v1812z" />
    <glyph glyph-name="backslash" unicode="\" horiz-adv-x="688" 
d="M92 1511h47q38 0 53 -3.5t19 -16.5l451 -1501q3 -12 -12.5 -18.5t-51.5 -6.5h-49q-68 0 -74 21l-448 1501q-3 12 13 18t52 6z" />
    <glyph glyph-name="bracketright" unicode="]" horiz-adv-x="667" 
d="M76 1542h416v-1812h-422q-19 0 -19 71v13q0 65 19 65h239v1514h-233q-19 0 -19 71v13q0 65 19 65z" />
    <glyph glyph-name="asciicircum" unicode="^" 
d="M563 1495h47q70 0 84 -27l363 -772q7 -15 -20 -20q-20 -4 -60 -4h-31q-80 0 -92 26l-272 602l-275 -602q-6 -14 -24.5 -20t-61.5 -6h-26q-84 0 -83 19q0 2 1 5l370 772q13 27 80 27z" />
    <glyph glyph-name="underscore" unicode="_" horiz-adv-x="1024" 
d="M-4 -272h1032q19 0 19 -58v-18q0 -60 -19 -60h-1032q-19 0 -19 60v18q0 58 19 58z" />
    <glyph glyph-name="grave" unicode="`" horiz-adv-x="716" 
d="M236 1499h26q81 0 94 -22l150 -263q2 -6 0 -11.5t-18.5 -9t-47.5 -3.5h-18q-62 0 -76 18l-192 262q-12 14 20 23q22 6 62 6z" />
    <glyph glyph-name="a" unicode="a" horiz-adv-x="1161" 
d="M924 1081h4q38 0 55.5 -3t21 -7t3.5 -14q0 -14 -2 -125t-2 -187v-286q0 -170 14 -434q0 -13 -15 -19t-59 -6h-8q-46 0 -61 5.5t-17 19.5l-12 94q-51 -62 -135 -100.5t-181 -38.5q-109 0 -194 43t-137.5 118t-79.5 171.5t-27 209.5q0 259 133 419.5t338 160.5
q88 0 160 -36t117 -95l10 86q1 18 13 21t61 3zM819 506v291q-37 59 -101.5 99t-133.5 40q-140 0 -219.5 -109t-79.5 -295q0 -77 14.5 -143t45 -123t86.5 -90t132 -33q130 0 205 80q32 35 41.5 91t9.5 192z" />
    <glyph glyph-name="b" unicode="b" horiz-adv-x="1146" 
d="M336 428v-254q89 -35 178 -35q170 0 259 112.5t89 303.5q0 373 -262 373q-57 0 -112.5 -20.5t-90.5 -55.5q-46 -46 -55 -147q-6 -86 -6 -277zM240 1556h12q39 0 58 -3.5t22.5 -7.5t3.5 -13v-551q45 53 130 87t175 34q121 0 211 -59.5t141 -165.5q62 -134 62 -308
q0 -276 -135 -432.5t-390 -156.5q-217 0 -372 71q-6 3 -6 21v1460q0 9 4.5 13.5t24 7.5t59.5 3z" />
    <glyph glyph-name="c" unicode="c" horiz-adv-x="997" 
d="M899 170l10 -27q23 -58 0 -71q-165 -92 -348 -92q-114 0 -204.5 42t-147.5 116t-87 172t-30 214q0 137 38.5 248t106.5 182.5t160 109.5t199 38q179 0 330 -107q13 -8 10.5 -26t-23.5 -68q-33 -76 -65 -53q-128 86 -242 86q-145 0 -233 -105t-88 -292q0 -61 10 -116.5
t32.5 -106t56.5 -87t86 -58.5t116 -22q129 0 260 64q32 16 53 -41z" />
    <glyph glyph-name="d" unicode="d" horiz-adv-x="1187" 
d="M909 1556h13q49 0 66.5 -5.5t17.5 -20.5v-1274q0 -73 13.5 -92t57.5 -19q19 0 19 -55v-14q0 -62 -19 -68q-35 -12 -90 -12q-47 0 -85 30.5t-56 88.5h-2q-41 -57 -125.5 -96t-188.5 -39q-203 0 -320.5 143.5t-117.5 394.5q0 93 19 178.5t59.5 159.5t98 128.5t140 86
t181.5 31.5q60 0 125.5 -20t105.5 -48v496q0 15 18 20.5t70 5.5zM821 500v358q-39 33 -100 54.5t-121 21.5q-144 0 -229.5 -111.5t-85.5 -298.5q0 -183 78.5 -282t203.5 -99q55 0 108 18t87 52q35 35 47 95.5t12 191.5z" />
    <glyph glyph-name="e" unicode="e" horiz-adv-x="1114" 
d="M1006 475h-721q9 -176 102 -254q83 -74 242 -74q126 0 270 66q9 4 16.5 5t16.5 -9.5t18 -34.5l11 -24q16 -38 16.5 -54t-12.5 -22q-160 -94 -371 -94q-245 0 -373.5 142t-128.5 394q0 261 133.5 423.5t358.5 162.5q132 0 226.5 -60t147.5 -165q68 -136 68 -328
q0 -45 -4 -59.5t-16 -14.5zM291 627h547q-1 81 -27 148.5t-84.5 113t-140.5 45.5q-117 0 -195.5 -77t-99.5 -230z" />
    <glyph glyph-name="f" unicode="f" horiz-adv-x="681" 
d="M80 1081h129v49q0 219 93 333t280 114q107 0 206 -45q9 -5 9.5 -18t-9.5 -54l-2 -8q-9 -39 -16.5 -51t-19.5 -8q-85 30 -162 30q-111 0 -153 -71.5t-42 -218.5v-52h238q11 0 14.5 -12.5t3.5 -52.5v-17q0 -39 -3.5 -51t-14.5 -12h-238v-911q0 -9 -3.5 -13t-22.5 -8t-58 -4
h-12q-39 0 -59 3t-24.5 8t-4.5 14v911h-129q-11 0 -15 12.5t-4 50.5v17q0 40 4 52.5t15 12.5z" />
    <glyph glyph-name="g" unicode="g" horiz-adv-x="1157" 
d="M827 287v295q0 106 -6 154.5t-24 82.5q-26 50 -82 80.5t-140 30.5q-133 0 -211.5 -107t-78.5 -286q0 -181 70.5 -276t209.5 -95q76 0 148 34t114 87zM911 1081h7q48 0 63.5 -5.5t17.5 -20.5q13 -162 13 -508v-340q0 -259 -39 -385q-43 -142 -168 -221.5t-285 -79.5
q-81 0 -171.5 17.5t-137.5 45.5q-19 10 2 72l8 25q19 57 35 57q4 0 49 -17q100 -34 195 -34q267 0 315 233q12 64 12 197q-53 -57 -134.5 -87t-164.5 -30q-143 0 -243 70t-146.5 187t-46.5 271q1 173 62.5 304.5t167 200.5t237.5 69q88 0 158.5 -35t107.5 -96h2v84
q0 14 17 20t67 6z" />
    <glyph glyph-name="h" unicode="h" horiz-adv-x="1196" 
d="M240 1556h12q40 0 59.5 -3t24 -7.5t4.5 -13.5v-561q53 59 144 95t184 36q174 0 280 -109q55 -57 80 -140t25 -208v-620q0 -9 -3.5 -13t-22.5 -8t-58 -4h-13q-39 0 -59 3t-24.5 8t-4.5 14v534q0 135 -10 198t-45 103q-56 68 -195 68q-59 0 -120 -20t-97 -54
q-46 -42 -55 -145q-6 -86 -6 -281v-403q0 -9 -3.5 -13t-22.5 -8t-58 -4h-12q-39 0 -59 3t-24.5 8t-4.5 14v1507q0 9 3.5 13t22.5 7.5t58 3.5z" />
    <glyph glyph-name="i" unicode="i" horiz-adv-x="491" 
d="M242 1081h12q39 0 58 -3.5t22.5 -7.5t3.5 -13v-1032q0 -9 -3.5 -13t-22.5 -8t-58 -4h-12q-39 0 -59 3t-24.5 8t-4.5 14v1032q0 9 4.5 13.5t24 7.5t59.5 3zM117 1413q0 54 37.5 91.5t91.5 37.5t91.5 -37.5t37.5 -91.5t-37.5 -91.5t-91.5 -37.5t-91.5 37.5t-37.5 91.5z" />
    <glyph glyph-name="j" unicode="j" horiz-adv-x="518" 
d="M268 1081h13q39 0 58 -3.5t22.5 -7.5t3.5 -13v-1051q0 -485 -379 -485q-36 0 -80 8.5t-66 21.5q-10 6 -11 18t5 44l6 31q6 31 14 40.5t25 6.5q77 -15 94 -15q109 0 158 76t49 250v1055q0 9 4.5 13.5t24 7.5t59.5 3zM143 1413q0 54 37.5 91.5t91.5 37.5t91.5 -37.5
t37.5 -91.5t-37.5 -91.5t-91.5 -37.5t-91.5 37.5t-37.5 91.5z" />
    <glyph glyph-name="k" unicode="k" horiz-adv-x="1007" 
d="M244 1556h12q39 0 58 -3.5t22.5 -7.5t3.5 -13v-893l125 117q82 76 138.5 140t131.5 163q10 13 27.5 17.5t71.5 4.5q100 0 89 -28q0 -1 -1 -2q-33 -61 -127 -173.5t-213 -226.5l383 -622q3 -7 0.5 -13.5t-23 -11t-57.5 -4.5h-15q-56 0 -78 5t-30 18l-318 514l-104 -93
v-419q0 -9 -3.5 -13t-22.5 -8t-58 -4h-12q-39 0 -59 3t-24.5 8t-4.5 14v1507q0 9 4.5 13.5t24 7.5t59.5 3z" />
    <glyph glyph-name="l" unicode="l" horiz-adv-x="524" 
d="M223 1556h13q48 0 64 -5.5t19 -20.5q13 -74 13 -606v-680q0 -60 14.5 -81.5t63.5 -21.5h20q8 0 10 -10t2 -45v-6q0 -42 -1.5 -52.5t-10.5 -13.5q-46 -16 -96 -16q-105 0 -152 70q-35 51 -35 215v686q0 465 -12 561q-2 15 17 20.5t71 5.5z" />
    <glyph glyph-name="m" unicode="m" horiz-adv-x="1863" 
d="M231 1081h11q53 0 68.5 -5t15.5 -19l2 -92h2q54 64 138.5 100.5t178.5 36.5q171 0 277 -109q34 -38 47 -65q60 83 158.5 128.5t209.5 45.5q171 0 277 -109q55 -57 79.5 -139.5t24.5 -208.5v-620q0 -9 -3.5 -13t-22.5 -8t-58 -4h-12q-39 0 -59 3t-24.5 8t-4.5 14v534
q0 135 -10 198t-45 103q-56 68 -187 68q-56 0 -113 -19.5t-91 -52.5q-47 -43 -56 -145q-6 -86 -6 -281v-405q0 -9 -3.5 -13t-22.5 -8t-58 -4h-12q-39 0 -59 3t-24.5 8t-4.5 14v534q0 133 -10.5 196.5t-45.5 104.5q-56 68 -186 68q-56 0 -113.5 -19.5t-91.5 -52.5
q-46 -42 -55 -145q-6 -85 -6 -281v-405q0 -9 -3.5 -13t-22.5 -8t-58 -4h-12q-39 0 -59 3t-24.5 8t-4.5 14v698q0 81 -2.5 200t-2.5 134q0 9 4.5 13.5t23 7.5t56.5 3z" />
    <glyph glyph-name="n" unicode="n" horiz-adv-x="1198" 
d="M240 1081h10q53 0 68.5 -5t15.5 -19l2 -92h2q53 62 145.5 99.5t188.5 37.5q174 0 280 -109q55 -57 80 -140t25 -208v-620q0 -9 -3.5 -13t-22.5 -8t-58 -4h-12q-39 0 -59 3t-25 8t-5 14v534q0 135 -10 198t-45 103q-56 68 -194 68q-59 0 -120 -20t-97 -54
q-47 -43 -56 -145q-6 -86 -6 -281v-403q0 -9 -3.5 -13t-22.5 -8t-58 -4h-12q-39 0 -59 3t-24.5 8t-4.5 14v698q0 81 -2 200t-2 134q0 9 4.5 13.5t23 7.5t56.5 3z" />
    <glyph glyph-name="o" unicode="o" horiz-adv-x="1163" 
d="M602 1102q192 0 307 -103q78 -68 120 -179.5t42 -254.5q0 -284 -137 -434.5t-373 -150.5q-193 0 -307 102q-78 68 -120 179.5t-42 254.5q0 284 137 435t373 151zM594 938q-64 0 -118 -23t-97.5 -70.5t-68.5 -128t-25 -186.5q0 -59 8 -111.5t28 -104t51.5 -88.5t81.5 -60
t115 -23q64 0 118 23t98 70.5t69 128t25 186.5q0 59 -8 111.5t-28.5 104t-51.5 88.5t-81.5 60t-115.5 23z" />
    <glyph glyph-name="p" unicode="p" horiz-adv-x="1157" 
d="M238 1081h8q54 0 70 -5t16 -19l2 -92h-2q48 60 130.5 98.5t166.5 38.5q203 0 319.5 -143.5t116.5 -395.5q0 -117 -31.5 -220.5t-91.5 -185t-157 -128.5t-220 -47q-59 0 -121.5 18t-101.5 45v-494q0 -15 -18 -20.5t-70 -5.5h-12q-49 0 -66.5 5.5t-17.5 20.5v1172
q0 81 -2 200t-2 134q0 9 4.5 13.5t23 7.5t56.5 3zM342 543v-318q41 -34 97.5 -56t115.5 -22q145 0 231 112t86 298q0 181 -75 280t-199 99q-62 0 -124.5 -25.5t-92.5 -64.5q-27 -34 -33 -88t-6 -215z" />
    <glyph glyph-name="q" unicode="q" horiz-adv-x="1157" 
d="M1001 1010v-879q0 -457 13 -561q2 -15 -17 -21t-71 -6h-13q-48 0 -64.5 5.5t-19.5 21.5q-12 64 -12 530q-46 -55 -128 -87.5t-179 -32.5q-102 0 -182.5 41.5t-131.5 114.5t-77.5 169t-26.5 207q0 271 147 430.5t392 159.5q207 0 364 -72q6 -3 6 -20zM817 614v293
q-89 35 -178 35q-169 0 -261.5 -113t-92.5 -303q0 -374 268 -374q125 0 195 67q42 39 55.5 118.5t13.5 276.5z" />
    <glyph glyph-name="r" unicode="r" horiz-adv-x="735" 
d="M238 1081h10q53 0 68.5 -5t15.5 -19l4 -211q56 124 134.5 186t164.5 62q23 0 43 -4q13 -3 16.5 -12.5t3.5 -45.5v-31q0 -46 -4 -60.5t-18 -14.5q-52 0 -95.5 -15t-77 -43.5t-57.5 -58t-49 -70.5q-43 -70 -49 -176q-6 -86 -6 -303v-235q0 -9 -3.5 -13t-22.5 -8t-58 -4h-12
q-39 0 -59 3t-24.5 8t-4.5 14v698q0 81 -2 200t-2 134q0 9 4.5 13.5t23 7.5t56.5 3z" />
    <glyph glyph-name="s" unicode="s" horiz-adv-x="937" 
d="M807 915l-14 -20q-26 -37 -39.5 -45t-22.5 4q-64 44 -119 67t-118 23q-48 0 -91 -11.5t-78.5 -46t-35.5 -87.5q0 -32 14 -57.5t31 -40.5t52 -29.5t55 -20t61 -16.5q60 -15 101.5 -29t91.5 -40t80.5 -57.5t51.5 -80.5t21 -111q0 -158 -117 -247.5t-293 -89.5
q-93 0 -183.5 29t-152.5 73q-14 13 -12 24.5t21 49.5l10 22q20 42 30.5 49t30.5 -6q142 -82 267 -82q37 0 75 9.5t72.5 28.5t56 52.5t21.5 75.5q0 39 -20.5 69t-60 49.5t-73 30t-82.5 21.5q-172 40 -243 105q-82 76 -82 198q0 146 110 235t269 89q95 0 180 -30.5t143 -82.5
q27 -24 -8 -74z" />
    <glyph glyph-name="t" unicode="t" horiz-adv-x="753" 
d="M287 1384h12q39 0 58 -3.5t22.5 -7.5t3.5 -13v-279h258q11 0 14.5 -12t3.5 -51v-17q0 -40 -3.5 -52.5t-14.5 -12.5h-258v-604q0 -123 33 -158q34 -37 104 -37q47 0 139 27q15 4 22 -4t15 -37l6 -27q8 -32 7 -45t-13 -20q-37 -24 -96.5 -37.5t-118.5 -13.5q-135 0 -205 67
q-43 40 -60 102t-17 168v619h-129q-11 0 -15 12.5t-4 52.5v17q0 38 4 50.5t15 12.5h129v279q0 9 4.5 13.5t24 7.5t59.5 3z" />
    <glyph glyph-name="u" unicode="u" horiz-adv-x="1189" 
d="M223 1081h17q38 0 57 -3t24 -7.5t5 -13.5v-537q0 -132 9.5 -197t41.5 -104q57 -69 182 -69q63 0 125.5 19.5t97.5 53.5q35 33 50.5 101t15.5 227v506q0 24 82 24h18q50 0 67 -5.5t17 -18.5v-699q0 -80 2 -199.5t2 -133.5q0 -9 -4.5 -14t-23 -8t-56.5 -3h-8q-51 0 -67.5 6
t-16.5 19l-4 88h-2q-120 -133 -340 -133q-170 0 -272 108q-54 56 -77.5 139t-23.5 209v621q0 8 4 12.5t22.5 8t55.5 3.5z" />
    <glyph glyph-name="v" unicode="v" horiz-adv-x="1009" 
d="M227 1059l295 -850h2q187 510 262 852q3 13 16 16.5t70 3.5q64 0 80.5 -6t10.5 -33q-135 -549 -347 -1017q-7 -17 -26 -21t-82 -4q-59 0 -79 5t-26 20l-374 1028q-6 18 12 23t78 5q100 0 108 -22z" />
    <glyph glyph-name="w" unicode="w" horiz-adv-x="1591" 
d="M236 1059l231 -846l217 840q5 16 22 22t70 6h43q47 0 63 -6t21 -22l225 -842q57 181 88.5 287t70.5 262t63 297q2 13 19 18.5t73 5.5q58 0 74 -7t10 -34q-104 -476 -295 -1009q-6 -17 -28.5 -24t-72.5 -7h-30q-85 0 -94 29l-129 481q-39 142 -86 369q-27 -145 -89 -371
l-127 -481q-5 -15 -25.5 -21t-74.5 -6h-18q-61 0 -82.5 5.5t-26.5 21.5l-305 1026q-4 18 12 23t70 5q61 0 83.5 -5t27.5 -17z" />
    <glyph glyph-name="x" unicode="x" horiz-adv-x="1062" 
d="M330 1059l207 -338l202 338q7 13 31.5 17.5t81.5 4.5q94 0 94 -18l-4 -10l-307 -475l360 -553q11 -16 -21 -21q-24 -4 -75 -4q-66 0 -87 4.5t-32 18.5l-254 401l-245 -401q-17 -23 -113 -23q-94 0 -94 19q0 5 4 10l350 534l-313 494q-10 16 19 20q24 4 75 4q70 0 91 -3.5
t30 -18.5z" />
    <glyph glyph-name="y" unicode="y" horiz-adv-x="1038" 
d="M238 1059l192 -510q74 -197 113 -350q26 105 104 336l182 524q4 13 24 17.5t69 4.5q61 0 80.5 -5.5t13.5 -22.5l-387 -1078q-79 -225 -174 -327q-117 -125 -305 -125q-95 0 -164 37q-16 8 -16 23t10 42l8 25q12 37 20 46t25 5q67 -18 110 -18q103 0 170 67t131 238
l-407 1065q-7 18 12 23t84 5q97 0 105 -22z" />
    <glyph glyph-name="z" unicode="z" horiz-adv-x="931" 
d="M125 1081h698q19 0 19 -57v-14q0 -44 -17 -70l-510 -782h521q11 0 14.5 -13t3.5 -53v-29q0 -39 -3.5 -51t-14.5 -12h-736q-10 0 -14 12t-4 45v19q0 38 16 65l510 783h-483q-11 0 -15 12.5t-4 52.5v29q0 38 4 50.5t15 12.5z" />
    <glyph glyph-name="braceleft" unicode="{" horiz-adv-x="667" 
d="M555 1542h59q19 0 19 -65v-13q0 -71 -19 -71h-47q-78 0 -116.5 -54t-38.5 -143v-233q0 -46 -5.5 -90.5t-19 -95.5t-44 -85t-73.5 -39q43 -8 73.5 -40t44 -78.5t19 -87.5t5.5 -85v-266q0 -96 39.5 -156.5t117.5 -60.5h52q18 0 18 -65v-13q0 -71 -18 -71h-60
q-151 0 -241.5 91.5t-90.5 254.5v268q0 44 -6 81t-20 72.5t-42 57t-67 25.5q-14 2 -14 69v13q0 60 14 63q46 5 78 39.5t44.5 78.5t12.5 93v242q0 170 91.5 267t234.5 97z" />
    <glyph glyph-name="bar" unicode="|" horiz-adv-x="569" 
d="M270 1673h27q76 0 76 -24v-2184q0 -24 -72 -24h-27q-77 0 -77 24v2184q0 24 73 24z" />
    <glyph glyph-name="braceright" unicode="}" horiz-adv-x="667" 
d="M55 1542h60q142 0 233.5 -91t91.5 -249v-244q0 -55 12.5 -104t44.5 -86.5t78 -42.5q15 -3 15 -61v-17q0 -65 -15 -67q-135 -12 -135 -220v-268q0 -170 -90.5 -266t-240.5 -96h-60q-18 0 -18 71v13q0 65 18 65h51q78 0 118 57t40 148v262q0 36 2.5 70t11.5 75.5t24 73
t41.5 56.5t61.5 32q-35 4 -61.5 27.5t-41.5 54.5t-24 71.5t-11.5 72.5t-2.5 65v244q0 93 -39 149t-117 56h-47q-18 0 -18 71v13q0 65 18 65z" />
    <glyph glyph-name="asciitilde" unicode="~" 
d="M117 635l-29 6q-34 8 -44.5 15.5t-8.5 19.5q21 137 106.5 205.5t216.5 68.5q55 0 110 -19.5t99.5 -47t87.5 -55t91.5 -47t93.5 -19.5q60 0 97 35t48 98q3 19 66 10l24 -4q35 -6 47.5 -13t10.5 -18q-38 -262 -320 -262q-64 0 -121 19.5t-98.5 47t-80 54.5t-82.5 46.5
t-89 19.5q-65 0 -108.5 -40.5t-53.5 -113.5q-3 -18 -63 -6z" />
    <glyph glyph-name="nbspace" unicode="&#xa0;" horiz-adv-x="512" 
 />
    <glyph glyph-name="exclamdown" unicode="&#xa1;" horiz-adv-x="600" 
d="M289 676h22q70 0 70 -19l37 -1024q0 -26 -99 -26h-28q-101 0 -101 26l33 1024q0 19 66 19zM170 973q0 53 38.5 91t92.5 38q53 0 91 -38t38 -91q0 -54 -38 -92.5t-91 -38.5q-54 0 -92.5 38.5t-38.5 92.5z" />
    <glyph glyph-name="cent" unicode="&#xa2;" 
d="M659 1475h27q68 0 68 -23v-184q126 -15 256 -103q13 -8 10.5 -26t-23.5 -68q-33 -76 -65 -53q-61 44 -116.5 65t-125.5 21q-145 0 -233 -97.5t-88 -271.5q0 -57 10 -107.5t32.5 -97.5t56.5 -81t86 -54t116 -20q135 0 262 65q13 7 23 -1t24 -42l8 -20q15 -36 16 -52
t-10 -26q-122 -70 -260 -88v-188q0 -23 -65 -23h-27q-68 0 -68 23v188q-193 24 -295 164t-102 348q0 232 115 373t303 170v186q0 23 65 23z" />
    <glyph glyph-name="sterling" unicode="&#xa3;" 
d="M168 840h158v166q0 224 111 356.5t331 132.5q153 0 281 -82q17 -11 -9 -70l-8 -18q-11 -26 -25 -39.5t-26 -7.5q-102 55 -197 55q-144 0 -204 -80.5t-60 -232.5v-180h395q19 0 19 -60v-24q0 -62 -19 -62h-395v-162q0 -138 -32 -225.5t-111 -142.5h682q18 0 18 -68v-26
q0 -70 -18 -70h-891q-18 0 -18 70v22q0 61 20 74q76 53 116 141t40 193v194h-158q-18 0 -18 62v24q0 60 18 60z" />
    <glyph glyph-name="currency" unicode="&#xa4;" 
d="M956 754q0 -201 -94 -318l142 -246q9 -16 -21 -21l-49 -3h-35q-41 0 -55 4.5t-23 19.5l-88 150q-76 -31 -166 -31q-80 0 -149 29l-88 -148q-9 -15 -23 -19.5t-55 -4.5h-35q-72 0 -73 16l3 8l144 248q-80 109 -80 281q0 200 94 317l-141 246q-10 17 21 22q17 3 48 3h35
q40 0 54.5 -5t23.5 -20l88 -149q73 30 166 30q83 0 150 -28l88 147q9 15 23 20t54 5h35q73 0 73 -18q-1 -3 -3 -7l-143 -248q79 -107 79 -280zM786 743q0 52 -9 96t-29 84.5t-59.5 63.5t-94.5 23q-94 0 -153.5 -69.5t-59.5 -211.5q0 -52 9 -96t29 -84t59.5 -63t94.5 -23
q94 0 153.5 69t59.5 211z" />
    <glyph glyph-name="yen" unicode="&#xa5;" 
d="M190 1475h29q89 0 98 -23l279 -692l272 692q9 23 95 23h20q86 0 87 -21q0 -2 -1 -4l-289 -653h207q19 0 19 -56v-18q0 -57 -19 -57h-266l-41 -95v-69h307q19 0 19 -56v-18q0 -57 -19 -57h-307v-348q0 -23 -88 -23h-23q-84 0 -84 23v348h-284q-19 0 -19 57v18q0 56 19 56
h284v69l-41 95h-243q-19 0 -19 57v18q0 56 19 56h186l-287 653q-7 15 31 21q23 4 59 4z" />
    <glyph glyph-name="brokenbar" unicode="&#xa6;" horiz-adv-x="557" 
d="M264 1569h27q76 0 76 -23v-776q0 -22 -72 -22h-27q-78 0 -78 22v776q0 23 74 23zM264 367h27q76 0 76 -23v-776q0 -23 -72 -23h-27q-78 0 -78 23v776q0 23 74 23z" />
    <glyph glyph-name="section" unicode="&#xa7;" horiz-adv-x="1017" 
d="M868 1333l-8 -14q-23 -38 -37 -46t-24 3q-130 70 -252 70q-80 0 -140.5 -36.5t-60.5 -113.5q0 -39 19.5 -68.5t56.5 -48.5t70.5 -29.5t80.5 -21.5q65 -14 112.5 -28.5t101 -41t87 -60t56 -86t22.5 -118.5q0 -93 -40 -166.5t-109 -117.5q49 -62 49 -154q0 -158 -114 -248
t-292 -90q-208 0 -350 78q-26 14 6 76l11 20q13 27 25.5 37.5t31.5 3.5q144 -61 281 -61q56 0 105 15.5t85.5 55t36.5 97.5q0 32 -16.5 59t-39 44t-60 31.5t-66 22.5t-70.5 17q-78 16 -135.5 37.5t-112 57.5t-83.5 92.5t-29 131.5q0 82 40 155.5t125 123.5q-61 53 -61 159
q0 151 105.5 237.5t269.5 86.5q95 0 183 -24t149 -64q25 -16 -9 -74zM334 932q-94 -78 -94 -174q0 -42 20 -75t57 -54.5t71.5 -34t80.5 -23.5q143 -34 221 -73q90 70 90 182q0 44 -22 77.5t-62.5 55t-78 34t-89.5 23.5q-121 25 -194 62z" />
    <glyph glyph-name="dieresis" unicode="&#xa8;" horiz-adv-x="716" 
d="M2 1341q0 49 34 83t83 34t83 -34t34 -83t-33.5 -82.5t-83.5 -33.5t-83.5 33.5t-33.5 82.5zM479 1341q0 49 33.5 83t83.5 34t83.5 -34t33.5 -83t-33.5 -82.5t-83.5 -33.5t-83.5 33.5t-33.5 82.5z" />
    <glyph glyph-name="copyright" unicode="&#xa9;" horiz-adv-x="1648" 
d="M829 1495q204 0 374 -101t267 -275t97 -382q0 -155 -58 -295t-156.5 -241.5t-236 -161t-289.5 -59.5q-153 0 -291.5 59.5t-237.5 161t-157.5 241.5t-58.5 295q0 208 98.5 382t270 275t378.5 101zM829 1368q-163 0 -299 -83.5t-214 -228.5t-78 -319q0 -175 76.5 -319.5
t211.5 -228t299 -83.5t299 82.5t213 227.5t78 321q0 175 -76.5 319.5t-211.5 228t-298 83.5zM1071 1059l-8 -21q-9 -21 -22 -35t-25 -8q-79 35 -139 35q-105 0 -171.5 -75t-66.5 -216q0 -55 11 -101.5t36 -88t73 -65t115 -23.5q65 0 132 28q26 11 43 -32l12 -29
q9 -23 8.5 -40.5t-8.5 -22.5q-95 -50 -215 -50q-179 0 -276 116.5t-97 303.5q0 85 22.5 160.5t68 138t124 99t180.5 36.5q113 0 207 -51q16 -8 -4 -59z" />
    <glyph glyph-name="ordfeminine" unicode="&#xaa;" horiz-adv-x="868" 
d="M651 1483h33q57 0 57 -17q0 -10 -1 -83t-1 -123v-189q0 -151 11 -287q0 -6 -5 -9t-24 -5t-55 -2h-7q-28 0 -41.5 2.5t-16 5t-3.5 8.5l-6 47q-34 -34 -89 -54.5t-114 -20.5q-97 0 -165 49.5t-99 128t-31 178.5q0 171 89.5 277t226.5 106q115 0 186 -78l4 45q3 21 51 21z
M580 1096v190q-25 31 -63 52.5t-79 21.5q-85 0 -132.5 -65t-47.5 -175q0 -96 39.5 -162.5t124.5 -66.5q89 0 123 43q35 43 35 162z" />
    <glyph glyph-name="guillemotleft" unicode="&#xab;" horiz-adv-x="1046" 
d="M442 1061l17 -6q30 -12 42.5 -23t6.5 -20l-238 -385l246 -398q13 -19 -45 -47l-16 -8q-61 -30 -76 -8l-270 391q-15 23 -15 53v19q0 29 15 51l264 385q11 17 69 -4zM868 1061l17 -6q30 -12 42.5 -23t6.5 -20l-238 -385l246 -398q13 -19 -45 -47l-16 -8q-61 -30 -76 -8
l-270 391q-15 22 -15 53v19q0 29 15 51l264 385q11 17 69 -4z" />
    <glyph glyph-name="logicalnot" unicode="&#xac;" 
d="M82 911h1014v-450q0 -21 -62 -21h-30q-64 0 -64 21v311h-858q-19 0 -19 62v18q0 59 19 59z" />
    <glyph glyph-name="uni00AD" unicode="&#xad;" horiz-adv-x="774" 
d="M106 694h562q18 0 18 -63v-19q0 -65 -18 -65h-562q-18 0 -18 65v19q0 63 18 63z" />
    <glyph glyph-name="registered" unicode="&#xae;" horiz-adv-x="1648" 
d="M829 1495q204 0 374 -101t267 -275t97 -382q0 -155 -58 -295t-156.5 -241.5t-236 -161t-289.5 -59.5q-153 0 -291.5 59.5t-237.5 161t-157.5 241.5t-58.5 295q0 208 98.5 382t270 275t378.5 101zM829 1368q-163 0 -299 -83.5t-214 -228.5t-78 -319q0 -175 76.5 -319.5
t211.5 -228t299 -83.5t299 82.5t213 227.5t78 321q0 175 -76.5 319.5t-211.5 228t-298 83.5zM543 1153h266q160 0 246 -55.5t86 -182.5q0 -186 -168 -253l49 -87q51 -89 147 -219q9 -13 -19 -19q-15 -3 -38 -3h-47q-56 0 -72 20q-59 75 -110 166l-72 125h-106v-293
q0 -7 -13 -12.5t-35 -5.5h-65q-22 0 -35.5 5.5t-13.5 12.5v801zM705 1020v-248h118q82 0 121 35t39 96q0 117 -178 117h-100z" />
    <glyph glyph-name="macron" unicode="&#xaf;" horiz-adv-x="716" 
d="M76 1419h563q20 0 20 -59v-25q0 -65 -20 -65h-563q-21 0 -21 65v25q0 59 21 59z" />
    <glyph glyph-name="degree" unicode="&#xb0;" horiz-adv-x="722" 
d="M367 1368q-72 0 -114 -44.5t-42 -123.5q0 -78 37.5 -120t107.5 -42q73 0 113.5 44.5t40.5 125.5q0 77 -36.5 118.5t-106.5 41.5zM63 1196q0 136 84 217.5t222 81.5q133 0 211.5 -73t78.5 -212q0 -136 -83.5 -217.5t-221.5 -81.5q-133 0 -212 73.5t-79 211.5z" />
    <glyph glyph-name="plusminus" unicode="&#xb1;" 
d="M109 139h950q18 0 18 -59v-19q0 -61 -18 -61h-950q-19 0 -19 61v19q0 59 19 59zM109 979h397v399q0 21 63 21h31q62 0 62 -21v-399h397q18 0 18 -59v-19q0 -61 -18 -61h-397v-404q0 -20 -62 -20h-31q-63 0 -63 20v404h-397q-19 0 -19 61v19q0 59 19 59z" />
    <glyph glyph-name="twosuperior" unicode="&#xb2;" horiz-adv-x="819" 
d="M172 1434l-27 49q-6 11 -3.5 24.5t8.5 18.5q95 65 241 65q114 0 189 -61t75 -170q0 -87 -44.5 -165t-153.5 -187l-103 -105h318q16 0 16 -49v-35q0 -49 -16 -49h-520q-15 0 -15 45v23q0 30 21 55l157 166q103 109 143 171.5t40 119.5q0 110 -138 110q-79 0 -153 -47
q-5 -4 -16.5 1.5t-18.5 19.5z" />
    <glyph glyph-name="threesuperior" unicode="&#xb3;" horiz-adv-x="819" 
d="M176 1454l-12 25q-20 43 -4 51q84 61 227 61q127 0 208 -55t81 -156q0 -68 -37.5 -116.5t-101.5 -69.5q72 -12 121 -62.5t49 -136.5q0 -76 -46 -131.5t-119.5 -81.5t-164.5 -26q-136 0 -225 39q-18 9 2 55l12 29q17 40 35 34q71 -28 159 -28q87 0 137 30.5t50 85.5
q0 66 -62.5 96.5t-158.5 30.5h-76q-19 0 -19 50v26q0 47 19 47h74q87 0 140.5 26.5t53.5 82.5q0 54 -40 80t-105 26q-97 0 -162 -47q-4 -1 -8.5 0.5t-12 10t-14.5 24.5z" />
    <glyph glyph-name="acute" unicode="&#xb4;" horiz-adv-x="716" 
d="M446 1499h25q87 0 83 -23q-1 -3 -3 -6l-193 -262q-11 -18 -73 -18h-17q-64 0 -64 16q0 3 3 8l149 263q13 22 90 22z" />
    <glyph glyph-name="mu" unicode="&#xb5;" horiz-adv-x="1218" 
d="M231 1081h13q40 0 59.5 -3t24 -7.5t4.5 -13.5v-535q0 -128 9.5 -194t41.5 -103q56 -71 186 -71q136 0 215 73q45 45 54 146q6 85 6 280v404q0 9 3.5 13t22.5 7.5t58 3.5h12q40 0 59.5 -3t24 -7.5t4.5 -13.5v-801q0 -42 3 -65t14.5 -33t21.5 -11.5t37 -1.5q7 0 9.5 -10.5
t2.5 -44.5v-10q0 -42 -1.5 -52.5t-10.5 -13.5q-52 -18 -94 -18q-53 0 -91 34.5t-57 98.5q-115 -149 -323 -149q-125 0 -207 71v-106q0 -328 12 -394q3 -15 -16 -20.5t-72 -5.5h-12q-48 0 -64.5 5.5t-19.5 20.5q-13 45 -13 369v1137q0 9 3.5 13t22.5 7.5t58 3.5z" />
    <glyph glyph-name="mu" unicode="&#x3bc;" horiz-adv-x="1218" 
d="M231 1081h13q40 0 59.5 -3t24 -7.5t4.5 -13.5v-535q0 -128 9.5 -194t41.5 -103q56 -71 186 -71q136 0 215 73q45 45 54 146q6 85 6 280v404q0 9 3.5 13t22.5 7.5t58 3.5h12q40 0 59.5 -3t24 -7.5t4.5 -13.5v-801q0 -42 3 -65t14.5 -33t21.5 -11.5t37 -1.5q7 0 9.5 -10.5
t2.5 -44.5v-10q0 -42 -1.5 -52.5t-10.5 -13.5q-52 -18 -94 -18q-53 0 -91 34.5t-57 98.5q-115 -149 -323 -149q-125 0 -207 71v-106q0 -328 12 -394q3 -15 -16 -20.5t-72 -5.5h-12q-48 0 -64.5 5.5t-19.5 20.5q-13 45 -13 369v1137q0 9 3.5 13t22.5 7.5t58 3.5z" />
    <glyph glyph-name="paragraph" unicode="&#xb6;" horiz-adv-x="1255" 
d="M535 1475h624q11 0 15 -13t4 -53v-20q0 -39 -4 -51.5t-15 -12.5h-139v-1585q0 -21 -78 -21h-18q-80 0 -80 21v1587h-205v-1587q0 -21 -78 -21h-18q-80 0 -80 21v889q-187 7 -296.5 120.5t-109.5 292.5q0 201 124 317t354 116z" />
    <glyph glyph-name="periodcentered" unicode="&#xb7;" horiz-adv-x="493" 
d="M254 879q58 0 98.5 -40.5t40.5 -99.5q0 -57 -40.5 -97t-98.5 -40q-57 0 -97 40t-40 97q0 58 40 99t97 41z" />
    <glyph glyph-name="cedilla" unicode="&#xb8;" horiz-adv-x="716" 
d="M287 35h59q43 0 43 -17l-8 -102q12 2 35 2q81 0 133.5 -44.5t52.5 -127.5t-61.5 -142t-180.5 -59q-82 0 -155 25q-18 7 -8 47l8 33q5 20 12 30t16 7q59 -17 111 -17q41 0 66.5 17.5t25.5 50.5q0 34 -23 46.5t-79 12.5q-72 0 -121 -6l29 227q3 17 45 17z" />
    <glyph glyph-name="onesuperior" unicode="&#xb9;" horiz-adv-x="819" 
d="M150 1436l204 120q40 21 78 21h39q55 0 55 -18v-666h105q16 0 16 -49v-25q0 -49 -16 -49h-385q-17 0 -17 49v25q0 49 17 49h123v514l-154 -88q-19 -11 -43 33l-16 30q-9 17 -10.5 33.5t4.5 20.5z" />
    <glyph glyph-name="ordmasculine" unicode="&#xba;" horiz-adv-x="878" 
d="M451 1495q142 0 219 -68q114 -93 114 -286q0 -186 -96.5 -285.5t-261.5 -99.5q-141 0 -217 67q-115 94 -115 287q0 186 96.5 285.5t260.5 99.5zM446 1360q-81 0 -134.5 -60t-53.5 -182q0 -44 8.5 -82t27.5 -72t54.5 -53.5t83.5 -19.5q81 0 135 60t54 182q0 60 -14.5 108
t-55.5 83.5t-105 35.5z" />
    <glyph glyph-name="guillemotright" unicode="&#xbb;" horiz-adv-x="1046" 
d="M150 1047l16 8q61 30 76 8l270 -381q14 -21 14 -53v-19q0 -30 -14 -51l-264 -395q-11 -17 -70 4l-16 6q-30 12 -42.5 23t-6.5 20l237 395l-246 387q-13 19 46 48zM575 1047l17 8q61 30 76 8l270 -381q14 -21 14 -53v-19q0 -30 -14 -51l-264 -395q-11 -17 -70 4l-16 6
q-30 12 -42.5 23t-6.5 20l237 395l-246 387q-13 20 45 48z" />
    <glyph glyph-name="onequarter" unicode="&#xbc;" horiz-adv-x="1843" 
d="M1235 1509h35q67 -1 59 -22l-688 -1503q-9 -19 -68 -19h-36q-23 0 -37.5 3t-20 8t-2.5 12l690 1503q9 18 68 18zM145 1333l205 121q40 21 78 21h39q55 0 55 -19v-665h105q16 0 16 -50v-24q0 -49 -16 -49h-385q-17 0 -17 49v24q0 50 17 50h123v514l-154 -88
q-19 -11 -43 32l-16 31q-9 17 -11 33t4 20zM1401 807h16q76 0 76 -14q0 -3 -2 -7l-248 -473h203v154q0 8 4 11.5t21 6t51 2.5h10q33 0 49.5 -3t19.5 -6.5t3 -10.5v-154h75q17 0 17 -49v-33q0 -49 -17 -49h-75v-162q0 -7 -3 -10.5t-19.5 -6.5t-49.5 -3h-10q-34 0 -51 2.5
t-21 6t-4 11.5v162h-365q-14 0 -14 45v45q0 26 27 78l229 436q6 12 21 16.5t57 4.5z" />
    <glyph glyph-name="onehalf" unicode="&#xbd;" horiz-adv-x="1843" 
d="M1235 1509h35q67 -1 59 -22l-688 -1503q-9 -19 -68 -19h-36q-23 0 -37.5 3t-20 8t-2.5 12l690 1503q9 18 68 18zM145 1333l205 121q40 21 78 21h39q55 0 55 -19v-665h105q16 0 16 -50v-24q0 -49 -16 -49h-385q-17 0 -17 49v24q0 50 17 50h123v514l-154 -88
q-19 -11 -43 32l-16 31q-9 17 -11 33t4 20zM1163 664l-26 49q-6 11 -4 24.5t8 18.5q95 65 241 65q114 0 189.5 -61.5t75.5 -169.5q0 -86 -45 -164.5t-154 -187.5l-102 -105h317q16 0 16 -49v-35q0 -49 -16 -49h-520q-15 0 -15 45v23q0 30 21 55l158 166q102 108 142 171
t40 120q0 110 -137 110q-80 0 -154 -47q-5 -4 -16.5 1.5t-18.5 19.5z" />
    <glyph glyph-name="threequarters" unicode="&#xbe;" horiz-adv-x="1843" 
d="M1280 1509h35q67 -1 59 -22l-688 -1503q-10 -19 -68 -19h-36q-23 0 -37.5 3t-20 8t-2.5 12l690 1503q9 18 68 18zM162 1352l-12 24q-20 44 -5 51q85 62 228 62q127 0 208 -55t81 -156q0 -68 -38 -116.5t-102 -69.5q72 -12 121 -62.5t49 -136.5q0 -76 -46 -131.5
t-119.5 -82t-164.5 -26.5q-136 0 -225 39q-18 9 2 56l13 28q7 17 14.5 26t11.5 9h8q74 -29 160 -29q87 0 136.5 31t49.5 86q0 66 -62.5 96.5t-158.5 30.5h-75q-19 0 -19 49v27q0 47 19 47h73q87 0 141 26t54 82q0 54 -40.5 80.5t-105.5 26.5q-96 0 -161 -47q-4 -1 -8.5 0.5
t-12 10t-14.5 24.5zM1425 807h17q76 0 76 -14q0 -3 -2 -7l-248 -473h202v154q0 8 4 11.5t21 6t51 2.5h10q33 0 49.5 -3t19.5 -6.5t3 -10.5v-154h76q16 0 16 -49v-33q0 -49 -16 -49h-76v-162q0 -7 -3 -10.5t-19.5 -6.5t-49.5 -3h-10q-34 0 -51 2.5t-21 6t-4 11.5v162h-364
q-14 0 -14 45v45q0 28 26 78l230 436q6 12 21 16.5t56 4.5z" />
    <glyph glyph-name="questiondown" unicode="&#xbf;" horiz-adv-x="843" 
d="M416 973q0 53 38.5 91t92.5 38q53 0 91 -38t38 -91q0 -54 -38 -92.5t-91 -38.5q-54 0 -92.5 38.5t-38.5 92.5zM535 678h26q84 0 84 -21v-131q0 -120 -47.5 -189.5t-169.5 -131.5q-94 -47 -136 -102.5t-42 -143.5q0 -111 63 -156t172 -45t213 52q9 6 24 -3.5t26 -35.5
l18 -41q10 -24 9 -43.5t-9 -24.5q-61 -36 -143.5 -56t-157.5 -20q-89 0 -162 19.5t-130 59.5t-88.5 108.5t-31.5 160.5q0 142 69 244t189 164q83 43 113.5 80t30.5 96v139q0 21 80 21z" />
    <glyph glyph-name="Agrave" unicode="&#xc0;" horiz-adv-x="1327" 
d="M641 1475h39q83 0 92 -23l508 -1429q3 -22 -88 -23h-31q-85 0 -94 23l-121 360h-577l-121 -360q-9 -23 -90 -23h-27q-93 0 -84 23l500 1429q5 12 25 17.5t69 5.5zM655 1270l-239 -725h481zM535 1872h26q81 0 94 -23l150 -262q2 -6 0 -11.5t-18.5 -9t-47.5 -3.5h-18
q-62 0 -76 18l-192 262q-12 14 20 23q22 6 62 6z" />
    <glyph glyph-name="Aacute" unicode="&#xc1;" horiz-adv-x="1327" 
d="M641 1475h39q83 0 92 -23l508 -1429q3 -22 -88 -23h-31q-85 0 -94 23l-121 360h-577l-121 -360q-9 -23 -90 -23h-27q-93 0 -84 23l500 1429q5 12 25 17.5t69 5.5zM655 1270l-239 -725h481zM774 1872h25q87 0 83 -23q-1 -3 -3 -6l-193 -262q-8 -11 -23 -14.5t-51 -3.5h-16
q-64 0 -64 16q0 3 3 8l149 262q13 23 90 23z" />
    <glyph glyph-name="Acircumflex" unicode="&#xc2;" horiz-adv-x="1327" 
d="M641 1475h39q83 0 92 -23l508 -1429q3 -22 -88 -23h-31q-85 0 -94 23l-121 360h-577l-121 -360q-9 -23 -90 -23h-27q-93 0 -84 23l500 1429q5 12 25 17.5t69 5.5zM655 1270l-239 -725h481zM344 1636l186 199q24 27 91 27h77q68 0 93 -29l182 -193q17 -17 -21 -59l-16 -18
q-13 -17 -29.5 -24t-23.5 1l-226 197l-229 -195q-6 -7 -20 -0.5t-29 23.5l-14 16q-35 38 -21 55z" />
    <glyph glyph-name="Atilde" unicode="&#xc3;" horiz-adv-x="1327" 
d="M641 1475h39q83 0 92 -23l508 -1429q3 -22 -88 -23h-31q-85 0 -94 23l-121 360h-577l-121 -360q-9 -23 -90 -23h-27q-93 0 -84 23l500 1429q5 12 25 17.5t69 5.5zM655 1270l-239 -725h481zM377 1634l-15 21q-29 40 -16 55q35 42 86.5 69t110.5 27q51 0 92.5 -19t77 -37.5
t73.5 -18.5q54 0 105 55q14 14 53 -31l12 -16q12 -15 17.5 -31.5t-0.5 -24.5q-33 -44 -83.5 -75t-107.5 -31q-52 0 -124 38t-119 38q-60 0 -109 -56q-15 -15 -53 37z" />
    <glyph glyph-name="Adieresis" unicode="&#xc4;" horiz-adv-x="1327" 
d="M641 1475h39q83 0 92 -23l508 -1429q3 -22 -88 -23h-31q-85 0 -94 23l-121 360h-577l-121 -360q-9 -23 -90 -23h-27q-93 0 -84 23l500 1429q5 12 25 17.5t69 5.5zM655 1270l-239 -725h481zM301 1663q0 49 33.5 83t83.5 34t83.5 -34t33.5 -83t-33.5 -83t-83.5 -34
t-83.5 34t-33.5 83zM778 1663q0 49 34 83t83 34t83 -34t34 -83t-34 -83t-83 -34t-83 34t-34 83z" />
    <glyph glyph-name="Aring" unicode="&#xc5;" horiz-adv-x="1327" 
d="M774 1442l506 -1419q3 -22 -88 -23h-31q-85 0 -94 23l-121 360h-577l-121 -360q-9 -23 -90 -23h-27q-93 0 -84 23l498 1425q-74 54 -74 145q0 76 57.5 130.5t135.5 54.5q79 0 135.5 -54t56.5 -131q0 -46 -22 -86t-60 -65zM655 1270l-239 -725h481zM578 1593q0 -38 25 -62
t61 -24t60 25t24 61t-24 61t-60 25t-61 -24t-25 -62z" />
    <glyph glyph-name="AE" unicode="&#xc6;" horiz-adv-x="1826" 
d="M920 1475h776q18 0 18 -68v-25q0 -69 -18 -69h-604v-486h510q18 0 18 -67v-25q0 -69 -18 -69h-510v-502h612q18 0 18 -68v-26q0 -70 -18 -70h-807v393h-469l-205 -370q-13 -23 -94 -23h-29q-86 0 -93 18q-1 2 1 5l813 1421q10 16 31 23.5t68 7.5zM897 1237l-379 -682h379
v682z" />
    <glyph glyph-name="Ccedilla" unicode="&#xc7;" horiz-adv-x="1173" 
d="M1081 1323l-12 -25q-12 -25 -26 -38.5t-23 -8.5q-144 78 -281 78q-95 0 -174 -36t-139 -108t-93.5 -188.5t-33.5 -267.5q0 -90 12.5 -170t43 -156.5t78.5 -131t123.5 -88t172.5 -33.5q147 0 281 67q10 5 24 -7t25 -38l12 -27q25 -56 6 -69q-143 -82 -325 -94l-4 -66
q12 2 34 2q81 0 134 -44.5t53 -127.5t-61.5 -142t-180.5 -59q-83 0 -156 25q-18 7 -8 47l8 33q4 20 12 30t17 7q60 -17 111 -17q41 0 66.5 17.5t25.5 50.5q0 34 -23.5 46.5t-79.5 12.5q-70 0 -120 -6l24 195q-170 19 -285 118.5t-168 254t-53 358.5q0 126 19.5 237t66 212
t116.5 172.5t177 114t242 42.5q218 0 368 -102q9 -7 7 -26.5t-13 -43.5z" />
    <glyph glyph-name="Egrave" unicode="&#xc8;" horiz-adv-x="1114" 
d="M164 1475h819q18 0 18 -68v-25q0 -69 -18 -69h-625v-486h531q18 0 18 -67v-25q0 -69 -18 -69h-531v-502h633q19 0 19 -68v-26q0 -70 -19 -70h-827v1475zM440 1872h27q81 0 94 -23l150 -262q2 -6 0 -11.5t-18.5 -9t-47.5 -3.5h-18q-62 0 -76 18l-193 262q-12 14 20 23
q22 6 62 6z" />
    <glyph glyph-name="Eacute" unicode="&#xc9;" horiz-adv-x="1114" 
d="M164 1475h819q18 0 18 -68v-25q0 -69 -18 -69h-625v-486h531q18 0 18 -67v-25q0 -69 -18 -69h-531v-502h633q19 0 19 -68v-26q0 -70 -19 -70h-827v1475zM750 1872h24q87 0 83 -23q-1 -3 -3 -6l-192 -262q-8 -11 -23 -14.5t-51 -3.5h-17q-64 0 -64 16q0 3 3 8l149 262
q13 23 91 23z" />
    <glyph glyph-name="Ecircumflex" unicode="&#xca;" horiz-adv-x="1114" 
d="M164 1475h819q18 0 18 -68v-25q0 -69 -18 -69h-625v-486h531q18 0 18 -67v-25q0 -69 -18 -69h-531v-502h633q19 0 19 -68v-26q0 -70 -19 -70h-827v1475zM279 1636l186 199q24 27 90 27h78q67 0 92 -29l182 -193q18 -18 -20 -59l-17 -18q-13 -17 -29.5 -24t-23.5 1
l-225 197l-230 -195q-6 -7 -20 -0.5t-29 23.5l-14 16q-35 37 -20 55z" />
    <glyph glyph-name="Edieresis" unicode="&#xcb;" horiz-adv-x="1114" 
d="M164 1475h819q18 0 18 -68v-25q0 -69 -18 -69h-625v-486h531q18 0 18 -67v-25q0 -69 -18 -69h-531v-502h633q19 0 19 -68v-26q0 -70 -19 -70h-827v1475zM229 1663q0 49 33.5 83t83.5 34t83.5 -34t33.5 -83t-33.5 -83t-83.5 -34t-83.5 34t-33.5 83zM707 1663
q0 50 33.5 83.5t82.5 33.5t83 -34t34 -83t-34 -83t-83 -34t-82.5 33.5t-33.5 83.5z" />
    <glyph glyph-name="Igrave" unicode="&#xcc;" horiz-adv-x="780" 
d="M143 1475h494q16 0 16 -58v-24q0 -60 -16 -60h-150v-1192h150q16 0 16 -59v-25q0 -57 -16 -57h-494q-9 0 -12.5 11t-3.5 48v23q0 37 3.5 48t12.5 11h150v1192h-150q-9 0 -12.5 11.5t-3.5 48.5v22q0 37 3.5 48.5t12.5 11.5zM236 1872h26q81 0 94 -23l150 -262
q2 -6 0 -11.5t-18.5 -9t-47.5 -3.5h-18q-62 0 -76 18l-192 262q-12 14 20 23q22 6 62 6z" />
    <glyph glyph-name="Iacute" unicode="&#xcd;" horiz-adv-x="780" 
d="M143 1475h494q16 0 16 -58v-24q0 -60 -16 -60h-150v-1192h150q16 0 16 -59v-25q0 -57 -16 -57h-494q-9 0 -12.5 11t-3.5 48v23q0 37 3.5 48t12.5 11h150v1192h-150q-9 0 -12.5 11.5t-3.5 48.5v22q0 37 3.5 48.5t12.5 11.5zM520 1872h25q87 0 83 -23q-1 -3 -3 -6
l-193 -262q-8 -11 -23 -14.5t-51 -3.5h-16q-64 0 -64 16q0 3 3 8l149 262q13 23 90 23z" />
    <glyph glyph-name="Icircumflex" unicode="&#xce;" horiz-adv-x="780" 
d="M143 1475h494q16 0 16 -58v-24q0 -60 -16 -60h-150v-1192h150q16 0 16 -59v-25q0 -57 -16 -57h-494q-9 0 -12.5 11t-3.5 48v23q0 37 3.5 48t12.5 11h150v1192h-150q-9 0 -12.5 11.5t-3.5 48.5v22q0 37 3.5 48.5t12.5 11.5zM76 1636l186 199q24 27 90 27h78q67 0 92 -29
l183 -193q17 -17 -21 -59l-16 -18q-13 -17 -30 -24t-24 1l-225 197l-229 -195q-6 -7 -20 -0.5t-29 23.5l-15 16q-35 37 -20 55z" />
    <glyph glyph-name="Idieresis" unicode="&#xcf;" horiz-adv-x="780" 
d="M143 1475h494q16 0 16 -58v-24q0 -60 -16 -60h-150v-1192h150q16 0 16 -59v-25q0 -57 -16 -57h-494q-9 0 -12.5 11t-3.5 48v23q0 37 3.5 48t12.5 11h150v1192h-150q-9 0 -12.5 11.5t-3.5 48.5v22q0 37 3.5 48.5t12.5 11.5zM35 1663q0 49 33.5 83t83.5 34q49 0 82.5 -33.5
t33.5 -83.5t-33.5 -83.5t-82.5 -33.5q-50 0 -83.5 34t-33.5 83zM512 1663q0 49 34 83t83 34t82.5 -33.5t33.5 -83.5t-33.5 -83.5t-82.5 -33.5t-83 34t-34 83z" />
    <glyph glyph-name="Eth" unicode="&#xd0;" horiz-adv-x="1368" 
d="M193 1475h344q204 0 335 -42t224 -139q180 -186 180 -549q0 -393 -209 -593q-88 -84 -214.5 -118t-305.5 -34h-354v672h-113q-21 0 -21 65v23q0 63 21 63h113v652zM387 1315v-492h344q21 0 21 -63v-23q0 -65 -21 -65h-344v-512h164q247 0 369 114q155 146 155 465
q0 278 -117 420q-124 156 -395 156h-176z" />
    <glyph glyph-name="Ntilde" unicode="&#xd1;" horiz-adv-x="1388" 
d="M252 1475h10q62 0 82.5 -5.5t30.5 -21.5l682 -1135v1139q0 23 78 23h16q82 0 82 -23v-1429q0 -14 -19.5 -18.5t-76.5 -4.5h-7q-62 0 -82 5.5t-30 21.5l-686 1132v-1136q0 -23 -78 -23h-16q-82 0 -82 23v1429q0 14 19.5 18.5t76.5 4.5zM408 1624l-15 21q-29 40 -16 55
q81 96 196 96q51 0 92.5 -19t77.5 -38t74 -19q53 0 105 56q14 14 53 -31l12 -16q12 -15 17.5 -31.5t-0.5 -24.5q-33 -44 -83.5 -75t-107.5 -31q-52 0 -124.5 37.5t-119.5 37.5q-60 0 -108 -55q-15 -15 -53 37z" />
    <glyph glyph-name="Ograve" unicode="&#xd2;" horiz-adv-x="1427" 
d="M729 1329q-203 0 -319.5 -159t-116.5 -445q0 -279 106 -429.5t299 -150.5q202 0 319.5 161t117.5 446q0 278 -106.5 427.5t-299.5 149.5zM737 1495q133 0 242 -47t188.5 -137.5t123.5 -231t44 -319.5q0 -358 -175.5 -569t-469.5 -211q-133 0 -242 47t-188.5 138
t-123.5 232t-44 320q0 358 175.5 568t469.5 210zM606 1872h27q81 0 94 -23l150 -262q2 -6 0 -11.5t-18.5 -9t-47.5 -3.5h-18q-62 0 -76 18l-193 262q-12 14 20 23q22 6 62 6z" />
    <glyph glyph-name="Oacute" unicode="&#xd3;" horiz-adv-x="1427" 
d="M729 1329q-203 0 -319.5 -159t-116.5 -445q0 -279 106 -429.5t299 -150.5q202 0 319.5 161t117.5 446q0 278 -106.5 427.5t-299.5 149.5zM737 1495q133 0 242 -47t188.5 -137.5t123.5 -231t44 -319.5q0 -358 -175.5 -569t-469.5 -211q-133 0 -242 47t-188.5 138
t-123.5 232t-44 320q0 358 175.5 568t469.5 210zM844 1872h24q87 0 83 -23q-1 -3 -3 -6l-192 -262q-8 -11 -23 -14.5t-51 -3.5h-16q-66 0 -65 17q0 3 3 7l150 262q13 23 90 23z" />
    <glyph glyph-name="Ocircumflex" unicode="&#xd4;" horiz-adv-x="1427" 
d="M729 1329q-203 0 -319.5 -159t-116.5 -445q0 -279 106 -429.5t299 -150.5q202 0 319.5 161t117.5 446q0 278 -106.5 427.5t-299.5 149.5zM737 1495q133 0 242 -47t188.5 -137.5t123.5 -231t44 -319.5q0 -358 -175.5 -569t-469.5 -211q-133 0 -242 47t-188.5 138
t-123.5 232t-44 320q0 358 175.5 568t469.5 210zM416 1636l186 199q24 27 90 27h78q67 0 92 -29l182 -193q18 -18 -20 -59l-16 -18q-13 -17 -30 -24t-24 1l-225 197l-229 -195q-6 -7 -20 -0.5t-29 23.5l-15 16q-35 37 -20 55z" />
    <glyph glyph-name="Otilde" unicode="&#xd5;" horiz-adv-x="1427" 
d="M729 1329q-203 0 -319.5 -159t-116.5 -445q0 -279 106 -429.5t299 -150.5q202 0 319.5 161t117.5 446q0 278 -106.5 427.5t-299.5 149.5zM737 1495q133 0 242 -47t188.5 -137.5t123.5 -231t44 -319.5q0 -358 -175.5 -569t-469.5 -211q-133 0 -242 47t-188.5 138
t-123.5 232t-44 320q0 358 175.5 568t469.5 210zM434 1624l-14 21q-29 40 -17 55q35 42 86.5 69t110.5 27q51 0 92.5 -19t77.5 -38t74 -19q52 0 104 56q14 14 53 -31l13 -16q12 -15 17 -31.5t-1 -24.5q-33 -45 -83 -75.5t-107 -30.5q-52 0 -124.5 37.5t-119.5 37.5
q-61 0 -109 -55q-15 -15 -53 37z" />
    <glyph glyph-name="Odieresis" unicode="&#xd6;" horiz-adv-x="1427" 
d="M729 1329q-203 0 -319.5 -159t-116.5 -445q0 -279 106 -429.5t299 -150.5q202 0 319.5 161t117.5 446q0 278 -106.5 427.5t-299.5 149.5zM737 1495q133 0 242 -47t188.5 -137.5t123.5 -231t44 -319.5q0 -358 -175.5 -569t-469.5 -211q-133 0 -242 47t-188.5 138
t-123.5 232t-44 320q0 358 175.5 568t469.5 210zM375 1663q0 49 33.5 83t83.5 34q49 0 82.5 -33.5t33.5 -83.5t-33.5 -83.5t-82.5 -33.5q-50 0 -83.5 34t-33.5 83zM852 1663q0 49 34 83t83 34t82.5 -33.5t33.5 -83.5t-33.5 -83.5t-82.5 -33.5t-83 34t-34 83z" />
    <glyph glyph-name="multiply" unicode="&#xd7;" 
d="M102 1221l23 22q29 29 43.5 35t19.5 -4l400 -414l393 406q16 16 61 -29l15 -14q41 -41 26 -56l-395 -407l406 -416q14 -14 -29 -57l-21 -21q-46 -46 -63 -30l-403 413l-402 -413q-16 -16 -61 28l-17 17q-23 23 -28.5 34.5t2.5 20.5l407 414l-405 413q-15 15 28 58z" />
    <glyph glyph-name="Oslash" unicode="&#xd8;" horiz-adv-x="1468" 
d="M1094 1399l100 145q4 11 24 9t44 -21l49 -35q22 -14 29 -30.5t-1 -22.5l-120 -168q141 -190 141 -516q0 -358 -175.5 -569t-469.5 -211q-210 0 -348 106l-113 -156q-5 -10 -25 -7.5t-43 20.5l-47 34q-19 14 -27 30t-1 26l133 184q-127 187 -127 500q0 358 175.5 568
t469.5 210q192 0 332 -96zM1092 1112l-625 -868q99 -99 256 -99q202 0 319 161t117 446q0 217 -67 360zM375 383l618 862q-96 84 -239 84q-203 0 -320 -159t-117 -445q0 -201 58 -342z" />
    <glyph glyph-name="Ugrave" unicode="&#xd9;" horiz-adv-x="1388" 
d="M233 1475h23q88 0 88 -23v-901q0 -212 88 -310t262 -98q169 0 259.5 103.5t90.5 302.5v903q0 23 84 23h23q88 0 88 -23v-879q0 -301 -137.5 -447t-415.5 -146q-268 0 -402 135t-134 422v915q0 23 83 23zM539 1872h26q81 0 94 -23l150 -262q2 -6 0 -11.5t-18.5 -9
t-47.5 -3.5h-18q-62 0 -76 18l-192 262q-12 14 20 23q22 6 62 6z" />
    <glyph glyph-name="Uacute" unicode="&#xda;" horiz-adv-x="1388" 
d="M233 1475h23q88 0 88 -23v-901q0 -212 88 -310t262 -98q169 0 259.5 103.5t90.5 302.5v903q0 23 84 23h23q88 0 88 -23v-879q0 -301 -137.5 -447t-415.5 -146q-268 0 -402 135t-134 422v915q0 23 83 23zM842 1872h24q87 0 83 -23q-1 -3 -3 -6l-192 -262q-8 -11 -23 -14.5
t-51 -3.5h-16q-66 0 -65 17q0 3 3 7l150 262q13 23 90 23z" />
    <glyph glyph-name="Ucircumflex" unicode="&#xdb;" horiz-adv-x="1388" 
d="M233 1475h23q88 0 88 -23v-901q0 -212 88 -310t262 -98q169 0 259.5 103.5t90.5 302.5v903q0 23 84 23h23q88 0 88 -23v-879q0 -301 -137.5 -447t-415.5 -146q-268 0 -402 135t-134 422v915q0 23 83 23zM383 1636l186 199q24 27 90 27h78q67 0 92 -29l183 -193
q17 -17 -21 -59l-16 -18q-13 -17 -29.5 -24t-23.5 1l-226 197l-229 -195q-6 -7 -20 -0.5t-29 23.5l-15 16q-35 37 -20 55z" />
    <glyph glyph-name="Udieresis" unicode="&#xdc;" horiz-adv-x="1388" 
d="M233 1475h23q88 0 88 -23v-901q0 -212 88 -310t262 -98q169 0 259.5 103.5t90.5 302.5v903q0 23 84 23h23q88 0 88 -23v-879q0 -301 -137.5 -447t-415.5 -146q-268 0 -402 135t-134 422v915q0 23 83 23zM348 1663q0 49 34 83t83 34t83 -34t34 -83t-34 -83t-83 -34t-83 34
t-34 83zM825 1663q0 49 33.5 83t83.5 34t83.5 -34t33.5 -83t-33.5 -83t-83.5 -34t-83.5 34t-33.5 83z" />
    <glyph glyph-name="Yacute" unicode="&#xdd;" horiz-adv-x="1112" 
d="M111 1475h30q87 0 99 -23l325 -692l320 692q11 23 94 23h22q86 0 87 -21q0 -2 -1 -4l-438 -879v-548q0 -23 -88 -23h-22q-84 0 -84 23v548l-435 879q-6 13 25 19q25 6 66 6zM709 1892h24q88 0 83 -23q-1 -2 -3 -5l-192 -262q-14 -19 -74 -19h-17q-66 0 -64 17l3 8
l149 262q13 22 91 22z" />
    <glyph glyph-name="Thorn" unicode="&#xde;" horiz-adv-x="1103" 
d="M248 1475h22q88 0 88 -23v-287q90 11 158 11q545 0 545 -404q0 -65 -13.5 -123.5t-48.5 -118t-90 -102t-144 -69.5t-204 -27q-127 0 -203 12v-321q0 -23 -84 -23h-22q-88 0 -88 23v1429q0 23 84 23zM358 1006v-504q76 -13 189 -13q161 0 237 72t76 201q0 57 -14.5 101
t-42 71t-58 44.5t-73 25t-75 10t-75.5 2.5q-79 0 -164 -10z" />
    <glyph glyph-name="germandbls" unicode="&#xdf;" horiz-adv-x="1241" 
d="M336 1067v-1042q0 -9 -3.5 -13t-22.5 -8t-58 -4h-12q-39 0 -59 3t-24.5 8t-4.5 14v1026q0 254 105.5 390t307.5 136q67 0 129 -15.5t117 -49t88 -93.5t33 -141q0 -65 -20 -121t-49 -94t-57.5 -71t-48.5 -68t-20 -70q0 -36 13 -63.5t39 -45.5t48 -28t56 -21
q48 -15 82.5 -30t75 -42.5t65.5 -61.5t42.5 -87.5t17.5 -120.5q0 -176 -107.5 -275t-269.5 -99q-86 0 -172 21t-135 56q-11 8 -13.5 19.5t1 23.5t12.5 33l12 25q28 64 61 43q37 -27 101 -44.5t120 -17.5q38 0 74 10.5t68.5 32t52.5 60t20 88.5q0 47 -16 82t-46 57.5
t-56.5 35.5t-65.5 25q-56 18 -95.5 38t-80 54t-61.5 87.5t-21 124.5q0 64 20.5 117t50.5 88.5t59.5 68t50 71t20.5 81.5q0 74 -49.5 118.5t-139.5 44.5q-128 0 -181.5 -91t-53.5 -265z" />
    <glyph glyph-name="agrave" unicode="&#xe0;" horiz-adv-x="1165" 
d="M926 1081h4q38 0 55.5 -3t21 -7t3.5 -14q0 -14 -2 -125t-2 -187v-286q0 -170 14 -434q0 -13 -15 -19t-59 -6h-8q-46 0 -61 5.5t-17 19.5l-12 94q-51 -62 -135 -100.5t-181 -38.5q-109 0 -194 43t-137.5 118t-79.5 171.5t-27 209.5q0 259 133 419.5t338 160.5
q88 0 160 -36t117 -95l10 86q1 18 13 21t61 3zM821 506v291q-37 59 -101.5 99t-133.5 40q-140 0 -219.5 -109t-79.5 -295q0 -77 14.5 -143t45 -123t86.5 -90t132 -33q130 0 205 80q32 35 41.5 91t9.5 192zM432 1499h27q81 0 94 -22l149 -263q2 -6 0.5 -11.5t-18 -9
t-47.5 -3.5h-19q-61 0 -75 18l-193 262q-12 14 20 23q22 6 62 6z" />
    <glyph glyph-name="aacute" unicode="&#xe1;" horiz-adv-x="1161" 
d="M924 1081h4q38 0 55.5 -3t21 -7t3.5 -14q0 -14 -2 -125t-2 -187v-286q0 -170 14 -434q0 -13 -15 -19t-59 -6h-8q-46 0 -61 5.5t-17 19.5l-12 94q-51 -62 -135 -100.5t-181 -38.5q-109 0 -194 43t-137.5 118t-79.5 171.5t-27 209.5q0 259 133 419.5t338 160.5
q88 0 160 -36t117 -95l10 86q1 18 13 21t61 3zM819 506v291q-37 59 -101.5 99t-133.5 40q-140 0 -219.5 -109t-79.5 -295q0 -77 14.5 -143t45 -123t86.5 -90t132 -33q130 0 205 80q32 35 41.5 91t9.5 192zM702 1499h25q87 0 83 -23q-1 -3 -3 -6l-193 -262q-11 -18 -73 -18
h-17q-64 0 -64 16q0 3 3 8l149 263q13 22 90 22z" />
    <glyph glyph-name="acircumflex" unicode="&#xe2;" horiz-adv-x="1161" 
d="M924 1081h4q38 0 55.5 -3t21 -7t3.5 -14q0 -14 -2 -125t-2 -187v-286q0 -170 14 -434q0 -13 -15 -19t-59 -6h-8q-46 0 -61 5.5t-17 19.5l-12 94q-51 -62 -135 -100.5t-181 -38.5q-109 0 -194 43t-137.5 118t-79.5 171.5t-27 209.5q0 259 133 419.5t338 160.5
q88 0 160 -36t117 -95l10 86q1 18 13 21t61 3zM819 506v291q-37 59 -101.5 99t-133.5 40q-140 0 -219.5 -109t-79.5 -295q0 -77 14.5 -143t45 -123t86.5 -90t132 -33q130 0 205 80q32 35 41.5 91t9.5 192zM256 1284l186 199q23 26 90 26h78q68 0 92 -28l183 -193
q17 -17 -21 -59l-16 -19q-13 -17 -29.5 -23.5t-23.5 1.5l-226 196l-229 -194q-5 -7 -20 -1t-29 23l-15 17q-35 37 -20 55z" />
    <glyph glyph-name="atilde" unicode="&#xe3;" horiz-adv-x="1161" 
d="M924 1081h4q38 0 55.5 -3t21 -7t3.5 -14q0 -14 -2 -125t-2 -187v-286q0 -170 14 -434q0 -13 -15 -19t-59 -6h-8q-46 0 -61 5.5t-17 19.5l-12 94q-51 -62 -135 -100.5t-181 -38.5q-109 0 -194 43t-137.5 118t-79.5 171.5t-27 209.5q0 259 133 419.5t338 160.5
q88 0 160 -36t117 -95l10 86q1 18 13 21t61 3zM819 506v291q-37 59 -101.5 99t-133.5 40q-140 0 -219.5 -109t-79.5 -295q0 -77 14.5 -143t45 -123t86.5 -90t132 -33q130 0 205 80q32 35 41.5 91t9.5 192zM287 1303l-15 20q-29 40 -16 55q82 97 197 97q51 0 92.5 -19t77 -38
t73.5 -19q54 0 105 55q14 14 53 -31l12 -16q30 -38 17 -55q-33 -45 -83.5 -76t-107.5 -31q-52 0 -124 38t-119 38q-61 0 -109 -55q-15 -15 -53 37z" />
    <glyph glyph-name="adieresis" unicode="&#xe4;" horiz-adv-x="1161" 
d="M924 1081h4q38 0 55.5 -3t21 -7t3.5 -14q0 -14 -2 -125t-2 -187v-286q0 -170 14 -434q0 -13 -15 -19t-59 -6h-8q-46 0 -61 5.5t-17 19.5l-12 94q-51 -62 -135 -100.5t-181 -38.5q-109 0 -194 43t-137.5 118t-79.5 171.5t-27 209.5q0 259 133 419.5t338 160.5
q88 0 160 -36t117 -95l10 86q1 18 13 21t61 3zM819 506v291q-37 59 -101.5 99t-133.5 40q-140 0 -219.5 -109t-79.5 -295q0 -77 14.5 -143t45 -123t86.5 -90t132 -33q130 0 205 80q32 35 41.5 91t9.5 192zM211 1341q0 49 33.5 83t83.5 34q49 0 82.5 -33.5t33.5 -83.5
q0 -49 -33 -82.5t-83 -33.5t-83.5 33.5t-33.5 82.5zM688 1341q0 49 34 83t83 34t83 -34t34 -83t-33.5 -82.5t-83.5 -33.5t-83.5 33.5t-33.5 82.5z" />
    <glyph glyph-name="aring" unicode="&#xe5;" horiz-adv-x="1161" 
d="M381 1368q0 76 57 130t135 54q79 0 136 -53.5t57 -130.5t-57 -130.5t-136 -53.5q-78 0 -135 54t-57 130zM487 1368q0 -38 25 -62t61 -24t60 25t24 61t-24 61t-60 25t-61 -24t-25 -62zM924 1081h4q38 0 55.5 -3t21 -7t3.5 -14q0 -14 -2 -125t-2 -187v-286q0 -170 14 -434
q0 -13 -15 -19t-59 -6h-8q-46 0 -61 5.5t-17 19.5l-12 94q-51 -62 -135 -100.5t-181 -38.5q-109 0 -194 43t-137.5 118t-79.5 171.5t-27 209.5q0 259 133 419.5t338 160.5q88 0 160 -36t117 -95l10 86q1 18 13 21t61 3zM819 506v291q-37 59 -101.5 99t-133.5 40
q-140 0 -219.5 -109t-79.5 -295q0 -77 14.5 -143t45 -123t86.5 -90t132 -33q130 0 205 80q32 35 41.5 91t9.5 192z" />
    <glyph glyph-name="ae" unicode="&#xe6;" horiz-adv-x="1755" 
d="M172 932l-8 26q-20 60 0 70q67 35 164.5 54.5t187.5 19.5q261 0 358 -168q130 168 355 168q129 0 221 -59.5t145 -165.5q66 -138 66 -328q0 -45 -4.5 -59.5t-16.5 -14.5h-700q9 -177 98 -254q80 -74 234 -74q133 0 264 60q9 4 16.5 5t16.5 -9.5t18 -34.5l10 -25
q17 -38 17.5 -53.5t-12.5 -21.5q-152 -88 -365 -88q-261 0 -387 167q-76 -76 -166.5 -121.5t-226.5 -45.5q-73 0 -138.5 21.5t-118 62t-83.5 106t-31 147.5q0 169 115 266t317 97q129 0 234 -43v33q0 144 -58.5 206t-193.5 62q-145 0 -281 -53q-10 -5 -23 6t-24 41zM788 264
q-37 101 -40 228q-108 38 -226 38q-113 0 -181.5 -49.5t-68.5 -148.5q0 -89 63 -140t163 -51q94 0 170 36.5t120 86.5zM946 627h527q-1 81 -26.5 148.5t-81.5 113t-134 45.5q-113 0 -189 -77t-96 -230z" />
    <glyph glyph-name="ccedilla" unicode="&#xe7;" horiz-adv-x="1009" 
d="M637 -16l-4 -68q12 2 35 2q81 0 133.5 -44.5t52.5 -127.5t-61.5 -142t-180.5 -59q-82 0 -155 25q-18 7 -8 47l8 33q5 20 12 30t16 7q59 -17 111 -17q41 0 66.5 17.5t25.5 50.5q0 34 -23 46.5t-79 12.5q-72 0 -121 -6l24 195q-193 24 -295 171.5t-102 366.5
q0 137 38.5 248t106.5 182.5t160 109.5t199 38q179 0 330 -107q13 -8 10.5 -26t-23.5 -68q-33 -76 -65 -53q-128 86 -242 86q-145 0 -233 -105t-88 -292q0 -61 10 -116.5t32.5 -106t56.5 -87t86 -58.5t116 -22q129 0 260 64q32 16 53 -41l10 -27q23 -58 0 -71
q-128 -70 -272 -88z" />
    <glyph glyph-name="egrave" unicode="&#xe8;" horiz-adv-x="1114" 
d="M1006 475h-721q9 -176 102 -254q83 -74 242 -74q126 0 270 66q9 4 16.5 5t16.5 -9.5t18 -34.5l11 -24q16 -38 16.5 -54t-12.5 -22q-160 -94 -371 -94q-245 0 -373.5 142t-128.5 394q0 261 133.5 423.5t358.5 162.5q132 0 226.5 -60t147.5 -165q68 -136 68 -328
q0 -45 -4 -59.5t-16 -14.5zM291 627h547q-1 81 -27 148.5t-84.5 113t-140.5 45.5q-117 0 -195.5 -77t-99.5 -230zM449 1499h26q81 0 94 -22l150 -263q2 -6 0 -11.5t-18.5 -9t-47.5 -3.5h-18q-62 0 -76 18l-192 262q-12 14 20 23q22 6 62 6z" />
    <glyph glyph-name="eacute" unicode="&#xe9;" horiz-adv-x="1114" 
d="M1006 475h-721q9 -176 102 -254q83 -74 242 -74q126 0 270 66q9 4 16.5 5t16.5 -9.5t18 -34.5l11 -24q16 -38 16.5 -54t-12.5 -22q-160 -94 -371 -94q-245 0 -373.5 142t-128.5 394q0 261 133.5 423.5t358.5 162.5q132 0 226.5 -60t147.5 -165q68 -136 68 -328
q0 -45 -4 -59.5t-16 -14.5zM291 627h547q-1 81 -27 148.5t-84.5 113t-140.5 45.5q-117 0 -195.5 -77t-99.5 -230zM717 1499h24q87 0 83 -23q-1 -3 -3 -6l-192 -262q-11 -18 -74 -18h-16q-66 0 -65 17q0 3 3 7l150 263q13 22 90 22z" />
    <glyph glyph-name="ecircumflex" unicode="&#xea;" horiz-adv-x="1114" 
d="M1006 475h-721q9 -176 102 -254q83 -74 242 -74q126 0 270 66q9 4 16.5 5t16.5 -9.5t18 -34.5l11 -24q16 -38 16.5 -54t-12.5 -22q-160 -94 -371 -94q-245 0 -373.5 142t-128.5 394q0 261 133.5 423.5t358.5 162.5q132 0 226.5 -60t147.5 -165q68 -136 68 -328
q0 -45 -4 -59.5t-16 -14.5zM291 627h547q-1 81 -27 148.5t-84.5 113t-140.5 45.5q-117 0 -195.5 -77t-99.5 -230zM264 1284l187 199q23 26 90 26h77q69 0 93 -28l182 -193q17 -17 -21 -59l-16 -19q-13 -17 -29.5 -23.5t-23.5 1.5l-225 196l-230 -194q-5 -7 -20 -1t-29 23
l-14 17q-35 38 -21 55z" />
    <glyph glyph-name="edieresis" unicode="&#xeb;" horiz-adv-x="1114" 
d="M1006 475h-721q9 -176 102 -254q83 -74 242 -74q126 0 270 66q9 4 16.5 5t16.5 -9.5t18 -34.5l11 -24q16 -38 16.5 -54t-12.5 -22q-160 -94 -371 -94q-245 0 -373.5 142t-128.5 394q0 261 133.5 423.5t358.5 162.5q132 0 226.5 -60t147.5 -165q68 -136 68 -328
q0 -45 -4 -59.5t-16 -14.5zM291 627h547q-1 81 -27 148.5t-84.5 113t-140.5 45.5q-117 0 -195.5 -77t-99.5 -230zM227 1341q0 49 33.5 83t83.5 34t83.5 -34t33.5 -83t-33.5 -82.5t-83.5 -33.5t-83.5 33.5t-33.5 82.5zM705 1341q0 50 33.5 83.5t82.5 33.5t83 -34t34 -83
t-33.5 -82.5t-83.5 -33.5q-49 0 -82.5 33.5t-33.5 82.5z" />
    <glyph glyph-name="igrave" unicode="&#xec;" horiz-adv-x="491" 
d="M242 1081h12q39 0 58 -3.5t22.5 -7.5t3.5 -13v-1032q0 -9 -3.5 -13t-22.5 -8t-58 -4h-12q-39 0 -59 3t-24.5 8t-4.5 14v1032q0 9 4.5 13.5t24 7.5t59.5 3zM72 1499h26q82 0 95 -22l149 -263q2 -6 0 -11.5t-18.5 -9t-47.5 -3.5h-18q-62 0 -76 18l-192 262q-12 14 20 23
q22 6 62 6z" />
    <glyph glyph-name="iacute" unicode="&#xed;" horiz-adv-x="491" 
d="M242 1081h12q39 0 58 -3.5t22.5 -7.5t3.5 -13v-1032q0 -9 -3.5 -13t-22.5 -8t-58 -4h-12q-39 0 -59 3t-24.5 8t-4.5 14v1032q0 9 4.5 13.5t24 7.5t59.5 3zM377 1499h24q87 0 83 -23q-1 -3 -3 -6l-192 -262q-11 -18 -74 -18h-16q-66 0 -65 17q0 3 3 7l150 263q13 22 90 22
z" />
    <glyph glyph-name="icircumflex" unicode="&#xee;" horiz-adv-x="491" 
d="M242 1081h12q39 0 58 -3.5t22.5 -7.5t3.5 -13v-1032q0 -9 -3.5 -13t-22.5 -8t-58 -4h-12q-39 0 -59 3t-24.5 8t-4.5 14v1032q0 9 4.5 13.5t24 7.5t59.5 3zM-72 1284l187 199q23 26 90 26h78q68 0 92 -28l182 -193q18 -18 -20 -59l-17 -19q-13 -17 -29.5 -23.5t-23.5 1.5
l-225 196l-230 -194q-5 -7 -20 -1t-29 23l-14 17q-35 38 -21 55z" />
    <glyph glyph-name="idieresis" unicode="&#xef;" horiz-adv-x="491" 
d="M242 1081h12q39 0 58 -3.5t22.5 -7.5t3.5 -13v-1032q0 -9 -3.5 -13t-22.5 -8t-58 -4h-12q-39 0 -59 3t-24.5 8t-4.5 14v1032q0 9 4.5 13.5t24 7.5t59.5 3zM-109 1341q0 49 33.5 83t83.5 34t83.5 -34t33.5 -83t-33.5 -82.5t-83.5 -33.5t-83.5 33.5t-33.5 82.5zM369 1341
q0 50 33.5 83.5t82.5 33.5t83 -34t34 -83t-33.5 -82.5t-83.5 -33.5q-49 0 -82.5 33.5t-33.5 82.5z" />
    <glyph glyph-name="eth" unicode="&#xf0;" horiz-adv-x="1144" 
d="M252 1505l10 17q20 29 31 38.5t20 6.5q152 -64 260 -131l256 120q8 3 15 -4.5t22 -33.5l15 -27q27 -47 8 -55l-184 -90q131 -101 213 -222q149 -224 149 -538q0 -163 -39 -283.5t-107.5 -189t-153 -101t-185.5 -32.5q-217 0 -350.5 141.5t-133.5 388.5q0 125 37 229
t99.5 173t146 107t176.5 38q127 0 240 -70l-31 55q-79 120 -219 220l-266 -125q-8 -3 -16.5 6t-20.5 33l-17 32q-22 46 -6 52l189 92q-44 26 -170 88q-10 3 -7 21.5t19 43.5zM860 797q-53 42 -132 68t-150 26q-66 0 -117.5 -24t-82.5 -61.5t-51.5 -89t-28 -101t-7.5 -101.5
q0 -171 79.5 -270t219.5 -99q147 0 217 114.5t70 340.5q0 97 -17 197z" />
    <glyph glyph-name="ntilde" unicode="&#xf1;" horiz-adv-x="1198" 
d="M238 1081h10q53 0 68.5 -5t15.5 -19l2 -92h2q53 62 145.5 99.5t188.5 37.5q174 0 280 -109q55 -57 80 -140t25 -208v-620q0 -9 -3.5 -13t-22.5 -8t-58 -4h-13q-39 0 -59 3t-24.5 8t-4.5 14v534q0 135 -10 198t-45 103q-56 68 -194 68q-59 0 -121 -20t-97 -54
q-46 -42 -55 -145q-6 -86 -6 -281v-403q0 -9 -3.5 -13t-22.5 -8t-58 -4h-12q-39 0 -59 3t-24.5 8t-4.5 14v698q0 81 -2 200t-2 134q0 9 4.5 13.5t23 7.5t56.5 3zM322 1303l-15 20q-29 40 -16 55q82 97 196 97q51 0 92.5 -19t77.5 -38t74 -19q54 0 105 55q14 14 53 -31
l12 -16q12 -15 17.5 -31t-0.5 -24q-33 -45 -83.5 -76t-107.5 -31q-52 0 -124.5 38t-119.5 38q-60 0 -108 -55q-15 -15 -53 37z" />
    <glyph glyph-name="ograve" unicode="&#xf2;" 
d="M604 1102q192 0 307 -103q78 -68 120 -179.5t42 -254.5q0 -284 -137 -434.5t-373 -150.5q-193 0 -307 102q-78 68 -120 179.5t-42 254.5q0 284 137 435t373 151zM596 938q-64 0 -118 -23t-97.5 -70.5t-68.5 -128t-25 -186.5q0 -59 8 -111.5t28 -104t51.5 -88.5t81.5 -60
t115 -23q64 0 118 23t98 70.5t69 128t25 186.5q0 59 -8 111.5t-28.5 104t-51.5 88.5t-81.5 60t-115.5 23zM473 1499h27q81 0 94 -22l149 -263q2 -6 0.5 -11.5t-18 -9t-47.5 -3.5h-19q-61 0 -75 18l-193 262q-12 14 20 23q22 6 62 6z" />
    <glyph glyph-name="oacute" unicode="&#xf3;" 
d="M604 1102q192 0 307 -103q78 -68 120 -179.5t42 -254.5q0 -284 -137 -434.5t-373 -150.5q-193 0 -307 102q-78 68 -120 179.5t-42 254.5q0 284 137 435t373 151zM596 938q-64 0 -118 -23t-97.5 -70.5t-68.5 -128t-25 -186.5q0 -59 8 -111.5t28 -104t51.5 -88.5t81.5 -60
t115 -23q64 0 118 23t98 70.5t69 128t25 186.5q0 59 -8 111.5t-28.5 104t-51.5 88.5t-81.5 60t-115.5 23zM711 1499h24q87 0 83 -23q-1 -3 -3 -6l-192 -262q-11 -18 -74 -18h-17q-64 0 -64 16q0 3 3 8l150 263q13 22 90 22z" />
    <glyph glyph-name="ocircumflex" unicode="&#xf4;" 
d="M604 1102q192 0 307 -103q78 -68 120 -179.5t42 -254.5q0 -284 -137 -434.5t-373 -150.5q-193 0 -307 102q-78 68 -120 179.5t-42 254.5q0 284 137 435t373 151zM596 938q-64 0 -118 -23t-97.5 -70.5t-68.5 -128t-25 -186.5q0 -59 8 -111.5t28 -104t51.5 -88.5t81.5 -60
t115 -23q64 0 118 23t98 70.5t69 128t25 186.5q0 59 -8 111.5t-28.5 104t-51.5 88.5t-81.5 60t-115.5 23zM281 1284l186 199q23 26 90 26h78q68 0 92 -28l182 -193q18 -18 -20 -59l-17 -19q-13 -17 -29.5 -23.5t-23.5 1.5l-225 196l-229 -194q-5 -7 -20.5 -1t-29.5 23
l-14 17q-35 37 -20 55z" />
    <glyph glyph-name="otilde" unicode="&#xf5;" 
d="M604 1102q192 0 307 -103q78 -68 120 -179.5t42 -254.5q0 -284 -137 -434.5t-373 -150.5q-193 0 -307 102q-78 68 -120 179.5t-42 254.5q0 284 137 435t373 151zM596 938q-64 0 -118 -23t-97.5 -70.5t-68.5 -128t-25 -186.5q0 -59 8 -111.5t28 -104t51.5 -88.5t81.5 -60
t115 -23q64 0 118 23t98 70.5t69 128t25 186.5q0 59 -8 111.5t-28.5 104t-51.5 88.5t-81.5 60t-115.5 23zM315 1303l-14 20q-29 40 -16 55q82 97 196 97q51 0 92.5 -19t77.5 -38t74 -19q53 0 104 55q15 15 54 -31l12 -16q12 -15 17 -31t-1 -24q-33 -45 -83 -76t-107 -31
q-52 0 -124.5 38t-119.5 38q-60 0 -108 -55q-15 -15 -54 37z" />
    <glyph glyph-name="odieresis" unicode="&#xf6;" 
d="M604 1102q192 0 307 -103q78 -68 120 -179.5t42 -254.5q0 -284 -137 -434.5t-373 -150.5q-193 0 -307 102q-78 68 -120 179.5t-42 254.5q0 284 137 435t373 151zM596 938q-64 0 -118 -23t-97.5 -70.5t-68.5 -128t-25 -186.5q0 -59 8 -111.5t28 -104t51.5 -88.5t81.5 -60
t115 -23q64 0 118 23t98 70.5t69 128t25 186.5q0 59 -8 111.5t-28.5 104t-51.5 88.5t-81.5 60t-115.5 23zM242 1341q0 50 33.5 83.5t82.5 33.5q50 0 83.5 -34t33.5 -83t-33.5 -82.5t-83.5 -33.5t-83 33.5t-33 82.5zM719 1341q0 49 33.5 83t83.5 34q49 0 82.5 -33.5
t33.5 -83.5q0 -49 -33 -82.5t-83 -33.5t-83.5 33.5t-33.5 82.5z" />
    <glyph glyph-name="divide" unicode="&#xf7;" 
d="M88 815h991q19 0 19 -59v-19q0 -61 -19 -61h-991q-18 0 -18 61v19q0 59 18 59zM588 1278q52 0 88.5 -36t36.5 -89q0 -51 -36.5 -87t-88.5 -36q-51 0 -87 36t-36 87q0 52 36 88.5t87 36.5zM588 455q52 0 88.5 -36.5t36.5 -88.5q0 -51 -36.5 -87t-88.5 -36q-51 0 -87 36
t-36 87q0 52 36 88.5t87 36.5z" />
    <glyph glyph-name="oslash" unicode="&#xf8;" horiz-adv-x="1193" 
d="M840 1057l69 100q15 23 62 -12l49 -35q44 -30 29 -49l-78 -109q116 -144 116 -387q0 -284 -136.5 -434.5t-372.5 -150.5q-160 0 -261 65l-73 -100q-15 -23 -62 12l-43 35q-42 29 -28 49l88 123q-90 137 -90 352q0 284 136.5 435t372.5 151q131 0 222 -45zM846 795
l-430 -594q69 -56 170 -56q64 0 118 23t97.5 69.5t68.5 127t25 186.5q0 149 -49 244zM330 332l411 573q-57 31 -131 31q-64 0 -118 -23t-97.5 -69.5t-68.5 -127t-25 -186.5q0 -121 29 -198z" />
    <glyph glyph-name="ugrave" unicode="&#xf9;" horiz-adv-x="1189" 
d="M223 1081h17q38 0 57 -3t24 -7.5t5 -13.5v-537q0 -132 9.5 -197t41.5 -104q57 -69 182 -69q63 0 125.5 19.5t97.5 53.5q35 33 50.5 101t15.5 227v506q0 24 82 24h18q50 0 67 -5.5t17 -18.5v-699q0 -80 2 -199.5t2 -133.5q0 -9 -4.5 -14t-23 -8t-56.5 -3h-8q-51 0 -67.5 6
t-16.5 19l-4 88h-2q-120 -133 -340 -133q-170 0 -272 108q-54 56 -77.5 139t-23.5 209v621q0 8 4 12.5t22.5 8t55.5 3.5zM465 1499h27q81 0 94 -22l149 -263q2 -6 0.5 -11.5t-18 -9t-47.5 -3.5h-19q-62 0 -76 18l-192 262q-12 14 20 23q22 6 62 6z" />
    <glyph glyph-name="uacute" unicode="&#xfa;" horiz-adv-x="1189" 
d="M223 1081h17q38 0 57 -3t24 -7.5t5 -13.5v-537q0 -132 9.5 -197t41.5 -104q57 -69 182 -69q63 0 125.5 19.5t97.5 53.5q35 33 50.5 101t15.5 227v506q0 24 82 24h18q50 0 67 -5.5t17 -18.5v-699q0 -80 2 -199.5t2 -133.5q0 -9 -4.5 -14t-23 -8t-56.5 -3h-8q-51 0 -67.5 6
t-16.5 19l-4 88h-2q-120 -133 -340 -133q-170 0 -272 108q-54 56 -77.5 139t-23.5 209v621q0 8 4 12.5t22.5 8t55.5 3.5zM713 1499h24q87 0 83 -23q-1 -3 -3 -6l-192 -262q-11 -18 -74 -18h-16q-66 0 -65 17q0 3 3 7l150 263q13 22 90 22z" />
    <glyph glyph-name="ucircumflex" unicode="&#xfb;" horiz-adv-x="1189" 
d="M223 1081h17q38 0 57 -3t24 -7.5t5 -13.5v-537q0 -132 9.5 -197t41.5 -104q57 -69 182 -69q63 0 125.5 19.5t97.5 53.5q35 33 50.5 101t15.5 227v506q0 24 82 24h18q50 0 67 -5.5t17 -18.5v-699q0 -80 2 -199.5t2 -133.5q0 -9 -4.5 -14t-23 -8t-56.5 -3h-8q-51 0 -67.5 6
t-16.5 19l-4 88h-2q-120 -133 -340 -133q-170 0 -272 108q-54 56 -77.5 139t-23.5 209v621q0 8 4 12.5t22.5 8t55.5 3.5zM289 1284l186 199q23 26 90 26h78q68 0 92 -28l183 -193q17 -17 -21 -59l-16 -19q-13 -17 -30 -23.5t-24 1.5l-225 196l-229 -194q-5 -7 -20 -1t-29 23
l-15 17q-35 37 -20 55z" />
    <glyph glyph-name="udieresis" unicode="&#xfc;" horiz-adv-x="1189" 
d="M223 1081h17q38 0 57 -3t24 -7.5t5 -13.5v-537q0 -132 9.5 -197t41.5 -104q57 -69 182 -69q63 0 125.5 19.5t97.5 53.5q35 33 50.5 101t15.5 227v506q0 24 82 24h18q50 0 67 -5.5t17 -18.5v-699q0 -80 2 -199.5t2 -133.5q0 -9 -4.5 -14t-23 -8t-56.5 -3h-8q-51 0 -67.5 6
t-16.5 19l-4 88h-2q-120 -133 -340 -133q-170 0 -272 108q-54 56 -77.5 139t-23.5 209v621q0 8 4 12.5t22.5 8t55.5 3.5zM252 1341q0 49 34 83t83 34t82.5 -33.5t33.5 -83.5q0 -49 -33.5 -82.5t-82.5 -33.5q-50 0 -83.5 33.5t-33.5 82.5zM729 1341q0 49 33.5 83t83.5 34
t83.5 -34t33.5 -83t-33.5 -82.5t-83.5 -33.5t-83.5 33.5t-33.5 82.5z" />
    <glyph glyph-name="yacute" unicode="&#xfd;" horiz-adv-x="1038" 
d="M238 1059l192 -510q74 -197 113 -350q26 105 104 336l182 524q4 13 24 17.5t69 4.5q61 0 80.5 -5.5t13.5 -22.5l-387 -1078q-79 -225 -174 -327q-117 -125 -305 -125q-95 0 -164 37q-16 8 -16 23t10 42l8 25q12 37 20 46t25 5q67 -18 110 -18q103 0 170 67t131 238
l-407 1065q-7 18 12 23t84 5q97 0 105 -22zM668 1499h24q87 0 83 -23q-1 -3 -3 -6l-192 -262q-11 -18 -74 -18h-17q-64 0 -64 16q0 3 3 8l150 263q13 22 90 22z" />
    <glyph glyph-name="thorn" unicode="&#xfe;" horiz-adv-x="1153" 
d="M240 1556h12q39 0 58 -3.5t22.5 -7.5t3.5 -13v-555q50 56 128 90.5t159 34.5q203 0 319.5 -143.5t116.5 -395.5q0 -117 -31.5 -220.5t-91.5 -185t-157 -128.5t-220 -47q-59 0 -121.5 18t-101.5 45v-494q0 -15 -18 -20.5t-70 -5.5h-12q-49 0 -66.5 5.5t-17.5 20.5v1981
q0 9 4.5 13.5t24 7.5t59.5 3zM336 647v-422q41 -34 97.5 -56t115.5 -22q145 0 231 112t86 298q0 181 -75 280t-199 99q-62 0 -124.5 -25.5t-92.5 -64.5q-23 -29 -31 -69.5t-8 -129.5z" />
    <glyph glyph-name="ydieresis" unicode="&#xff;" horiz-adv-x="1038" 
d="M238 1059l192 -510q74 -197 113 -350q26 105 104 336l182 524q4 13 24 17.5t69 4.5q61 0 80.5 -5.5t13.5 -22.5l-387 -1078q-79 -225 -174 -327q-117 -125 -305 -125q-95 0 -164 37q-16 8 -16 23t10 42l8 25q12 37 20 46t25 5q67 -18 110 -18q103 0 170 67t131 238
l-407 1065q-7 18 12 23t84 5q97 0 105 -22zM193 1341q0 50 33.5 83.5t82.5 33.5t83 -34t34 -83t-33.5 -82.5t-83.5 -33.5q-49 0 -82.5 33.5t-33.5 82.5zM670 1341q0 50 33.5 83.5t82.5 33.5q50 0 83.5 -34t33.5 -83t-33.5 -82.5t-83.5 -33.5t-83 33.5t-33 82.5z" />
    <glyph glyph-name="Amacron" unicode="&#x100;" horiz-adv-x="1327" 
d="M641 1475h39q83 0 92 -23l508 -1429q3 -22 -88 -23h-31q-85 0 -94 23l-121 360h-577l-121 -360q-9 -23 -90 -23h-27q-93 0 -84 23l500 1429q5 12 25 17.5t69 5.5zM655 1270l-239 -725h481zM381 1790h563q21 0 21 -59v-25q0 -66 -21 -66h-563q-21 0 -21 66v25q0 59 21 59z
" />
    <glyph glyph-name="amacron" unicode="&#x101;" horiz-adv-x="1161" 
d="M924 1081h4q38 0 55.5 -3t21 -7t3.5 -14q0 -14 -2 -125t-2 -187v-286q0 -170 14 -434q0 -13 -15 -19t-59 -6h-8q-46 0 -61 5.5t-17 19.5l-12 94q-51 -62 -135 -100.5t-181 -38.5q-109 0 -194 43t-137.5 118t-79.5 171.5t-27 209.5q0 259 133 419.5t338 160.5
q88 0 160 -36t117 -95l10 86q1 18 13 21t61 3zM819 506v291q-37 59 -101.5 99t-133.5 40q-140 0 -219.5 -109t-79.5 -295q0 -77 14.5 -143t45 -123t86.5 -90t132 -33q130 0 205 80q32 35 41.5 91t9.5 192zM299 1419h563q21 0 21 -59v-25q0 -65 -21 -65h-563q-20 0 -20 65v25
q0 59 20 59z" />
    <glyph glyph-name="Abreve" unicode="&#x102;" horiz-adv-x="1327" 
d="M641 1475h39q83 0 92 -23l508 -1429q3 -22 -88 -23h-31q-85 0 -94 23l-121 360h-577l-121 -360q-9 -23 -90 -23h-27q-93 0 -84 23l500 1429q5 12 25 17.5t69 5.5zM655 1270l-239 -725h481zM424 1868h25q58 0 61 -21q6 -58 46.5 -89.5t105.5 -31.5q64 0 103.5 32t47.5 89
q3 21 61 21h27q66 0 66 -21q-7 -120 -90.5 -181.5t-219.5 -61.5q-132 0 -212 60t-87 183q0 21 66 21z" />
    <glyph glyph-name="abreve" unicode="&#x103;" horiz-adv-x="1161" 
d="M924 1081h4q38 0 55.5 -3t21 -7t3.5 -14q0 -14 -2 -125t-2 -187v-286q0 -170 14 -434q0 -13 -15 -19t-59 -6h-8q-46 0 -61 5.5t-17 19.5l-12 94q-51 -62 -135 -100.5t-181 -38.5q-109 0 -194 43t-137.5 118t-79.5 171.5t-27 209.5q0 259 133 419.5t338 160.5
q88 0 160 -36t117 -95l10 86q1 18 13 21t61 3zM819 506v291q-37 59 -101.5 99t-133.5 40q-140 0 -219.5 -109t-79.5 -295q0 -77 14.5 -143t45 -123t86.5 -90t132 -33q130 0 205 80q32 35 41.5 91t9.5 192zM342 1479h25q58 0 61 -21q6 -58 46.5 -89.5t105.5 -31.5
q64 0 103.5 32t47.5 89q3 21 62 21h26q66 0 66 -21q-7 -121 -90.5 -182.5t-219.5 -61.5q-132 0 -212 60.5t-87 183.5q0 21 66 21z" />
    <glyph glyph-name="Aogonek" unicode="&#x104;" horiz-adv-x="1327" 
d="M641 1475h39q83 0 92 -23l506 -1423q4 -13 -1.5 -18.5t-21.5 -8.5q-75 -14 -134.5 -75t-59.5 -136q0 -88 100 -88q49 0 84 12q10 3 16.5 -7.5t12.5 -37.5l4 -18q10 -49 -4 -55q-71 -29 -148 -29q-109 0 -168 55t-59 133q0 77 47 145t123 111l-123 371h-577l-121 -360
q-9 -23 -90 -23h-27q-93 0 -84 23l500 1429q5 12 25 17.5t69 5.5zM655 1270l-239 -725h481z" />
    <glyph glyph-name="aogonek" unicode="&#x105;" horiz-adv-x="1161" 
d="M637 -244q0 182 219 283l-10 80q-51 -62 -135 -100.5t-181 -38.5q-109 0 -194 43t-137.5 118t-79.5 171.5t-27 209.5q0 259 133 419.5t338 160.5q88 0 160 -36t117 -95l10 86q1 18 13 21t61 3h4q38 0 55.5 -3t21 -7t3.5 -14q0 -14 -2 -125t-2 -187v-286q0 -272 14 -430
q3 -21 -25 -27q-75 -14 -134.5 -75t-59.5 -136q0 -88 100 -88q49 0 84 12q10 3 16.5 -7.5t12.5 -37.5l4 -18q10 -49 -4 -55q-71 -29 -148 -29q-109 0 -168 55t-59 133zM819 506v291q-37 59 -101.5 99t-133.5 40q-140 0 -219.5 -109t-79.5 -295q0 -77 14.5 -143t45 -123
t86.5 -90t132 -33q130 0 205 80q32 35 41.5 91t9.5 192z" />
    <glyph glyph-name="Cacute" unicode="&#x106;" horiz-adv-x="1173" 
d="M1081 1323l-12 -25q-12 -25 -26 -38.5t-23 -8.5q-144 78 -281 78q-95 0 -174 -36t-139 -108t-93.5 -188.5t-33.5 -267.5q0 -90 12.5 -170t43 -156.5t78.5 -131t123.5 -88t172.5 -33.5q147 0 281 67q10 5 24 -7t25 -38l12 -27q25 -56 6 -69q-169 -96 -385 -96
q-150 0 -265 54t-186.5 153t-107 232t-35.5 298q0 126 19.5 237t66 212t116.5 172.5t177 114t242 42.5q218 0 368 -102q9 -7 7 -26.5t-13 -43.5zM805 1872h24q87 0 83 -23q-1 -3 -3 -6l-192 -262q-8 -11 -23 -14.5t-51 -3.5h-16q-66 0 -65 17q0 3 3 7l150 262q13 23 90 23z
" />
    <glyph glyph-name="cacute" unicode="&#x107;" horiz-adv-x="997" 
d="M899 170l10 -27q23 -58 0 -71q-165 -92 -348 -92q-114 0 -204.5 42t-147.5 116t-87 172t-30 214q0 137 38.5 248t106.5 182.5t160 109.5t199 38q179 0 330 -107q13 -8 10.5 -26t-23.5 -68q-33 -76 -65 -53q-128 86 -242 86q-145 0 -233 -105t-88 -292q0 -61 10 -116.5
t32.5 -106t56.5 -87t86 -58.5t116 -22q129 0 260 64q32 16 53 -41zM678 1499h24q87 0 83 -23q-1 -3 -3 -6l-192 -262q-11 -18 -74 -18h-16q-66 0 -65 17q0 3 3 7l150 263q13 22 90 22z" />
    <glyph glyph-name="Ccircumflex" unicode="&#x108;" horiz-adv-x="1173" 
d="M1081 1323l-12 -25q-12 -25 -26 -38.5t-23 -8.5q-144 78 -281 78q-95 0 -174 -36t-139 -108t-93.5 -188.5t-33.5 -267.5q0 -90 12.5 -170t43 -156.5t78.5 -131t123.5 -88t172.5 -33.5q147 0 281 67q10 5 24 -7t25 -38l12 -27q25 -56 6 -69q-169 -96 -385 -96
q-150 0 -265 54t-186.5 153t-107 232t-35.5 298q0 126 19.5 237t66 212t116.5 172.5t177 114t242 42.5q218 0 368 -102q9 -7 7 -26.5t-13 -43.5zM399 1636l187 199q24 27 90 27h78q67 0 92 -29l182 -193q18 -18 -20 -59l-17 -18q-13 -17 -29.5 -24t-23.5 1l-225 197
l-230 -195q-6 -7 -20 -0.5t-29 23.5l-14 16q-35 38 -21 55z" />
    <glyph glyph-name="ccircumflex" unicode="&#x109;" horiz-adv-x="997" 
d="M899 170l10 -27q23 -58 0 -71q-165 -92 -348 -92q-114 0 -204.5 42t-147.5 116t-87 172t-30 214q0 137 38.5 248t106.5 182.5t160 109.5t199 38q179 0 330 -107q13 -8 10.5 -26t-23.5 -68q-33 -76 -65 -53q-128 86 -242 86q-145 0 -233 -105t-88 -292q0 -61 10 -116.5
t32.5 -106t56.5 -87t86 -58.5t116 -22q129 0 260 64q32 16 53 -41zM289 1284l186 199q23 26 90 26h78q68 0 92 -28l183 -193q17 -17 -21 -59l-16 -19q-13 -17 -30 -23.5t-24 1.5l-225 196l-229 -194q-5 -7 -20 -1t-29 23l-15 17q-35 37 -20 55z" />
    <glyph glyph-name="Cdotaccent" unicode="&#x10a;" horiz-adv-x="1173" 
d="M1081 1323l-12 -25q-12 -25 -26 -38.5t-23 -8.5q-144 78 -281 78q-95 0 -174 -36t-139 -108t-93.5 -188.5t-33.5 -267.5q0 -90 12.5 -170t43 -156.5t78.5 -131t123.5 -88t172.5 -33.5q147 0 281 67q10 5 24 -7t25 -38l12 -27q25 -56 6 -69q-169 -96 -385 -96
q-150 0 -265 54t-186.5 153t-107 232t-35.5 298q0 126 19.5 237t66 212t116.5 172.5t177 114t242 42.5q218 0 368 -102q9 -7 7 -26.5t-13 -43.5zM596 1724q0 47 35 81t82 34t80.5 -34t33.5 -81t-33.5 -81.5t-80.5 -34.5t-82 34.5t-35 81.5z" />
    <glyph glyph-name="cdotaccent" unicode="&#x10b;" horiz-adv-x="997" 
d="M899 170l10 -27q23 -58 0 -71q-165 -92 -348 -92q-114 0 -204.5 42t-147.5 116t-87 172t-30 214q0 137 38.5 248t106.5 182.5t160 109.5t199 38q179 0 330 -107q13 -8 10.5 -26t-23.5 -68q-33 -76 -65 -53q-128 86 -242 86q-145 0 -233 -105t-88 -292q0 -61 10 -116.5
t32.5 -106t56.5 -87t86 -58.5t116 -22q129 0 260 64q32 16 53 -41zM477 1356q0 47 34.5 80.5t82.5 33.5q47 0 81 -33.5t34 -80.5t-34 -82t-81 -35t-82 35t-35 82z" />
    <glyph glyph-name="Ccaron" unicode="&#x10c;" horiz-adv-x="1173" 
d="M1081 1323l-12 -25q-12 -25 -26 -38.5t-23 -8.5q-144 78 -281 78q-95 0 -174 -36t-139 -108t-93.5 -188.5t-33.5 -267.5q0 -90 12.5 -170t43 -156.5t78.5 -131t123.5 -88t172.5 -33.5q147 0 281 67q10 5 24 -7t25 -38l12 -27q25 -56 6 -69q-169 -96 -385 -96
q-150 0 -265 54t-186.5 153t-107 232t-35.5 298q0 126 19.5 237t66 212t116.5 172.5t177 114t242 42.5q218 0 368 -102q9 -7 7 -26.5t-13 -43.5zM420 1845l16 19q14 16 32.5 24.5t25.5 1.5l229 -200l223 194q7 7 21.5 1t29.5 -23l13 -15q34 -36 18 -55l-186 -199
q-23 -26 -90 -26h-78q-68 0 -92 28l-183 193q-15 15 21 57z" />
    <glyph glyph-name="ccaron" unicode="&#x10d;" horiz-adv-x="997" 
d="M899 170l10 -27q23 -58 0 -71q-165 -92 -348 -92q-114 0 -204.5 42t-147.5 116t-87 172t-30 214q0 137 38.5 248t106.5 182.5t160 109.5t199 38q179 0 330 -107q13 -8 10.5 -26t-23.5 -68q-33 -76 -65 -53q-128 86 -242 86q-145 0 -233 -105t-88 -292q0 -61 10 -116.5
t32.5 -106t56.5 -87t86 -58.5t116 -22q129 0 260 64q32 16 53 -41zM307 1456l17 19q14 16 32 24.5t25 1.5l229 -201l224 195q7 7 21.5 1t29.5 -23l12 -15q34 -36 18 -55l-186 -199q-23 -26 -90 -26h-78q-68 0 -92 28l-182 193q-16 16 20 57z" />
    <glyph glyph-name="Dcaron" unicode="&#x10e;" horiz-adv-x="1339" 
d="M164 1475h344q204 0 335 -42t224 -139q180 -186 180 -549q0 -393 -209 -593q-88 -84 -214.5 -118t-305.5 -34h-354v1475zM358 1315v-1155h164q247 0 369 114q156 147 156 465q0 278 -117 420q-124 156 -395 156h-177zM377 1849l16 19q14 16 32.5 24.5t25.5 1.5l229 -200
l223 194q7 7 21.5 1t29.5 -23l13 -15q34 -36 18 -55l-186 -199q-23 -26 -90 -26h-78q-68 0 -92 28l-183 193q-15 15 21 57z" />
    <glyph glyph-name="dcaron" unicode="&#x10f;" horiz-adv-x="1355" 
d="M909 1556h13q49 0 66.5 -5.5t17.5 -20.5v-1274q0 -73 13.5 -92t57.5 -19q19 0 19 -55v-14q0 -62 -19 -68q-35 -12 -90 -12q-47 0 -85 30.5t-56 88.5h-2q-41 -57 -125.5 -96t-188.5 -39q-203 0 -320.5 143.5t-117.5 394.5q0 93 19 178.5t59.5 159.5t98 128.5t140 86
t181.5 31.5q60 0 125.5 -20t105.5 -48v496q0 15 18 20.5t70 5.5zM821 500v358q-39 33 -100 54.5t-121 21.5q-144 0 -229.5 -111.5t-85.5 -298.5q0 -183 78.5 -282t203.5 -99q55 0 108 18t87 52q35 35 47 95.5t12 191.5zM1147 1016l-19 20q-22 25 -2 45q97 97 97 166
q0 23 -11.5 41t-25.5 29t-25.5 32.5t-11.5 49.5q0 42 31.5 69t74.5 27q55 0 88 -37t33 -94q0 -98 -49 -192.5t-133 -159.5q-24 -16 -47 4z" />
    <glyph glyph-name="Dcroat" unicode="&#x110;" horiz-adv-x="1368" 
d="M193 1475h344q204 0 335 -42t224 -139q180 -186 180 -549q0 -393 -209 -593q-88 -84 -214.5 -118t-305.5 -34h-354v672h-113q-21 0 -21 65v23q0 63 21 63h113v652zM387 1315v-492h344q21 0 21 -63v-23q0 -65 -21 -65h-344v-512h164q247 0 369 114q155 146 155 465
q0 278 -117 420q-124 156 -395 156h-176z" />
    <glyph glyph-name="dcroat" unicode="&#x111;" horiz-adv-x="1187" 
d="M500 1380h321v150q0 15 18 20.5t70 5.5h13q49 0 66.5 -5.5t17.5 -20.5v-150h118q19 0 19 -65q0 -66 -19 -66h-118v-993q0 -73 13.5 -92t57.5 -19q19 0 19 -55v-14q0 -62 -19 -68q-35 -12 -90 -12q-47 0 -85 30.5t-56 88.5h-2q-41 -57 -125.5 -96t-188.5 -39
q-203 0 -320.5 143.5t-117.5 394.5q0 93 19 178.5t59.5 159.5t98 128.5t140 86t181.5 31.5q60 0 125.5 -20t105.5 -48v215h-321q-19 0 -19 66q0 65 19 65zM821 500v358q-39 33 -100 54.5t-121 21.5q-144 0 -229.5 -111.5t-85.5 -298.5q0 -183 78.5 -282t203.5 -99
q55 0 108 18t87 52q35 35 47 95.5t12 191.5z" />
    <glyph glyph-name="Emacron" unicode="&#x112;" horiz-adv-x="1114" 
d="M164 1475h819q18 0 18 -68v-25q0 -69 -18 -69h-625v-486h531q18 0 18 -67v-25q0 -69 -18 -69h-531v-502h633q19 0 19 -68v-26q0 -70 -19 -70h-827v1475zM295 1790h563q21 0 21 -59v-25q0 -66 -21 -66h-563q-21 0 -21 66v25q0 59 21 59z" />
    <glyph glyph-name="emacron" unicode="&#x113;" horiz-adv-x="1114" 
d="M1006 475h-721q9 -176 102 -254q83 -74 242 -74q126 0 270 66q9 4 16.5 5t16.5 -9.5t18 -34.5l11 -24q16 -38 16.5 -54t-12.5 -22q-160 -94 -371 -94q-245 0 -373.5 142t-128.5 394q0 261 133.5 423.5t358.5 162.5q132 0 226.5 -60t147.5 -165q68 -136 68 -328
q0 -45 -4 -59.5t-16 -14.5zM291 627h547q-1 81 -27 148.5t-84.5 113t-140.5 45.5q-117 0 -195.5 -77t-99.5 -230zM305 1419h563q21 0 21 -59v-25q0 -65 -21 -65h-563q-20 0 -20 65v25q0 59 20 59z" />
    <glyph glyph-name="Ebreve" unicode="&#x114;" horiz-adv-x="1114" 
d="M164 1475h819q18 0 18 -68v-25q0 -69 -18 -69h-625v-486h531q18 0 18 -67v-25q0 -69 -18 -69h-531v-502h633q19 0 19 -68v-26q0 -70 -19 -70h-827v1475zM358 1868h25q58 0 61 -21q6 -58 46.5 -89.5t105.5 -31.5q64 0 104 32t48 89q3 21 61 21h27q65 0 65 -21
q-7 -121 -90 -182t-219 -61q-132 0 -212 60t-87 183q0 21 65 21z" />
    <glyph glyph-name="ebreve" unicode="&#x115;" horiz-adv-x="1114" 
d="M1006 475h-721q9 -176 102 -254q83 -74 242 -74q126 0 270 66q9 4 16.5 5t16.5 -9.5t18 -34.5l11 -24q16 -38 16.5 -54t-12.5 -22q-160 -94 -371 -94q-245 0 -373.5 142t-128.5 394q0 261 133.5 423.5t358.5 162.5q132 0 226.5 -60t147.5 -165q68 -136 68 -328
q0 -45 -4 -59.5t-16 -14.5zM291 627h547q-1 81 -27 148.5t-84.5 113t-140.5 45.5q-117 0 -195.5 -77t-99.5 -230zM346 1479h25q58 0 61 -21q6 -58 46.5 -89.5t105.5 -31.5q64 0 103.5 32t47.5 89q3 21 62 21h26q66 0 66 -21q-7 -121 -90.5 -182.5t-218.5 -61.5
q-132 0 -212 60.5t-87 183.5q0 21 65 21z" />
    <glyph glyph-name="Edotaccent" unicode="&#x116;" horiz-adv-x="1114" 
d="M164 1475h819q18 0 18 -68v-25q0 -69 -18 -69h-625v-486h531q18 0 18 -67v-25q0 -69 -18 -69h-531v-502h633q19 0 19 -68v-26q0 -70 -19 -70h-827v1475zM481 1724q0 47 35 81t82 34t81 -34t34 -81t-34 -81.5t-81 -34.5t-82 34.5t-35 81.5z" />
    <glyph glyph-name="edotaccent" unicode="&#x117;" horiz-adv-x="1114" 
d="M1006 475h-721q9 -176 102 -254q83 -74 242 -74q126 0 270 66q9 4 16.5 5t16.5 -9.5t18 -34.5l11 -24q16 -38 16.5 -54t-12.5 -22q-160 -94 -371 -94q-245 0 -373.5 142t-128.5 394q0 261 133.5 423.5t358.5 162.5q132 0 226.5 -60t147.5 -165q68 -136 68 -328
q0 -45 -4 -59.5t-16 -14.5zM291 627h547q-1 81 -27 148.5t-84.5 113t-140.5 45.5q-117 0 -195.5 -77t-99.5 -230zM471 1356q0 47 34.5 80.5t82.5 33.5q47 0 80.5 -33.5t33.5 -80.5q0 -48 -33.5 -82.5t-80.5 -34.5t-82 35t-35 82z" />
    <glyph glyph-name="Eogonek" unicode="&#x118;" horiz-adv-x="1114" 
d="M164 1475h819q18 0 18 -68v-25q0 -69 -18 -69h-625v-486h531q18 0 18 -67v-25q0 -69 -18 -69h-531v-502h633q19 0 19 -68v-26q0 -70 -19 -70h-14q-77 0 -140 -65t-63 -144q0 -88 100 -88q49 0 84 12q10 3 16.5 -7.5t12.5 -37.5l4 -18q10 -49 -4 -55q-71 -29 -147 -29
q-109 0 -168.5 55t-59.5 133q0 73 40 139.5t108 104.5h-596v1475z" />
    <glyph glyph-name="eogonek" unicode="&#x119;" horiz-adv-x="1114" 
d="M1006 475h-721q9 -176 102 -254q83 -74 242 -74q126 0 270 66q9 4 16.5 5t16.5 -9.5t18 -34.5l11 -24q13 -33 14 -46.5t-12 -23.5q-121 -71 -182.5 -137t-61.5 -146q0 -94 100 -94q37 0 84 12q10 3 16.5 -7.5t12.5 -37.5l4 -18q10 -49 -4 -55q-71 -29 -148 -29
q-108 0 -167.5 55t-59.5 133q0 66 34 126t93 104q-46 -6 -90 -6q-245 0 -373.5 142t-128.5 394q2 261 135.5 423.5t358.5 162.5q131 0 225 -60t147 -165q68 -136 68 -328q0 -45 -4 -59.5t-16 -14.5zM291 627h547q-1 81 -27 148.5t-84 113t-139 45.5q-117 0 -195.5 -77
t-101.5 -230z" />
    <glyph glyph-name="Ecaron" unicode="&#x11a;" horiz-adv-x="1114" 
d="M164 1475h819q18 0 18 -68v-25q0 -69 -18 -69h-625v-486h531q18 0 18 -67v-25q0 -69 -18 -69h-531v-502h633q19 0 19 -68v-26q0 -70 -19 -70h-827v1475zM311 1849l17 19q14 16 32 24.5t25 1.5l229 -200l224 194q7 7 21.5 1t29.5 -23l12 -15q34 -37 19 -55l-187 -199
q-23 -26 -90 -26h-78q-68 0 -92 28l-182 193q-16 16 20 57z" />
    <glyph glyph-name="ecaron" unicode="&#x11b;" horiz-adv-x="1114" 
d="M1006 475h-721q9 -176 102 -254q83 -74 242 -74q126 0 270 66q9 4 16.5 5t16.5 -9.5t18 -34.5l11 -24q16 -38 16.5 -54t-12.5 -22q-160 -94 -371 -94q-245 0 -373.5 142t-128.5 394q0 261 133.5 423.5t358.5 162.5q132 0 226.5 -60t147.5 -165q68 -136 68 -328
q0 -45 -4 -59.5t-16 -14.5zM291 627h547q-1 81 -27 148.5t-84.5 113t-140.5 45.5q-117 0 -195.5 -77t-99.5 -230zM293 1456l16 19q14 16 32.5 24.5t25.5 1.5l229 -201l223 195q7 7 21.5 1t29.5 -23l13 -15q34 -36 18 -55l-186 -199q-23 -26 -90 -26h-78q-68 0 -92 28
l-183 193q-15 15 21 57z" />
    <glyph glyph-name="Gcircumflex" unicode="&#x11c;" horiz-adv-x="1300" 
d="M1126 1300l-14 -24q-14 -26 -30.5 -37t-26.5 -4q-148 96 -330 96q-219 0 -329.5 -158.5t-110.5 -437.5q0 -134 26 -240.5t80 -186t143 -122.5t209 -43q143 0 248 43v443h-321q-19 0 -19 65v29q0 68 19 68h514v-709q-94 -42 -221.5 -72t-249.5 -30q-309 0 -469 195
t-160 548q0 359 163.5 565.5t469.5 206.5q251 0 413 -123q10 -7 10 -26.5t-14 -45.5zM395 1636l187 199q24 27 90 27h78q67 0 92 -29l182 -193q18 -18 -20 -59l-17 -18q-13 -17 -29.5 -24t-23.5 1l-225 197l-230 -195q-6 -7 -20 -0.5t-29 23.5l-14 16q-35 38 -21 55z" />
    <glyph glyph-name="gcircumflex" unicode="&#x11d;" horiz-adv-x="1157" 
d="M827 287v295q0 106 -6 154.5t-24 82.5q-26 50 -82 80.5t-140 30.5q-133 0 -211.5 -107t-78.5 -286q0 -181 70.5 -276t209.5 -95q76 0 148 34t114 87zM911 1081h7q48 0 63.5 -5.5t17.5 -20.5q13 -162 13 -508v-340q0 -259 -39 -385q-43 -142 -168 -221.5t-285 -79.5
q-81 0 -171.5 17.5t-137.5 45.5q-19 10 2 72l8 25q19 57 35 57q4 0 49 -17q100 -34 195 -34q267 0 315 233q12 64 12 197q-53 -57 -134.5 -87t-164.5 -30q-143 0 -243 70t-146.5 187t-46.5 271q1 173 62.5 304.5t167 200.5t237.5 69q88 0 158.5 -35t107.5 -96h2v84
q0 14 17 20t67 6zM262 1284l187 199q23 26 90 26h77q69 0 93 -28l182 -193q17 -17 -21 -59l-16 -19q-13 -17 -29.5 -23.5t-23.5 1.5l-226 196l-229 -194q-5 -7 -20 -1t-29 23l-14 17q-35 38 -21 55z" />
    <glyph glyph-name="Gbreve" unicode="&#x11e;" horiz-adv-x="1300" 
d="M1126 1300l-14 -24q-14 -26 -30.5 -37t-26.5 -4q-148 96 -330 96q-219 0 -329.5 -158.5t-110.5 -437.5q0 -134 26 -240.5t80 -186t143 -122.5t209 -43q143 0 248 43v443h-321q-19 0 -19 65v29q0 68 19 68h514v-709q-94 -42 -221.5 -72t-249.5 -30q-309 0 -469 195
t-160 548q0 359 163.5 565.5t469.5 206.5q251 0 413 -123q10 -7 10 -26.5t-14 -45.5zM473 1868h25q58 0 61 -21q6 -58 46.5 -89.5t105.5 -31.5q64 0 103.5 32t47.5 89q3 21 62 21h26q66 0 66 -21q-7 -121 -90 -182t-219 -61q-132 0 -212 60t-87 183q0 21 65 21z" />
    <glyph glyph-name="gbreve" unicode="&#x11f;" horiz-adv-x="1157" 
d="M827 287v295q0 106 -6 154.5t-24 82.5q-26 50 -82 80.5t-140 30.5q-133 0 -211.5 -107t-78.5 -286q0 -181 70.5 -276t209.5 -95q76 0 148 34t114 87zM911 1081h7q48 0 63.5 -5.5t17.5 -20.5q13 -162 13 -508v-340q0 -259 -39 -385q-43 -142 -168 -221.5t-285 -79.5
q-81 0 -171.5 17.5t-137.5 45.5q-19 10 2 72l8 25q19 57 35 57q4 0 49 -17q100 -34 195 -34q267 0 315 233q12 64 12 197q-53 -57 -134.5 -87t-164.5 -30q-143 0 -243 70t-146.5 187t-46.5 271q1 173 62.5 304.5t167 200.5t237.5 69q88 0 158.5 -35t107.5 -96h2v84
q0 14 17 20t67 6zM340 1479h25q58 0 61 -21q6 -58 46.5 -89.5t105.5 -31.5q64 0 103.5 32t47.5 89q3 21 62 21h26q66 0 66 -21q-7 -121 -90.5 -182.5t-219.5 -61.5q-132 0 -212 60.5t-87 183.5q0 21 66 21z" />
    <glyph glyph-name="Gdotaccent" unicode="&#x120;" horiz-adv-x="1300" 
d="M1126 1300l-14 -24q-14 -26 -30.5 -37t-26.5 -4q-148 96 -330 96q-219 0 -329.5 -158.5t-110.5 -437.5q0 -134 26 -240.5t80 -186t143 -122.5t209 -43q143 0 248 43v443h-321q-19 0 -19 65v29q0 68 19 68h514v-709q-94 -42 -221.5 -72t-249.5 -30q-309 0 -469 195
t-160 548q0 359 163.5 565.5t469.5 206.5q251 0 413 -123q10 -7 10 -26.5t-14 -45.5zM596 1724q0 47 35 81t82 34t80.5 -34t33.5 -81t-33.5 -81.5t-80.5 -34.5t-82 34.5t-35 81.5z" />
    <glyph glyph-name="gdotaccent" unicode="&#x121;" horiz-adv-x="1157" 
d="M827 287v295q0 106 -6 154.5t-24 82.5q-26 50 -82 80.5t-140 30.5q-133 0 -211.5 -107t-78.5 -286q0 -181 70.5 -276t209.5 -95q76 0 148 34t114 87zM911 1081h7q48 0 63.5 -5.5t17.5 -20.5q13 -162 13 -508v-340q0 -259 -39 -385q-43 -142 -168 -221.5t-285 -79.5
q-81 0 -171.5 17.5t-137.5 45.5q-19 10 2 72l8 25q19 57 35 57q4 0 49 -17q100 -34 195 -34q267 0 315 233q12 64 12 197q-53 -57 -134.5 -87t-164.5 -30q-143 0 -243 70t-146.5 187t-46.5 271q1 173 62.5 304.5t167 200.5t237.5 69q88 0 158.5 -35t107.5 -96h2v84
q0 14 17 20t67 6zM463 1356q0 47 34.5 80.5t82.5 33.5q47 0 80.5 -33.5t33.5 -80.5q0 -48 -33.5 -82.5t-80.5 -34.5t-82 35t-35 82z" />
    <glyph glyph-name="Gcommaaccent" unicode="&#x122;" horiz-adv-x="1300" 
d="M1126 1300l-14 -24q-14 -26 -30.5 -37t-26.5 -4q-148 96 -330 96q-219 0 -329.5 -158.5t-110.5 -437.5q0 -134 26 -240.5t80 -186t143 -122.5t209 -43q143 0 248 43v443h-321q-19 0 -19 65v29q0 68 19 68h514v-709q-94 -42 -221.5 -72t-249.5 -30q-309 0 -469 195
t-160 548q0 359 163.5 565.5t469.5 206.5q251 0 413 -123q10 -7 10 -26.5t-14 -45.5zM623 -600l-19 20q-22 25 -2 45q96 96 96 166q0 23 -11.5 41t-25 29t-25 32.5t-11.5 49.5q0 42 31.5 69t74.5 27q55 0 88 -37t33 -94q0 -98 -49 -192.5t-133 -159.5q-24 -16 -47 4z" />
    <glyph glyph-name="gcommaaccent" unicode="&#x123;" horiz-adv-x="1157" 
d="M670 1679l18 -20q22 -25 2 -45q-96 -96 -96 -166q0 -22 11.5 -40.5t25.5 -29.5t25.5 -32.5t11.5 -49.5q0 -41 -32 -68.5t-75 -27.5q-55 0 -88 37t-33 94q0 98 49.5 192.5t133.5 159.5q24 16 47 -4zM827 287v295q0 106 -6 154.5t-24 82.5q-26 50 -82 80.5t-140 30.5
q-133 0 -211.5 -107t-78.5 -286q0 -181 70.5 -276t209.5 -95q76 0 148 34t114 87zM911 1081h7q48 0 63.5 -5.5t17.5 -20.5q13 -162 13 -508v-340q0 -259 -39 -385q-43 -142 -168 -221.5t-285 -79.5q-81 0 -171.5 17.5t-137.5 45.5q-19 10 2 72l8 25q19 57 35 57q4 0 49 -17
q100 -34 195 -34q267 0 315 233q12 64 12 197q-53 -57 -134.5 -87t-164.5 -30q-143 0 -243 70t-146.5 187t-46.5 271q1 173 62.5 304.5t167 200.5t237.5 69q88 0 158.5 -35t107.5 -96h2v84q0 14 17 20t67 6z" />
    <glyph glyph-name="Hcircumflex" unicode="&#x124;" horiz-adv-x="1359" 
d="M248 1475h22q88 0 88 -23v-625h643v625q0 23 84 23h23q88 0 88 -23v-1429q0 -23 -84 -23h-22q-89 0 -89 23v643h-643v-643q0 -23 -84 -23h-22q-88 0 -88 23v1429q0 23 84 23zM365 1636l186 199q24 27 90 27h78q67 0 92 -29l182 -193q18 -18 -20 -59l-17 -18
q-13 -17 -29.5 -24t-23.5 1l-225 197l-229 -195q-5 -7 -20.5 -0.5t-29.5 23.5l-14 16q-35 37 -20 55z" />
    <glyph glyph-name="hcircumflex" unicode="&#x125;" horiz-adv-x="1196" 
d="M240 1556h12q40 0 59.5 -3t24 -7.5t4.5 -13.5v-561q53 59 144 95t184 36q174 0 280 -109q55 -57 80 -140t25 -208v-620q0 -9 -3.5 -13t-22.5 -8t-58 -4h-13q-39 0 -59 3t-24.5 8t-4.5 14v534q0 135 -10 198t-45 103q-56 68 -195 68q-59 0 -120 -20t-97 -54
q-46 -42 -55 -145q-6 -86 -6 -281v-403q0 -9 -3.5 -13t-22.5 -8t-58 -4h-12q-39 0 -59 3t-24.5 8t-4.5 14v1507q0 9 3.5 13t22.5 7.5t58 3.5zM-63 1632l186 199q24 27 90 27h78q67 0 92 -29l182 -193q18 -18 -20 -59l-17 -18q-13 -17 -29.5 -24t-23.5 1l-225 197l-230 -195
q-6 -7 -20 -0.5t-29 23.5l-14 16q-35 37 -20 55z" />
    <glyph glyph-name="Hbar" unicode="&#x126;" horiz-adv-x="1417" 
d="M276 1475h23q88 0 88 -23v-219h643v219q0 23 84 23h23q88 0 88 -23v-219h123q20 0 20 -64v-16q0 -66 -20 -66h-123v-1064q0 -23 -84 -23h-23q-88 0 -88 23v643h-643v-643q0 -23 -84 -23h-22q-88 0 -88 23v1064h-121q-21 0 -21 66v16q0 64 21 64h121v219q0 23 83 23z
M387 827h643v260h-643v-260z" />
    <glyph glyph-name="hbar" unicode="&#x127;" horiz-adv-x="1196" 
d="M240 1556h12q40 0 59.5 -3t24 -7.5t4.5 -13.5v-152h322q18 0 18 -65q0 -66 -18 -66h-322v-278q53 59 144 95t184 36q174 0 280 -109q55 -57 80 -140t25 -208v-620q0 -9 -3.5 -13t-22.5 -8t-58 -4h-13q-39 0 -59 3t-24.5 8t-4.5 14v534q0 135 -10 198t-45 103
q-56 68 -195 68q-59 0 -120 -20t-97 -54q-46 -42 -55 -145q-6 -86 -6 -281v-403q0 -9 -3.5 -13t-22.5 -8t-58 -4h-12q-39 0 -59 3t-24.5 8t-4.5 14v1224h-119q-19 0 -19 66q0 65 19 65h119v152q0 9 3.5 13t22.5 7.5t58 3.5z" />
    <glyph glyph-name="Itilde" unicode="&#x128;" horiz-adv-x="780" 
d="M143 1475h494q16 0 16 -58v-24q0 -60 -16 -60h-150v-1192h150q16 0 16 -59v-25q0 -57 -16 -57h-494q-9 0 -12.5 11t-3.5 48v23q0 37 3.5 48t12.5 11h150v1192h-150q-9 0 -12.5 11.5t-3.5 48.5v22q0 37 3.5 48.5t12.5 11.5zM109 1634l-15 21q-29 40 -16 55q81 96 196 96
q41 0 76.5 -11.5t56.5 -26t51 -26t60 -11.5q54 0 105 55q14 14 53 -31l12 -16q12 -15 17.5 -31.5t-0.5 -24.5q-33 -44 -83.5 -75t-107.5 -31q-52 0 -124.5 38t-119.5 38q-59 0 -108 -56q-15 -15 -53 37z" />
    <glyph glyph-name="itilde" unicode="&#x129;" horiz-adv-x="491" 
d="M242 1081h12q39 0 58 -3.5t22.5 -7.5t3.5 -13v-1032q0 -9 -3.5 -13t-22.5 -8t-58 -4h-12q-39 0 -59 3t-24.5 8t-4.5 14v1032q0 9 4.5 13.5t24 7.5t59.5 3zM-35 1303l-14 20q-29 40 -17 55q82 97 197 97q51 0 92.5 -19t77.5 -38t74 -19q53 0 104 55q14 14 53 -31l13 -16
q12 -15 17 -31t-1 -24q-33 -45 -83 -76t-107 -31q-52 0 -124.5 38t-119.5 38q-61 0 -109 -55q-15 -15 -53 37z" />
    <glyph glyph-name="Imacron" unicode="&#x12a;" horiz-adv-x="780" 
d="M143 1475h494q16 0 16 -58v-24q0 -60 -16 -60h-150v-1192h150q16 0 16 -59v-25q0 -57 -16 -57h-494q-9 0 -12.5 11t-3.5 48v23q0 37 3.5 48t12.5 11h150v1192h-150q-9 0 -12.5 11.5t-3.5 48.5v22q0 37 3.5 48.5t12.5 11.5zM109 1790h563q20 0 20 -59v-25q0 -66 -20 -66
h-563q-21 0 -21 66v25q0 59 21 59z" />
    <glyph glyph-name="imacron" unicode="&#x12b;" horiz-adv-x="491" 
d="M242 1081h12q39 0 58 -3.5t22.5 -7.5t3.5 -13v-1032q0 -9 -3.5 -13t-22.5 -8t-58 -4h-12q-39 0 -59 3t-24.5 8t-4.5 14v1032q0 9 4.5 13.5t24 7.5t59.5 3zM-35 1419h563q21 0 21 -59v-25q0 -65 -21 -65h-563q-20 0 -20 65v25q0 59 20 59z" />
    <glyph glyph-name="Ibreve" unicode="&#x12c;" horiz-adv-x="780" 
d="M143 1475h494q16 0 16 -58v-24q0 -60 -16 -60h-150v-1192h150q16 0 16 -59v-25q0 -57 -16 -57h-494q-9 0 -12.5 11t-3.5 48v23q0 37 3.5 48t12.5 11h150v1192h-150q-9 0 -12.5 11.5t-3.5 48.5v22q0 37 3.5 48.5t12.5 11.5zM152 1868h24q59 0 62 -21q6 -58 46 -89.5
t105 -31.5q64 0 104 32t48 89q3 21 61 21h27q65 0 65 -21q-7 -121 -90 -182t-219 -61q-132 0 -212 60t-87 183q0 21 66 21z" />
    <glyph glyph-name="ibreve" unicode="&#x12d;" horiz-adv-x="491" 
d="M242 1081h12q39 0 58 -3.5t22.5 -7.5t3.5 -13v-1032q0 -9 -3.5 -13t-22.5 -8t-58 -4h-12q-39 0 -59 3t-24.5 8t-4.5 14v1032q0 9 4.5 13.5t24 7.5t59.5 3zM8 1479h25q58 0 61 -21q6 -58 46.5 -89.5t105.5 -31.5q64 0 103.5 32t47.5 89q3 21 62 21h26q66 0 66 -21
q-7 -121 -90.5 -182.5t-218.5 -61.5q-132 0 -212 60.5t-87 183.5q0 21 65 21z" />
    <glyph glyph-name="Iogonek" unicode="&#x12e;" horiz-adv-x="780" 
d="M637 0h-27q-98 0 -164 -66q-61 -64 -61 -143q0 -88 100 -88q49 0 84 12q10 3 16.5 -7.5t12.5 -37.5l4 -18q10 -49 -4 -55q-71 -29 -147 -29q-109 0 -168.5 55t-59.5 133q0 73 40 139.5t108 104.5h-228q-9 0 -12.5 11t-3.5 48v23q0 37 3.5 48t12.5 11h150v1192h-150
q-9 0 -12.5 11.5t-3.5 48.5v22q0 37 3.5 48.5t12.5 11.5h494q16 0 16 -58v-24q0 -60 -16 -60h-150v-1192h150q16 0 16 -59v-25q0 -57 -16 -57z" />
    <glyph glyph-name="iogonek" unicode="&#x12f;" horiz-adv-x="491" 
d="M18 -238q0 138 136 248v1047q0 9 4.5 13.5t24 7.5t59.5 3h12q39 0 58 -3.5t22.5 -7.5t3.5 -13v-1016q0 -14 -5.5 -21.5t-19.5 -17.5q-133 -82 -133 -207q0 -41 24 -66.5t77 -25.5q49 0 84 12q10 3 16 -7t12 -38l4 -18q10 -49 -4 -55q-71 -29 -147 -29q-109 0 -168.5 56.5
t-59.5 137.5zM117 1413q0 54 37.5 91.5t91.5 37.5t91.5 -37.5t37.5 -91.5t-37.5 -91.5t-91.5 -37.5t-91.5 37.5t-37.5 91.5z" />
    <glyph glyph-name="Idotaccent" unicode="&#x130;" horiz-adv-x="780" 
d="M143 1475h494q16 0 16 -58v-24q0 -60 -16 -60h-150v-1192h150q16 0 16 -59v-25q0 -57 -16 -57h-494q-9 0 -12.5 11t-3.5 48v23q0 37 3.5 48t12.5 11h150v1192h-150q-9 0 -12.5 11.5t-3.5 48.5v22q0 37 3.5 48.5t12.5 11.5zM274 1724q0 47 35 81t82 34t81 -34t34 -81
t-34 -81.5t-81 -34.5t-82 34.5t-35 81.5z" />
    <glyph glyph-name="dotlessi" unicode="&#x131;" horiz-adv-x="491" 
d="M242 1081h12q39 0 58 -3.5t22.5 -7.5t3.5 -13v-1032q0 -9 -3.5 -13t-22.5 -8t-58 -4h-12q-39 0 -59 3t-24.5 8t-4.5 14v1032q0 9 4.5 13.5t24 7.5t59.5 3z" />
    <glyph glyph-name="IJ" unicode="&#x132;" horiz-adv-x="1685" 
d="M143 1475h494q16 0 16 -58v-24q0 -60 -16 -60h-150v-1192h150q16 0 16 -59v-25q0 -57 -16 -57h-494q-9 0 -12.5 11t-3.5 48v23q0 37 3.5 48t12.5 11h150v1192h-150q-9 0 -12.5 11.5t-3.5 48.5v22q0 37 3.5 48.5t12.5 11.5zM1434 1475h22q88 0 88 -23v-1010
q0 -228 -96 -345t-307 -117q-199 0 -310 102q-8 7 -1.5 29.5t24.5 48.5l14 20q17 23 34 32t28 1q101 -68 200 -68q220 0 220 279v1028q0 23 84 23z" />
    <glyph glyph-name="ij" unicode="&#x133;" horiz-adv-x="1009" 
d="M242 1081h12q39 0 58 -3.5t22.5 -7.5t3.5 -13v-1032q0 -9 -3.5 -13t-22.5 -8t-58 -4h-12q-39 0 -59 3t-24.5 8t-4.5 14v1032q0 9 4.5 13.5t24 7.5t59.5 3zM117 1413q0 54 37.5 91.5t91.5 37.5t91.5 -37.5t37.5 -91.5t-37.5 -91.5t-91.5 -37.5t-91.5 37.5t-37.5 91.5z
M760 1081h12q39 0 58 -3.5t22.5 -7.5t3.5 -13v-1051q0 -485 -379 -485q-36 0 -79.5 8.5t-65.5 21.5q-10 6 -11 18t5 44l6 31q6 31 14 40.5t25 6.5q78 -15 94 -15q109 0 158 76t49 250v1055q0 9 4.5 13.5t24 7.5t59.5 3zM635 1413q0 54 37.5 91.5t91.5 37.5t91.5 -37.5
t37.5 -91.5t-37.5 -91.5t-91.5 -37.5t-91.5 37.5t-37.5 91.5z" />
    <glyph glyph-name="Jcircumflex" unicode="&#x134;" horiz-adv-x="905" 
d="M653 1475h23q88 0 88 -23v-1010q0 -228 -96.5 -345t-307.5 -117q-198 0 -309 102q-8 7 -1.5 29.5t24.5 48.5l14 20q17 23 34 32t28 1q101 -68 200 -68q219 0 219 279v1028q0 23 84 23zM354 1636l187 199q24 27 90 27h78q67 0 92 -29l182 -193q18 -18 -20 -59l-17 -18
q-13 -17 -29.5 -24t-23.5 1l-225 197l-230 -195q-6 -7 -20 -0.5t-29 23.5l-14 16q-35 38 -21 55z" />
    <glyph glyph-name="jcircumflex" unicode="&#x135;" horiz-adv-x="518" 
d="M268 1081h13q39 0 58 -3.5t22.5 -7.5t3.5 -13v-1051q0 -485 -379 -485q-36 0 -80 8.5t-66 21.5q-10 6 -11 18t5 44l6 31q6 31 14 40.5t25 6.5q77 -15 94 -15q109 0 158 76t49 250v1055q0 9 4.5 13.5t24 7.5t59.5 3zM-41 1284l186 199q23 26 91 26h77q69 0 93 -28
l182 -193q17 -17 -21 -59l-16 -19q-13 -17 -29.5 -23.5t-23.5 1.5l-226 196l-229 -194q-5 -7 -20 -1t-29 23l-14 17q-35 38 -21 55z" />
    <glyph glyph-name="Kcommaaccent" unicode="&#x136;" horiz-adv-x="1204" 
d="M248 1475h22q88 0 88 -23v-700l158 176q276 309 393 526q6 13 22 17t64 4h19q81 0 84 -14q0 -4 -2 -9q-39 -96 -158 -263.5t-276 -336.5l499 -829q6 -11 -24 -18q-25 -5 -64 -5h-39q-85 0 -98 23l-410 700l-168 -186v-514q0 -23 -84 -23h-22q-88 0 -88 23v1429
q0 23 84 23zM530 -600l-18 20q-22 25 -2 45q96 96 96 166q0 23 -11.5 41t-25.5 29t-25.5 32.5t-11.5 49.5q0 41 32 68.5t75 27.5q55 0 88 -37t33 -94q0 -98 -49 -192.5t-133 -159.5q-25 -17 -48 4z" />
    <glyph glyph-name="kcommaaccent" unicode="&#x137;" horiz-adv-x="1007" 
d="M244 1556h12q39 0 58 -3.5t22.5 -7.5t3.5 -13v-893l125 117q82 76 138.5 140t131.5 163q10 13 27.5 17.5t71.5 4.5q100 0 89 -28q0 -1 -1 -2q-33 -61 -127 -173.5t-213 -226.5l383 -622q3 -7 0.5 -13.5t-23 -11t-57.5 -4.5h-15q-56 0 -78 5t-30 18l-318 514l-104 -93
v-419q0 -9 -3.5 -13t-22.5 -8t-58 -4h-12q-39 0 -59 3t-24.5 8t-4.5 14v1507q0 9 4.5 13.5t24 7.5t59.5 3zM451 -600l-19 20q-22 25 -2 45q96 96 96 166q0 23 -11.5 41t-25 29t-25 32.5t-11.5 49.5q0 42 31.5 69t74.5 27q55 0 88 -37t33 -94q0 -98 -49 -192.5t-133 -159.5
q-24 -16 -47 4z" />
    <glyph glyph-name="kgreenlandic" unicode="&#x138;" horiz-adv-x="1007" 
d="M244 1081h12q39 0 58 -3.5t22.5 -7.5t3.5 -13v-418l125 117q82 76 138.5 140t131.5 163q10 13 27.5 17.5t71.5 4.5q100 0 89 -28q0 -1 -1 -2q-33 -61 -127 -173.5t-213 -226.5l383 -622q3 -7 0.5 -13.5t-23 -11t-57.5 -4.5h-15q-56 0 -78 5t-30 18l-318 514l-104 -93
v-419q0 -9 -3.5 -13t-22.5 -8t-58 -4h-12q-39 0 -59 3t-24.5 8t-4.5 14v1032q0 9 4.5 13.5t24 7.5t59.5 3z" />
    <glyph glyph-name="Lacute" unicode="&#x139;" horiz-adv-x="1036" 
d="M248 1475h22q88 0 88 -23v-1288h586q19 0 19 -68v-26q0 -70 -19 -70h-708q-72 0 -72 29v1423q0 23 84 23zM391 1872h25q87 0 83 -23q-1 -3 -3 -6l-193 -262q-8 -11 -23 -14.5t-51 -3.5h-16q-64 0 -64 16q0 3 3 8l149 262q13 23 90 23z" />
    <glyph glyph-name="lacute" unicode="&#x13a;" horiz-adv-x="524" 
d="M223 1556h13q48 0 64 -5.5t19 -20.5q13 -74 13 -606v-680q0 -60 14.5 -81.5t63.5 -21.5h20q8 0 10 -10t2 -45v-6q0 -42 -1.5 -52.5t-10.5 -13.5q-46 -16 -96 -16q-105 0 -152 70q-35 51 -35 215v686q0 465 -12 561q-2 15 17 20.5t71 5.5zM330 1915h24q87 0 83 -23
q-1 -3 -3 -6l-192 -262q-11 -18 -74 -18h-16q-66 0 -65 17q0 3 3 7l150 262q13 23 90 23z" />
    <glyph glyph-name="Lcommaaccent" unicode="&#x13b;" horiz-adv-x="1036" 
d="M248 1475h22q88 0 88 -23v-1288h586q19 0 19 -68v-26q0 -70 -19 -70h-708q-72 0 -72 29v1423q0 23 84 23zM467 -600l-18 20q-23 25 -3 45q97 97 97 166q0 23 -11.5 41t-25.5 29t-25.5 32.5t-11.5 49.5q0 42 31.5 69t74.5 27q55 0 88 -37t33 -94q0 -98 -49 -192.5
t-133 -159.5q-24 -16 -47 4z" />
    <glyph glyph-name="lcommaaccent" unicode="&#x13c;" horiz-adv-x="524" 
d="M223 1556h13q48 0 64 -5.5t19 -20.5q13 -74 13 -606v-680q0 -60 14.5 -81.5t63.5 -21.5h20q8 0 10 -10t2 -45v-6q0 -42 -1.5 -52.5t-10.5 -13.5q-46 -16 -96 -16q-105 0 -152 70q-35 51 -35 215v686q0 465 -12 561q-2 15 17 20.5t71 5.5zM166 -600l-19 20q-22 25 -2 45
q97 97 97 166q0 23 -11.5 41t-25.5 29t-25.5 32.5t-11.5 49.5q0 42 31.5 69t74.5 27q55 0 88 -37t33 -94q0 -98 -49 -192.5t-133 -159.5q-24 -16 -47 4z" />
    <glyph glyph-name="Lcaron" unicode="&#x13d;" horiz-adv-x="1036" 
d="M248 1475h22q88 0 88 -23v-1288h586q19 0 19 -68v-26q0 -70 -19 -70h-708q-72 0 -72 29v1423q0 23 84 23zM575 1016l-18 20q-22 25 -2 45q96 96 96 166q0 23 -11.5 41t-25 29t-25 32.5t-11.5 49.5q0 42 31.5 69t74.5 27q55 0 88 -37t33 -94q0 -98 -49 -192.5t-133 -159.5
q-25 -17 -48 4z" />
    <glyph glyph-name="lcaron" unicode="&#x13e;" horiz-adv-x="681" 
d="M223 1556h13q48 0 64 -5.5t19 -20.5q13 -74 13 -606v-680q0 -60 14.5 -81.5t63.5 -21.5h20q8 0 10 -10t2 -45v-6q0 -42 -1.5 -52.5t-10.5 -13.5q-46 -16 -96 -16q-105 0 -152 70q-35 51 -35 215v686q0 465 -12 561q-2 15 17 20.5t71 5.5zM473 1016l-18 20q-22 25 -2 45
q96 96 96 166q0 23 -11.5 41t-25.5 29t-25.5 32.5t-11.5 49.5q0 41 32 68.5t75 27.5q54 0 87 -37t33 -94q0 -98 -49 -192.5t-133 -159.5q-24 -16 -47 4z" />
    <glyph glyph-name="Ldot" unicode="&#x13f;" horiz-adv-x="1036" 
d="M616 786q0 47 35 81t82 34t81 -34t34 -81t-34 -81.5t-81 -34.5t-82 34.5t-35 81.5zM248 1475h22q88 0 88 -23v-1288h586q19 0 19 -68v-26q0 -70 -19 -70h-708q-72 0 -72 29v1423q0 23 84 23z" />
    <glyph glyph-name="ldot" unicode="&#x140;" horiz-adv-x="686" 
d="M453 766q0 47 34.5 81t81.5 34t81 -34t34 -81t-34 -82t-81 -35t-81.5 35t-34.5 82zM223 1556h13q48 0 64 -5.5t19 -20.5q13 -74 13 -606v-680q0 -60 14.5 -81.5t63.5 -21.5h20q8 0 10 -10t2 -45v-6q0 -42 -1.5 -52.5t-10.5 -13.5q-46 -16 -96 -16q-105 0 -152 70
q-35 51 -35 215v686q0 465 -12 561q-2 15 17 20.5t71 5.5z" />
    <glyph glyph-name="Lslash" unicode="&#x141;" horiz-adv-x="1050" 
d="M256 1475h23q88 0 88 -23v-623l243 185q16 14 23 -18l2 -31v-45q0 -56 -17 -70l-251 -186v-500h585q19 0 19 -68v-26q0 -70 -19 -70h-708q-72 0 -72 29v506l-121 -91q-17 -14 -22 21q-2 12 -2 29v41q0 56 16 69l129 96v752q0 23 84 23z" />
    <glyph glyph-name="lslash" unicode="&#x142;" horiz-adv-x="555" 
d="M238 1556h12q48 0 64.5 -5.5t19.5 -20.5q12 -68 12 -606v-21l135 111q16 14 23 -18l2 -31v-35q0 -56 -17 -70l-143 -117v-499q0 -60 14.5 -81.5t63.5 -21.5h20q8 0 10.5 -10.5t2.5 -44.5v-6q0 -41 -2 -52t-11 -14q-46 -16 -96 -16q-104 0 -151 70q-35 51 -35 215v321
l-109 -88q-17 -14 -22 22q-2 11 -2 27v35q0 57 16 70l117 94v205q0 465 -12 561q-2 15 17 20.5t71 5.5z" />
    <glyph glyph-name="Nacute" unicode="&#x143;" horiz-adv-x="1388" 
d="M252 1475h10q62 0 82.5 -5.5t30.5 -21.5l682 -1135v1139q0 23 78 23h16q82 0 82 -23v-1429q0 -14 -19.5 -18.5t-76.5 -4.5h-7q-62 0 -82 5.5t-30 21.5l-686 1132v-1136q0 -23 -78 -23h-16q-82 0 -82 23v1429q0 14 19.5 18.5t76.5 4.5zM801 1872h24q87 0 83 -23
q-1 -3 -3 -6l-192 -262q-8 -11 -23 -14.5t-51 -3.5h-16q-66 0 -65 17q0 3 3 7l150 262q13 23 90 23z" />
    <glyph glyph-name="nacute" unicode="&#x144;" horiz-adv-x="1198" 
d="M238 1081h10q53 0 68.5 -5t15.5 -19l2 -92h2q53 62 145.5 99.5t188.5 37.5q174 0 280 -109q55 -57 80 -140t25 -208v-620q0 -9 -3.5 -13t-22.5 -8t-58 -4h-13q-39 0 -59 3t-24.5 8t-4.5 14v534q0 135 -10 198t-45 103q-56 68 -194 68q-59 0 -121 -20t-97 -54
q-46 -42 -55 -145q-6 -86 -6 -281v-403q0 -9 -3.5 -13t-22.5 -8t-58 -4h-12q-39 0 -59 3t-24.5 8t-4.5 14v698q0 81 -2 200t-2 134q0 9 4.5 13.5t23 7.5t56.5 3zM748 1499h24q87 0 83 -23q-1 -3 -3 -6l-193 -262q-11 -18 -73 -18h-17q-64 0 -64 16q0 3 3 8l149 263
q13 22 91 22z" />
    <glyph glyph-name="Ncommaaccent" unicode="&#x145;" horiz-adv-x="1388" 
d="M252 1475h10q62 0 82.5 -5.5t30.5 -21.5l682 -1135v1139q0 23 78 23h16q82 0 82 -23v-1429q0 -14 -19.5 -18.5t-76.5 -4.5h-7q-62 0 -82 5.5t-30 21.5l-686 1132v-1136q0 -23 -78 -23h-16q-82 0 -82 23v1429q0 14 19.5 18.5t76.5 4.5zM588 -600l-19 20q-22 25 -2 45
q97 97 97 166q0 23 -11.5 41t-25.5 29t-25.5 32.5t-11.5 49.5q0 42 31.5 69t74.5 27q55 0 88 -37t33 -94q0 -98 -49 -192.5t-133 -159.5q-24 -16 -47 4z" />
    <glyph glyph-name="ncommaaccent" unicode="&#x146;" horiz-adv-x="1198" 
d="M238 1081h10q53 0 68.5 -5t15.5 -19l2 -92h2q53 62 145.5 99.5t188.5 37.5q174 0 280 -109q55 -57 80 -140t25 -208v-620q0 -9 -3.5 -13t-22.5 -8t-58 -4h-13q-39 0 -59 3t-24.5 8t-4.5 14v534q0 135 -10 198t-45 103q-56 68 -194 68q-59 0 -121 -20t-97 -54
q-46 -42 -55 -145q-6 -86 -6 -281v-403q0 -9 -3.5 -13t-22.5 -8t-58 -4h-12q-39 0 -59 3t-24.5 8t-4.5 14v698q0 81 -2 200t-2 134q0 9 4.5 13.5t23 7.5t56.5 3zM500 -600l-19 20q-22 25 -2 45q96 96 96 166q0 23 -11.5 41t-25 29t-25 32.5t-11.5 49.5q0 42 31.5 69t74.5 27
q55 0 88 -37t33 -94q0 -98 -49 -192.5t-133 -159.5q-24 -16 -47 4z" />
    <glyph glyph-name="Ncaron" unicode="&#x147;" horiz-adv-x="1388" 
d="M252 1475h10q62 0 82.5 -5.5t30.5 -21.5l682 -1135v1139q0 23 78 23h16q82 0 82 -23v-1429q0 -14 -19.5 -18.5t-76.5 -4.5h-7q-62 0 -82 5.5t-30 21.5l-686 1132v-1136q0 -23 -78 -23h-16q-82 0 -82 23v1429q0 14 19.5 18.5t76.5 4.5zM408 1849l16 19q14 16 32 24.5
t25 1.5l230 -200l223 194q7 7 21.5 1t29.5 -23l12 -15q34 -37 19 -55l-187 -199q-23 -26 -90 -26h-77q-69 0 -93 28l-182 193q-15 15 21 57z" />
    <glyph glyph-name="ncaron" unicode="&#x148;" horiz-adv-x="1198" 
d="M238 1081h10q53 0 68.5 -5t15.5 -19l2 -92h2q53 62 145.5 99.5t188.5 37.5q174 0 280 -109q55 -57 80 -140t25 -208v-620q0 -9 -3.5 -13t-22.5 -8t-58 -4h-13q-39 0 -59 3t-24.5 8t-4.5 14v534q0 135 -10 198t-45 103q-56 68 -194 68q-59 0 -121 -20t-97 -54
q-46 -42 -55 -145q-6 -86 -6 -281v-403q0 -9 -3.5 -13t-22.5 -8t-58 -4h-12q-39 0 -59 3t-24.5 8t-4.5 14v698q0 81 -2 200t-2 134q0 9 4.5 13.5t23 7.5t56.5 3zM350 1456l17 19q14 16 32 24.5t25 1.5l229 -201l224 195q7 7 21.5 1t29.5 -23l12 -15q34 -36 18 -55l-186 -199
q-23 -26 -90 -26h-78q-68 0 -92 28l-182 193q-16 16 20 57z" />
    <glyph glyph-name="napostrophe" unicode="&#x149;" horiz-adv-x="1345" 
d="M385 1081h10q53 0 68.5 -5t15.5 -19l2 -92h2q53 62 145.5 99.5t188.5 37.5q175 0 281 -109q55 -57 79.5 -139.5t24.5 -208.5v-620q0 -9 -3.5 -13t-22.5 -8t-58 -4h-12q-39 0 -59 3t-24.5 8t-4.5 14v534q0 135 -10 198t-45 103q-56 68 -195 68q-59 0 -120 -20t-97 -54
q-46 -42 -55 -145q-7 -100 -7 -281v-403q0 -9 -3 -13t-22 -8t-58 -4h-13q-39 0 -59 3t-24.5 8t-4.5 14v698q0 81 -2 200t-2 134q0 9 4.5 13.5t23 7.5t56.5 3zM2 920l-18 20q-6 6 -10 14t-3.5 20t9.5 21q110 110 110 201q0 28 -14 49t-30 33t-30 38.5t-14 63.5
q0 52 34.5 83.5t86.5 31.5q67 0 107 -44.5t40 -111.5q0 -117 -57 -231t-152 -193q-11 -11 -28.5 -10t-30.5 15z" />
    <glyph glyph-name="Eng" unicode="&#x14a;" horiz-adv-x="1388" 
d="M842 -242q92 0 144.5 52t64.5 165l-719 1184v-1136q0 -23 -78 -23h-16q-82 0 -82 23v1429q0 14 19.5 18.5t76.5 4.5h10q62 0 82.5 -5.5t30.5 -21.5l682 -1135v1139q0 23 78 23h16q82 0 82 -23v-1364q0 -485 -379 -485q-36 0 -79.5 8.5t-65.5 21.5q-10 6 -11.5 18t4.5 44
l7 31q6 31 14 40.5t25 6.5q78 -15 94 -15z" />
    <glyph glyph-name="eng" unicode="&#x14b;" horiz-adv-x="1198" 
d="M870 84v475q0 135 -10 198t-45 103q-56 68 -194 68q-59 0 -121 -20t-97 -54q-46 -42 -55 -145q-6 -86 -6 -281v-403q0 -9 -3.5 -13t-22.5 -8t-58 -4h-12q-39 0 -59 3t-24.5 8t-4.5 14v698q0 81 -2 200t-2 134q0 9 4.5 13.5t23 7.5t56.5 3h10q53 0 68.5 -5t15.5 -19l2 -92
h2q53 62 145.5 99.5t188.5 37.5q174 0 280 -109q55 -57 80 -140t25 -208v-557q0 -485 -379 -485q-36 0 -80 8.5t-66 21.5q-10 6 -11 18t5 44l6 31q6 31 14 40.5t25 6.5q77 -15 95 -15q109 0 157.5 76t48.5 250z" />
    <glyph glyph-name="Omacron" unicode="&#x14c;" horiz-adv-x="1427" 
d="M729 1329q-203 0 -319.5 -159t-116.5 -445q0 -279 106 -429.5t299 -150.5q202 0 319.5 161t117.5 446q0 278 -106.5 427.5t-299.5 149.5zM737 1495q133 0 242 -47t188.5 -137.5t123.5 -231t44 -319.5q0 -358 -175.5 -569t-469.5 -211q-133 0 -242 47t-188.5 138
t-123.5 232t-44 320q0 358 175.5 568t469.5 210zM432 1790h563q21 0 21 -59v-25q0 -66 -21 -66h-563q-20 0 -20 66v25q0 59 20 59z" />
    <glyph glyph-name="omacron" unicode="&#x14d;" horiz-adv-x="1163" 
d="M602 1102q192 0 307 -103q78 -68 120 -179.5t42 -254.5q0 -284 -137 -434.5t-373 -150.5q-193 0 -307 102q-78 68 -120 179.5t-42 254.5q0 284 137 435t373 151zM594 938q-64 0 -118 -23t-97.5 -70.5t-68.5 -128t-25 -186.5q0 -59 8 -111.5t28 -104t51.5 -88.5t81.5 -60
t115 -23q64 0 118 23t98 70.5t69 128t25 186.5q0 59 -8 111.5t-28.5 104t-51.5 88.5t-81.5 60t-115.5 23zM299 1419h563q21 0 21 -59v-25q0 -65 -21 -65h-563q-20 0 -20 65v25q0 59 20 59z" />
    <glyph glyph-name="Obreve" unicode="&#x14e;" horiz-adv-x="1427" 
d="M729 1329q-203 0 -319.5 -159t-116.5 -445q0 -279 106 -429.5t299 -150.5q202 0 319.5 161t117.5 446q0 278 -106.5 427.5t-299.5 149.5zM737 1495q133 0 242 -47t188.5 -137.5t123.5 -231t44 -319.5q0 -358 -175.5 -569t-469.5 -211q-133 0 -242 47t-188.5 138
t-123.5 232t-44 320q0 358 175.5 568t469.5 210zM475 1868h25q58 0 61 -21q6 -58 46.5 -89.5t105.5 -31.5q64 0 103.5 32t47.5 89q3 21 62 21h26q66 0 66 -21q-7 -121 -90 -182t-219 -61q-132 0 -212 60t-87 183q0 21 65 21z" />
    <glyph glyph-name="obreve" unicode="&#x14f;" horiz-adv-x="1163" 
d="M602 1102q192 0 307 -103q78 -68 120 -179.5t42 -254.5q0 -284 -137 -434.5t-373 -150.5q-193 0 -307 102q-78 68 -120 179.5t-42 254.5q0 284 137 435t373 151zM594 938q-64 0 -118 -23t-97.5 -70.5t-68.5 -128t-25 -186.5q0 -59 8 -111.5t28 -104t51.5 -88.5t81.5 -60
t115 -23q64 0 118 23t98 70.5t69 128t25 186.5q0 59 -8 111.5t-28.5 104t-51.5 88.5t-81.5 60t-115.5 23zM342 1479h25q58 0 61 -21q6 -58 46.5 -89.5t105.5 -31.5q64 0 103.5 32t47.5 89q3 21 62 21h26q66 0 66 -21q-7 -121 -90.5 -182.5t-219.5 -61.5q-132 0 -212 60.5
t-87 183.5q0 21 66 21z" />
    <glyph glyph-name="Ohungarumlaut" unicode="&#x150;" horiz-adv-x="1427" 
d="M729 1329q-203 0 -319.5 -159t-116.5 -445q0 -279 106 -429.5t299 -150.5q202 0 319.5 161t117.5 446q0 278 -106.5 427.5t-299.5 149.5zM737 1495q133 0 242 -47t188.5 -137.5t123.5 -231t44 -319.5q0 -358 -175.5 -569t-469.5 -211q-133 0 -242 47t-188.5 138
t-123.5 232t-44 320q0 358 175.5 568t469.5 210zM600 1872h21q81 0 80 -21q0 -3 -3 -8l-172 -262q-11 -20 -69 -20h-17q-29 0 -43.5 3t-16 9t2.5 14l131 262q10 23 86 23zM944 1872h21q81 0 80 -21q0 -3 -3 -8l-172 -262q-11 -20 -69 -20h-17q-29 0 -43.5 3t-16 9t2.5 14
l131 262q10 23 86 23z" />
    <glyph glyph-name="ohungarumlaut" unicode="&#x151;" horiz-adv-x="1163" 
d="M602 1102q192 0 307 -103q78 -68 120 -179.5t42 -254.5q0 -284 -137 -434.5t-373 -150.5q-193 0 -307 102q-78 68 -120 179.5t-42 254.5q0 284 137 435t373 151zM594 938q-64 0 -118 -23t-97.5 -70.5t-68.5 -128t-25 -186.5q0 -59 8 -111.5t28 -104t51.5 -88.5t81.5 -60
t115 -23q64 0 118 23t98 70.5t69 128t25 186.5q0 59 -8 111.5t-28.5 104t-51.5 88.5t-81.5 60t-115.5 23zM467 1499h20q83 0 81 -21l-3 -8l-172 -262q-11 -20 -69 -20h-17q-29 0 -43.5 3t-16 9t2.5 14l131 263q9 22 86 22zM811 1499h20q83 0 81 -21l-3 -8l-172 -262
q-11 -20 -69 -20h-17q-29 0 -43.5 3t-16 9t2.5 14l131 263q9 22 86 22z" />
    <glyph glyph-name="OE" unicode="&#x152;" horiz-adv-x="1918" 
d="M969 1475h819q18 0 18 -68v-25q0 -69 -18 -69h-625v-486h531q18 0 18 -67v-25q0 -69 -18 -69h-531v-502h633q19 0 19 -68v-26q0 -70 -19 -70h-827q-140 -20 -254 -20q-142 0 -255.5 44t-196 132t-127 228t-44.5 323q0 376 174.5 582t485.5 206q100 0 217 -20zM969 160
v1149q-91 24 -219 24q-222 0 -339.5 -155t-117.5 -457q0 -288 110 -435t322 -147q133 0 244 21z" />
    <glyph glyph-name="oe" unicode="&#x153;" horiz-adv-x="1867" 
d="M1753 475h-700q9 -177 98 -254q80 -74 233 -74q125 0 263 66q9 4 16.5 5t16.5 -9.5t18 -34.5l10 -24q16 -38 16.5 -54t-12.5 -22q-157 -94 -362 -94q-148 0 -249 53.5t-153 148.5q-52 -95 -155 -148.5t-240 -53.5q-187 0 -301 102q-76 68 -117 179.5t-41 254.5
q0 284 134.5 435t365.5 151q134 0 225.5 -50t149.5 -157q52 97 148 152t224 55q129 0 221.5 -59.5t145.5 -165.5q66 -138 66 -328q0 -45 -4.5 -59.5t-16.5 -14.5zM586 936q-130 0 -214.5 -100t-84.5 -306q0 -75 13 -139t42.5 -121.5t85.5 -91t133 -33.5q127 0 213 98t86 298
q0 63 -7.5 117.5t-27 106.5t-50 89t-79 59.5t-110.5 22.5zM1059 627h526q-1 81 -26.5 148.5t-81.5 113t-134 45.5q-113 0 -188.5 -77t-95.5 -230z" />
    <glyph glyph-name="Racute" unicode="&#x154;" horiz-adv-x="1175" 
d="M164 1475h346q99 0 178.5 -11t151.5 -40t120.5 -75.5t76.5 -120t28 -171.5q0 -313 -301 -426l98 -191q109 -217 246 -407q10 -16 -26 -26q-23 -7 -56 -7h-39q-82 0 -108 39q-75 106 -174 299l-3.5 7l-3.5 7l-4 8l-125 244h-211v-581q0 -23 -84 -23h-22q-88 0 -88 23v1452
zM358 1317v-557h187q164 0 241.5 78.5t77.5 212.5q0 70 -21.5 121t-53 78.5t-78.5 43t-84.5 19.5t-85.5 4h-183zM735 1872h25q87 0 83 -23q-1 -3 -3 -6l-193 -262q-8 -11 -23 -14.5t-51 -3.5h-16q-64 0 -64 16q0 3 3 8l149 262q13 23 90 23z" />
    <glyph glyph-name="racute" unicode="&#x155;" horiz-adv-x="735" 
d="M238 1081h10q53 0 68.5 -5t15.5 -19l4 -211q56 124 134.5 186t164.5 62q23 0 43 -4q13 -3 16.5 -12.5t3.5 -45.5v-31q0 -46 -4 -60.5t-18 -14.5q-52 0 -95.5 -15t-77 -43.5t-57.5 -58t-49 -70.5q-43 -70 -49 -176q-6 -86 -6 -303v-235q0 -9 -3.5 -13t-22.5 -8t-58 -4h-12
q-39 0 -59 3t-24.5 8t-4.5 14v698q0 81 -2 200t-2 134q0 9 4.5 13.5t23 7.5t56.5 3zM557 1499h25q87 0 83 -23q-1 -3 -3 -6l-193 -262q-11 -18 -74 -18h-16q-66 0 -65 17q0 3 3 7l150 263q13 22 90 22z" />
    <glyph glyph-name="Rcommaaccent" unicode="&#x156;" horiz-adv-x="1175" 
d="M164 1475h346q99 0 178.5 -11t151.5 -40t120.5 -75.5t76.5 -120t28 -171.5q0 -313 -301 -426l98 -191q109 -217 246 -407q10 -16 -26 -26q-23 -7 -56 -7h-39q-82 0 -108 39q-75 106 -174 299l-3.5 7l-3.5 7l-4 8l-125 244h-211v-581q0 -23 -84 -23h-22q-88 0 -88 23v1452
zM358 1317v-557h187q164 0 241.5 78.5t77.5 212.5q0 70 -21.5 121t-53 78.5t-78.5 43t-84.5 19.5t-85.5 4h-183zM508 -600l-19 20q-22 25 -2 45q97 97 97 166q0 23 -11.5 41t-25.5 29t-25.5 32.5t-11.5 49.5q0 42 31.5 69t74.5 27q55 0 88 -37t33 -94q0 -98 -49 -192.5
t-133 -159.5q-24 -16 -47 4z" />
    <glyph glyph-name="rcommaaccent" unicode="&#x157;" horiz-adv-x="735" 
d="M238 1081h10q53 0 68.5 -5t15.5 -19l4 -211q56 124 134.5 186t164.5 62q23 0 43 -4q13 -3 16.5 -12.5t3.5 -45.5v-31q0 -46 -4 -60.5t-18 -14.5q-52 0 -95.5 -15t-77 -43.5t-57.5 -58t-49 -70.5q-43 -70 -49 -176q-6 -86 -6 -303v-235q0 -9 -3.5 -13t-22.5 -8t-58 -4h-12
q-39 0 -59 3t-24.5 8t-4.5 14v698q0 81 -2 200t-2 134q0 9 4.5 13.5t23 7.5t56.5 3zM145 -600l-18 20q-22 25 -2 45q96 96 96 166q0 23 -11.5 41t-25.5 29t-25.5 32.5t-11.5 49.5q0 41 32 68.5t75 27.5q55 0 88 -37t33 -94q0 -98 -49 -192.5t-133 -159.5q-25 -17 -48 4z" />
    <glyph glyph-name="Rcaron" unicode="&#x158;" horiz-adv-x="1175" 
d="M164 1475h346q99 0 178.5 -11t151.5 -40t120.5 -75.5t76.5 -120t28 -171.5q0 -313 -301 -426l98 -191q109 -217 246 -407q10 -16 -26 -26q-23 -7 -56 -7h-39q-82 0 -108 39q-75 106 -174 299l-3.5 7l-3.5 7l-4 8l-125 244h-211v-581q0 -23 -84 -23h-22q-88 0 -88 23v1452
zM358 1317v-557h187q164 0 241.5 78.5t77.5 212.5q0 70 -21.5 121t-53 78.5t-78.5 43t-84.5 19.5t-85.5 4h-183zM324 1849l16 19q14 16 32 24.5t25 1.5l230 -200l223 194q7 7 21.5 1t29.5 -23l12 -15q34 -37 19 -55l-187 -199q-23 -26 -90 -26h-77q-69 0 -93 28l-182 193
q-15 15 21 57z" />
    <glyph glyph-name="rcaron" unicode="&#x159;" horiz-adv-x="735" 
d="M238 1081h10q53 0 68.5 -5t15.5 -19l4 -211q56 124 134.5 186t164.5 62q23 0 43 -4q13 -3 16.5 -12.5t3.5 -45.5v-31q0 -46 -4 -60.5t-18 -14.5q-52 0 -95.5 -15t-77 -43.5t-57.5 -58t-49 -70.5q-43 -70 -49 -176q-6 -86 -6 -303v-235q0 -9 -3.5 -13t-22.5 -8t-58 -4h-12
q-39 0 -59 3t-24.5 8t-4.5 14v698q0 81 -2 200t-2 134q0 9 4.5 13.5t23 7.5t56.5 3zM156 1456l16 19q14 16 32 24.5t25 1.5l230 -201l223 195q7 7 21.5 1t29.5 -23l12 -15q34 -37 19 -55l-186 -199q-23 -26 -91 -26h-77q-69 0 -93 28l-182 193q-15 15 21 57z" />
    <glyph glyph-name="Sacute" unicode="&#x15a;" horiz-adv-x="1062" 
d="M903 1319l-10 -19q-16 -28 -31.5 -37.5t-25.5 -2.5q-109 71 -256 71q-122 0 -186 -63.5t-64 -153.5q0 -48 22.5 -88t60.5 -70t87 -57t103.5 -53.5t108.5 -55.5t103 -66t87 -81t60.5 -106t22.5 -136q0 -192 -122 -306.5t-349 -114.5q-126 0 -235.5 31.5t-178.5 84.5
q-24 21 13 84l14 25q14 24 31 34.5t26 4.5q67 -46 153.5 -73.5t154.5 -27.5q131 0 216 62t85 172q0 56 -22.5 102.5t-60 79.5t-87 61.5t-103.5 54t-108 52.5t-103.5 61t-87 74t-60 97.5t-22.5 127.5q0 187 123 297.5t303 110.5q94 0 192.5 -27.5t157.5 -76.5q18 -15 -12 -72
zM664 1872h24q87 0 83 -23q-1 -3 -3 -6l-193 -262q-8 -11 -22.5 -14.5t-50.5 -3.5h-17q-64 0 -64 16q0 3 3 8l149 262q13 23 91 23z" />
    <glyph glyph-name="sacute" unicode="&#x15b;" horiz-adv-x="937" 
d="M807 915l-14 -20q-26 -37 -39.5 -45t-22.5 4q-64 44 -119 67t-118 23q-48 0 -91 -11.5t-78.5 -46t-35.5 -87.5q0 -32 14 -57.5t31 -40.5t52 -29.5t55 -20t61 -16.5q60 -15 101.5 -29t91.5 -40t80.5 -57.5t51.5 -80.5t21 -111q0 -158 -117 -247.5t-293 -89.5
q-93 0 -183.5 29t-152.5 73q-14 13 -12 24.5t21 49.5l10 22q20 42 30.5 49t30.5 -6q142 -82 267 -82q37 0 75 9.5t72.5 28.5t56 52.5t21.5 75.5q0 39 -20.5 69t-60 49.5t-73 30t-82.5 21.5q-172 40 -243 105q-82 76 -82 198q0 146 110 235t269 89q95 0 180 -30.5t143 -82.5
q27 -24 -8 -74zM584 1499h24q87 0 83 -23q-1 -3 -3 -6l-192 -262q-11 -18 -74 -18h-16q-66 0 -65 17q0 3 3 7l150 263q13 22 90 22z" />
    <glyph glyph-name="Scircumflex" unicode="&#x15c;" horiz-adv-x="1062" 
d="M903 1319l-10 -19q-16 -28 -31.5 -37.5t-25.5 -2.5q-109 71 -256 71q-122 0 -186 -63.5t-64 -153.5q0 -48 22.5 -88t60.5 -70t87 -57t103.5 -53.5t108.5 -55.5t103 -66t87 -81t60.5 -106t22.5 -136q0 -192 -122 -306.5t-349 -114.5q-126 0 -235.5 31.5t-178.5 84.5
q-24 21 13 84l14 25q14 24 31 34.5t26 4.5q67 -46 153.5 -73.5t154.5 -27.5q131 0 216 62t85 172q0 56 -22.5 102.5t-60 79.5t-87 61.5t-103.5 54t-108 52.5t-103.5 61t-87 74t-60 97.5t-22.5 127.5q0 187 123 297.5t303 110.5q94 0 192.5 -27.5t157.5 -76.5q18 -15 -12 -72
zM260 1636l186 199q24 27 91 27h77q68 0 93 -29l182 -193q17 -17 -21 -59l-16 -18q-13 -17 -29.5 -24t-23.5 1l-226 197l-229 -195q-6 -7 -20 -0.5t-29 23.5l-14 16q-35 38 -21 55z" />
    <glyph glyph-name="scircumflex" unicode="&#x15d;" horiz-adv-x="937" 
d="M807 915l-14 -20q-26 -37 -39.5 -45t-22.5 4q-64 44 -119 67t-118 23q-48 0 -91 -11.5t-78.5 -46t-35.5 -87.5q0 -32 14 -57.5t31 -40.5t52 -29.5t55 -20t61 -16.5q60 -15 101.5 -29t91.5 -40t80.5 -57.5t51.5 -80.5t21 -111q0 -158 -117 -247.5t-293 -89.5
q-93 0 -183.5 29t-152.5 73q-14 13 -12 24.5t21 49.5l10 22q20 42 30.5 49t30.5 -6q142 -82 267 -82q37 0 75 9.5t72.5 28.5t56 52.5t21.5 75.5q0 39 -20.5 69t-60 49.5t-73 30t-82.5 21.5q-172 40 -243 105q-82 76 -82 198q0 146 110 235t269 89q95 0 180 -30.5t143 -82.5
q27 -24 -8 -74zM178 1284l187 199q23 26 90 26h77q69 0 93 -28l182 -193q17 -17 -21 -59l-16 -19q-13 -17 -29.5 -23.5t-23.5 1.5l-225 196l-230 -194q-5 -7 -20 -1t-29 23l-14 17q-35 38 -21 55z" />
    <glyph glyph-name="Scedilla" unicode="&#x15e;" horiz-adv-x="1062" 
d="M903 1319l-10 -19q-16 -28 -31.5 -37.5t-25.5 -2.5q-109 71 -256 71q-122 0 -186 -63.5t-64 -153.5q0 -48 22.5 -88t60.5 -70t87 -57t103.5 -53.5t108.5 -55.5t103 -66t87 -81t60.5 -106t22.5 -136q0 -181 -108 -293.5t-308 -125.5l-4 -66q12 2 35 2q81 0 133.5 -44.5
t52.5 -127.5t-61 -142t-180 -59q-83 0 -156 25q-18 7 -8 47l8 33q4 20 12 30t17 7q60 -17 110 -17q41 0 67 17.5t26 50.5q0 34 -23.5 46.5t-79.5 12.5q-72 0 -121 -6l25 193q-205 22 -322 112q-24 21 13 84l14 25q14 24 31 34.5t26 4.5q67 -46 153.5 -73.5t154.5 -27.5
q131 0 216 62t85 172q0 56 -22.5 102.5t-60 79.5t-87 61.5t-103.5 54t-108 52.5t-103.5 61t-87 74t-60 97.5t-22.5 127.5q0 187 123 297.5t303 110.5q94 0 192.5 -27.5t157.5 -76.5q18 -15 -12 -72z" />
    <glyph glyph-name="scedilla" unicode="&#x15f;" horiz-adv-x="937" 
d="M807 915l-14 -20q-26 -37 -39.5 -45t-22.5 4q-64 44 -119 67t-118 23q-48 0 -91 -11.5t-78.5 -46t-35.5 -87.5q0 -32 14 -57.5t31 -40.5t52 -29.5t55 -20t61 -16.5q60 -15 101.5 -29t91.5 -40t80.5 -57.5t51.5 -80.5t21 -111q0 -144 -96.5 -231.5t-249.5 -101.5l-4 -68
q12 2 34 2q81 0 134 -44.5t53 -127.5t-61.5 -142t-180.5 -59q-82 0 -155 25q-19 8 -9 47l9 33q5 20 12 30t16 7q60 -17 111 -17q41 0 66.5 17.5t25.5 50.5q0 34 -23 46.5t-79 12.5q-71 0 -121 -6l24 195q-145 20 -252 96q-14 13 -12 24.5t21 49.5l10 22q20 42 30.5 49
t30.5 -6q142 -82 267 -82q37 0 75 9.5t72.5 28.5t56 52.5t21.5 75.5q0 39 -20.5 69t-60 49.5t-73 30t-82.5 21.5q-172 40 -243 105q-82 76 -82 198q0 146 110 235t269 89q95 0 180 -30.5t143 -82.5q27 -24 -8 -74z" />
    <glyph glyph-name="Scaron" unicode="&#x160;" horiz-adv-x="1062" 
d="M903 1319l-10 -19q-16 -28 -31.5 -37.5t-25.5 -2.5q-109 71 -256 71q-122 0 -186 -63.5t-64 -153.5q0 -48 22.5 -88t60.5 -70t87 -57t103.5 -53.5t108.5 -55.5t103 -66t87 -81t60.5 -106t22.5 -136q0 -192 -122 -306.5t-349 -114.5q-126 0 -235.5 31.5t-178.5 84.5
q-24 21 13 84l14 25q14 24 31 34.5t26 4.5q67 -46 153.5 -73.5t154.5 -27.5q131 0 216 62t85 172q0 56 -22.5 102.5t-60 79.5t-87 61.5t-103.5 54t-108 52.5t-103.5 61t-87 74t-60 97.5t-22.5 127.5q0 187 123 297.5t303 110.5q94 0 192.5 -27.5t157.5 -76.5q18 -15 -12 -72
zM264 1829l17 18q14 16 32 25t25 2l229 -201l224 195q7 6 21.5 0t29.5 -23l12 -14q34 -36 18 -55l-186 -199q-24 -27 -90 -27h-78q-67 0 -92 29l-182 193q-16 16 20 57z" />
    <glyph glyph-name="scaron" unicode="&#x161;" horiz-adv-x="937" 
d="M807 915l-14 -20q-26 -37 -39.5 -45t-22.5 4q-64 44 -119 67t-118 23q-48 0 -91 -11.5t-78.5 -46t-35.5 -87.5q0 -32 14 -57.5t31 -40.5t52 -29.5t55 -20t61 -16.5q60 -15 101.5 -29t91.5 -40t80.5 -57.5t51.5 -80.5t21 -111q0 -158 -117 -247.5t-293 -89.5
q-93 0 -183.5 29t-152.5 73q-14 13 -12 24.5t21 49.5l10 22q20 42 30.5 49t30.5 -6q142 -82 267 -82q37 0 75 9.5t72.5 28.5t56 52.5t21.5 75.5q0 39 -20.5 69t-60 49.5t-73 30t-82.5 21.5q-172 40 -243 105q-82 76 -82 198q0 146 110 235t269 89q95 0 180 -30.5t143 -82.5
q27 -24 -8 -74zM193 1456l16 19q14 16 32 24.5t25 1.5l230 -201l223 195q7 7 21.5 1t29.5 -23l12 -15q34 -37 19 -55l-187 -199q-23 -26 -90 -26h-78q-68 0 -92 28l-182 193q-15 15 21 57z" />
    <glyph glyph-name="Tcommaaccent" unicode="&#x162;" horiz-adv-x="1048" 
d="M47 1475h954q19 0 19 -68v-25q0 -69 -19 -69h-380v-1290q0 -23 -89 -23h-22q-84 0 -84 23v1290h-379q-18 0 -18 69v25q0 68 18 68zM414 -600l-19 20q-22 25 -2 45q96 96 96 166q0 23 -11.5 41t-25 29t-25 32.5t-11.5 49.5q0 42 31.5 69t74.5 27q55 0 88 -37t33 -94
q0 -98 -49 -192.5t-133 -159.5q-24 -16 -47 4z" />
    <glyph glyph-name="tcommaaccent" unicode="&#x163;" horiz-adv-x="753" 
d="M287 1384h12q39 0 58 -3.5t22.5 -7.5t3.5 -13v-279h258q11 0 14.5 -12t3.5 -51v-17q0 -40 -3.5 -52.5t-14.5 -12.5h-258v-604q0 -123 33 -158q34 -37 104 -37q47 0 139 27q15 4 22 -4t15 -37l6 -27q8 -32 7 -45t-13 -20q-37 -24 -96.5 -37.5t-118.5 -13.5q-135 0 -205 67
q-43 40 -60 102t-17 168v619h-129q-11 0 -15 12.5t-4 52.5v17q0 38 4 50.5t15 12.5h129v279q0 9 4.5 13.5t24 7.5t59.5 3zM350 -600l-18 20q-22 25 -2 45q96 96 96 166q0 23 -11.5 41t-25.5 29t-25.5 32.5t-11.5 49.5q0 41 32 68.5t75 27.5q55 0 88 -37t33 -94
q0 -98 -49.5 -192.5t-133.5 -159.5q-24 -16 -47 4z" />
    <glyph glyph-name="Tcaron" unicode="&#x164;" horiz-adv-x="1048" 
d="M47 1475h954q19 0 19 -68v-25q0 -69 -19 -69h-380v-1290q0 -23 -89 -23h-22q-84 0 -84 23v1290h-379q-18 0 -18 69v25q0 68 18 68zM231 1849l17 19q14 16 32 24.5t25 1.5l230 -200l223 194q7 7 21.5 1t29.5 -23l12 -15q34 -37 19 -55l-187 -199q-23 -26 -90 -26h-78
q-68 0 -92 28l-182 193q-16 16 20 57z" />
    <glyph glyph-name="tcaron" unicode="&#x165;" horiz-adv-x="753" 
d="M287 1384h12q39 0 58 -3.5t22.5 -7.5t3.5 -13v-279h258q11 0 14.5 -12t3.5 -51v-17q0 -40 -3.5 -52.5t-14.5 -12.5h-258v-604q0 -123 33 -158q34 -37 104 -37q47 0 139 27q15 4 22 -4t15 -37l6 -27q8 -32 7 -45t-13 -20q-37 -24 -96.5 -37.5t-118.5 -13.5q-135 0 -205 67
q-43 40 -60 102t-17 168v619h-129q-11 0 -15 12.5t-4 52.5v17q0 38 4 50.5t15 12.5h129v279q0 9 4.5 13.5t24 7.5t59.5 3zM524 1223l-18 20q-22 25 -2 45q96 96 96 166q0 22 -11.5 40.5t-25.5 29.5t-25.5 32.5t-11.5 49.5q0 41 32 68.5t75 27.5q55 0 88 -37t33 -94
q0 -98 -49.5 -192.5t-133.5 -159.5q-24 -16 -47 4z" />
    <glyph glyph-name="Tbar" unicode="&#x166;" horiz-adv-x="1048" 
d="M201 815h225v498h-379q-18 0 -18 69v25q0 68 18 68h954q19 0 19 -68v-25q0 -69 -19 -69h-380v-498h225q20 0 20 -59v-15q0 -65 -20 -65h-225v-653q0 -23 -89 -23h-22q-84 0 -84 23v653h-225q-21 0 -21 65v15q0 59 21 59z" />
    <glyph glyph-name="tbar" unicode="&#x167;" horiz-adv-x="753" 
d="M287 1384h12q39 0 58 -3.5t22.5 -7.5t3.5 -13v-279h258q11 0 14.5 -12t3.5 -51v-17q0 -40 -3.5 -52.5t-14.5 -12.5h-258v-313h217q18 0 18 -66q0 -65 -18 -65h-217v-160q0 -123 33 -158q34 -37 104 -37q47 0 139 27q15 4 22 -4t15 -37l6 -27q8 -32 7 -45t-13 -20
q-37 -24 -96.5 -37.5t-118.5 -13.5q-135 0 -205 67q-43 40 -60 102t-17 168v175h-123q-19 0 -19 65q0 66 19 66h123v313h-129q-11 0 -15 12.5t-4 52.5v17q0 38 4 50.5t15 12.5h129v279q0 9 4.5 13.5t24 7.5t59.5 3z" />
    <glyph glyph-name="Utilde" unicode="&#x168;" horiz-adv-x="1388" 
d="M233 1475h23q88 0 88 -23v-901q0 -212 88 -310t262 -98q169 0 259.5 103.5t90.5 302.5v903q0 23 84 23h23q88 0 88 -23v-879q0 -301 -137.5 -447t-415.5 -146q-268 0 -402 135t-134 422v915q0 23 83 23zM412 1634l-15 21q-29 40 -16 55q35 42 86.5 69t110.5 27
q51 0 92.5 -19t77 -37.5t73.5 -18.5q54 0 105 55q14 14 53 -31l12 -16q12 -15 17.5 -31.5t-0.5 -24.5q-33 -44 -83.5 -75t-107.5 -31q-52 0 -124.5 38t-119.5 38q-59 0 -108 -56q-15 -15 -53 37z" />
    <glyph glyph-name="utilde" unicode="&#x169;" horiz-adv-x="1189" 
d="M223 1081h17q38 0 57 -3t24 -7.5t5 -13.5v-537q0 -132 9.5 -197t41.5 -104q57 -69 182 -69q63 0 125.5 19.5t97.5 53.5q35 33 50.5 101t15.5 227v506q0 24 82 24h18q50 0 67 -5.5t17 -18.5v-699q0 -80 2 -199.5t2 -133.5q0 -9 -4.5 -14t-23 -8t-56.5 -3h-8q-51 0 -67.5 6
t-16.5 19l-4 88h-2q-120 -133 -340 -133q-170 0 -272 108q-54 56 -77.5 139t-23.5 209v621q0 8 4 12.5t22.5 8t55.5 3.5zM313 1303l-14 20q-29 40 -16 55q82 97 196 97q51 0 92.5 -19t77.5 -38t74 -19q53 0 104 55q15 15 54 -31l12 -16q12 -15 17 -31t-1 -24
q-33 -45 -83 -76t-107 -31q-52 0 -124.5 38t-119.5 38q-60 0 -108 -55q-15 -15 -54 37z" />
    <glyph glyph-name="Umacron" unicode="&#x16a;" horiz-adv-x="1388" 
d="M233 1475h23q88 0 88 -23v-901q0 -212 88 -310t262 -98q169 0 259.5 103.5t90.5 302.5v903q0 23 84 23h23q88 0 88 -23v-879q0 -301 -137.5 -447t-415.5 -146q-268 0 -402 135t-134 422v915q0 23 83 23zM412 1790h563q20 0 20 -59v-25q0 -66 -20 -66h-563q-21 0 -21 66
v25q0 59 21 59z" />
    <glyph glyph-name="umacron" unicode="&#x16b;" horiz-adv-x="1189" 
d="M223 1081h17q38 0 57 -3t24 -7.5t5 -13.5v-537q0 -132 9.5 -197t41.5 -104q57 -69 182 -69q63 0 125.5 19.5t97.5 53.5q35 33 50.5 101t15.5 227v506q0 24 82 24h18q50 0 67 -5.5t17 -18.5v-699q0 -80 2 -199.5t2 -133.5q0 -9 -4.5 -14t-23 -8t-56.5 -3h-8q-51 0 -67.5 6
t-16.5 19l-4 88h-2q-120 -133 -340 -133q-170 0 -272 108q-54 56 -77.5 139t-23.5 209v621q0 8 4 12.5t22.5 8t55.5 3.5zM313 1419h564q20 0 20 -59v-25q0 -65 -20 -65h-564q-20 0 -20 65v25q0 59 20 59z" />
    <glyph glyph-name="Ubreve" unicode="&#x16c;" horiz-adv-x="1388" 
d="M233 1475h23q88 0 88 -23v-901q0 -212 88 -310t262 -98q169 0 259.5 103.5t90.5 302.5v903q0 23 84 23h23q88 0 88 -23v-879q0 -301 -137.5 -447t-415.5 -146q-268 0 -402 135t-134 422v915q0 23 83 23zM455 1868h24q59 0 62 -21q6 -58 46 -89.5t105 -31.5q64 0 104 32
t48 89q3 21 61 21h27q65 0 65 -21q-7 -121 -90 -182t-219 -61q-132 0 -212 60t-87 183q0 21 66 21z" />
    <glyph glyph-name="ubreve" unicode="&#x16d;" horiz-adv-x="1189" 
d="M223 1081h17q38 0 57 -3t24 -7.5t5 -13.5v-537q0 -132 9.5 -197t41.5 -104q57 -69 182 -69q63 0 125.5 19.5t97.5 53.5q35 33 50.5 101t15.5 227v506q0 24 82 24h18q50 0 67 -5.5t17 -18.5v-699q0 -80 2 -199.5t2 -133.5q0 -9 -4.5 -14t-23 -8t-56.5 -3h-8q-51 0 -67.5 6
t-16.5 19l-4 88h-2q-120 -133 -340 -133q-170 0 -272 108q-54 56 -77.5 139t-23.5 209v621q0 8 4 12.5t22.5 8t55.5 3.5zM356 1479h25q58 0 61 -21q6 -58 46.5 -89.5t105.5 -31.5q64 0 103.5 32t47.5 89q3 21 62 21h27q65 0 65 -21q-7 -121 -90.5 -182.5t-218.5 -61.5
q-132 0 -212 60.5t-87 183.5q0 21 65 21z" />
    <glyph glyph-name="Uring" unicode="&#x16e;" horiz-adv-x="1388" 
d="M233 1475h23q88 0 88 -23v-901q0 -212 88 -310t262 -98q169 0 259.5 103.5t90.5 302.5v903q0 23 84 23h23q88 0 88 -23v-879q0 -301 -137.5 -447t-415.5 -146q-268 0 -402 135t-134 422v915q0 23 83 23zM502 1704q0 76 57 130t135 54q79 0 136 -53.5t57 -130.5
t-57 -130.5t-136 -53.5q-78 0 -135 54t-57 130zM608 1704q0 -38 25 -62t61 -24t60 25t24 61t-24 61t-60 25t-61 -24t-25 -62z" />
    <glyph glyph-name="uring" unicode="&#x16f;" horiz-adv-x="1189" 
d="M223 1081h17q38 0 57 -3t24 -7.5t5 -13.5v-537q0 -132 9.5 -197t41.5 -104q57 -69 182 -69q63 0 125.5 19.5t97.5 53.5q35 33 50.5 101t15.5 227v506q0 24 82 24h18q50 0 67 -5.5t17 -18.5v-699q0 -80 2 -199.5t2 -133.5q0 -9 -4.5 -14t-23 -8t-56.5 -3h-8q-51 0 -67.5 6
t-16.5 19l-4 88h-2q-120 -133 -340 -133q-170 0 -272 108q-54 56 -77.5 139t-23.5 209v621q0 8 4 12.5t22.5 8t55.5 3.5zM401 1368q0 76 57 130t136 54t135.5 -53.5t56.5 -130.5t-56.5 -130.5t-135.5 -53.5t-136 54t-57 130zM508 1368q0 -38 25 -62t61 -24t60 25t24 61
t-24 61t-60 25t-61 -24t-25 -62z" />
    <glyph glyph-name="Uhungarumlaut" unicode="&#x170;" horiz-adv-x="1388" 
d="M233 1475h23q88 0 88 -23v-901q0 -212 88 -310t262 -98q169 0 259.5 103.5t90.5 302.5v903q0 23 84 23h23q88 0 88 -23v-879q0 -301 -137.5 -447t-415.5 -146q-268 0 -402 135t-134 422v915q0 23 83 23zM580 1872h20q83 0 81 -21l-3 -8l-172 -262q-11 -20 -70 -20h-16
q-61 0 -61 16q0 4 3 10l132 262q10 23 86 23zM924 1872h20q83 0 81 -21l-3 -8l-172 -262q-11 -20 -70 -20h-16q-29 0 -43.5 3t-16 9t2.5 14l131 262q10 23 86 23z" />
    <glyph glyph-name="uhungarumlaut" unicode="&#x171;" horiz-adv-x="1189" 
d="M223 1081h17q38 0 57 -3t24 -7.5t5 -13.5v-537q0 -132 9.5 -197t41.5 -104q57 -69 182 -69q63 0 125.5 19.5t97.5 53.5q35 33 50.5 101t15.5 227v506q0 24 82 24h18q50 0 67 -5.5t17 -18.5v-699q0 -80 2 -199.5t2 -133.5q0 -9 -4.5 -14t-23 -8t-56.5 -3h-8q-51 0 -67.5 6
t-16.5 19l-4 88h-2q-120 -133 -340 -133q-170 0 -272 108q-54 56 -77.5 139t-23.5 209v621q0 8 4 12.5t22.5 8t55.5 3.5zM502 1499h20q83 0 81 -21l-3 -8l-172 -262q-11 -20 -70 -20h-16q-29 0 -43.5 3t-16 9t2.5 14l131 263q9 22 86 22zM846 1499h20q83 0 81 -21l-3 -8
l-172 -262q-11 -20 -70 -20h-16q-29 0 -43.5 3t-16 9t2.5 14l131 263q9 22 86 22z" />
    <glyph glyph-name="Uogonek" unicode="&#x172;" horiz-adv-x="1388" 
d="M233 1475h23q88 0 88 -23v-901q0 -212 88 -310t262 -98q169 0 259.5 103.5t90.5 302.5v903q0 23 84 23h23q88 0 88 -23v-883q0 -176 -45.5 -276.5t-149.5 -188.5q-20 -17 -92 -71t-114 -94q-70 -70 -70 -140q0 -46 28 -71t74 -25q32 0 82 12q10 2 16 -6.5t13 -38.5l4 -18
q10 -49 -4 -55q-71 -29 -147 -29q-106 0 -167 51t-61 137q0 61 31.5 120.5t87.5 103.5h-37q-268 0 -403 136t-135 421v915q0 23 83 23z" />
    <glyph glyph-name="uogonek" unicode="&#x173;" horiz-adv-x="1189" 
d="M655 -244q0 176 205 275l-4 82h-2q-120 -133 -340 -133q-170 0 -272 108q-54 56 -77.5 139t-23.5 209v621q0 8 4 12.5t22.5 8t55.5 3.5h17q38 0 57 -3t24 -7.5t5 -13.5v-537q0 -132 9.5 -197t41.5 -104q57 -69 182 -69q63 0 125.5 19.5t97.5 53.5q35 33 50.5 101
t15.5 227v506q0 24 82 24h18q50 0 67 -5.5t17 -18.5v-699q0 -80 2 -197t2 -132q0 -22 -24 -27q-76 -14 -135.5 -75t-59.5 -136q0 -88 101 -88q48 0 83 12q10 3 16.5 -7.5t12.5 -37.5l4 -18q10 -49 -4 -55q-71 -29 -147 -29q-109 0 -168.5 55t-59.5 133z" />
    <glyph glyph-name="Wcircumflex" unicode="&#x174;" horiz-adv-x="1951" 
d="M147 1475h29q90 0 96 -25l303 -1255l299 1257q6 23 93 23h47q86 0 92 -23l307 -1257l295 1255q6 25 86 25h23q87 0 81 -25l-366 -1430q-6 -22 -96 -22h-62q-88 0 -94 22l-295 1209l-285 -1204q-7 -27 -96 -27h-63q-88 0 -95 27l-389 1425q-6 25 90 25zM659 1677l187 199
q24 27 90 27h78q67 0 92 -29l182 -193q18 -18 -20 -59l-17 -18q-13 -17 -29.5 -24t-23.5 1l-225 197l-230 -195q-6 -7 -20 -0.5t-29 23.5l-14 16q-35 38 -21 55z" />
    <glyph glyph-name="wcircumflex" unicode="&#x175;" horiz-adv-x="1591" 
d="M236 1059l231 -846l217 840q5 16 22 22t70 6h43q47 0 63 -6t21 -22l225 -842q57 181 88.5 287t70.5 262t63 297q2 13 19 18.5t73 5.5q58 0 74 -7t10 -34q-104 -476 -295 -1009q-6 -17 -28.5 -24t-72.5 -7h-30q-85 0 -94 29l-129 481q-39 142 -86 369q-27 -145 -89 -371
l-127 -481q-5 -15 -25.5 -21t-74.5 -6h-18q-61 0 -82.5 5.5t-26.5 21.5l-305 1026q-4 18 12 23t70 5q61 0 83.5 -5t27.5 -17zM479 1284l187 199q23 26 90 26h78q68 0 92 -28l182 -193q17 -17 -21 -59l-16 -19q-13 -17 -29.5 -23.5t-23.5 1.5l-225 196l-230 -194
q-5 -7 -20 -1t-29 23l-14 17q-35 38 -21 55z" />
    <glyph glyph-name="Ycircumflex" unicode="&#x176;" horiz-adv-x="1112" 
d="M111 1475h30q87 0 99 -23l325 -692l320 692q11 23 94 23h22q86 0 87 -21q0 -2 -1 -4l-438 -879v-548q0 -23 -88 -23h-22q-84 0 -84 23v548l-435 879q-6 13 25 19q25 6 66 6zM254 1677l186 199q24 27 90 27h78q67 0 92 -29l183 -193q17 -17 -21 -59l-16 -18
q-13 -17 -29.5 -24t-23.5 1l-226 197l-229 -195q-6 -7 -20 -0.5t-29 23.5l-15 16q-35 37 -20 55z" />
    <glyph glyph-name="ycircumflex" unicode="&#x177;" horiz-adv-x="1038" 
d="M238 1059l192 -510q74 -197 113 -350q26 105 104 336l182 524q4 13 24 17.5t69 4.5q61 0 80.5 -5.5t13.5 -22.5l-387 -1078q-79 -225 -174 -327q-117 -125 -305 -125q-95 0 -164 37q-16 8 -16 23t10 42l8 25q12 37 20 46t25 5q67 -18 110 -18q103 0 170 67t131 238
l-407 1065q-7 18 12 23t84 5q97 0 105 -22zM227 1284l187 199q23 26 90 26h78q68 0 92 -28l182 -193q18 -18 -20 -59l-17 -19q-13 -17 -29.5 -23.5t-23.5 1.5l-225 196l-230 -194q-5 -7 -20 -1t-29 23l-14 17q-35 38 -21 55z" />
    <glyph glyph-name="Ydieresis" unicode="&#x178;" horiz-adv-x="1112" 
d="M111 1475h30q87 0 99 -23l325 -692l320 692q11 23 94 23h22q86 0 87 -21q0 -2 -1 -4l-438 -879v-548q0 -23 -88 -23h-22q-84 0 -84 23v548l-435 879q-6 13 25 19q25 6 66 6zM209 1663q0 49 33.5 83t83.5 34q49 0 82.5 -33.5t33.5 -83.5t-33.5 -83.5t-82.5 -33.5
q-50 0 -83.5 34t-33.5 83zM686 1663q0 49 34 83t83 34t83 -34t34 -83t-34 -83t-83 -34t-83 34t-34 83z" />
    <glyph glyph-name="Zacute" unicode="&#x179;" horiz-adv-x="1120" 
d="M143 1475h815q41 0 56.5 -6t15.5 -23v-88q0 -32 -43 -103l-682 -1091h723q19 0 19 -68v-24q0 -72 -19 -72h-872q-40 0 -56 7t-16 22v88q0 46 37 104l684 1092h-662q-10 0 -14 16t-4 60v14q0 72 18 72zM668 1872h24q87 0 83 -23q-1 -3 -3 -6l-192 -262q-8 -11 -23 -14.5
t-51 -3.5h-17q-64 0 -64 16q0 3 3 8l150 262q13 23 90 23z" />
    <glyph glyph-name="zacute" unicode="&#x17a;" horiz-adv-x="931" 
d="M125 1081h698q19 0 19 -57v-14q0 -44 -17 -70l-510 -782h521q11 0 14.5 -13t3.5 -53v-29q0 -39 -3.5 -51t-14.5 -12h-736q-10 0 -14 12t-4 45v19q0 38 16 65l510 783h-483q-11 0 -15 12.5t-4 52.5v29q0 38 4 50.5t15 12.5zM573 1499h25q87 0 83 -23q-1 -3 -3 -6
l-193 -262q-11 -18 -73 -18h-17q-64 0 -64 16q0 3 3 8l149 263q13 22 90 22z" />
    <glyph glyph-name="Zdotaccent" unicode="&#x17b;" horiz-adv-x="1120" 
d="M143 1475h815q41 0 56.5 -6t15.5 -23v-88q0 -32 -43 -103l-682 -1091h723q19 0 19 -68v-24q0 -72 -19 -72h-872q-40 0 -56 7t-16 22v88q0 46 37 104l684 1092h-662q-10 0 -14 16t-4 60v14q0 72 18 72zM487 1724q0 47 35 81t82 34t81 -34t34 -81t-34 -81.5t-81 -34.5
t-82 34.5t-35 81.5z" />
    <glyph glyph-name="zdotaccent" unicode="&#x17c;" horiz-adv-x="931" 
d="M125 1081h698q19 0 19 -57v-14q0 -44 -17 -70l-510 -782h521q11 0 14.5 -13t3.5 -53v-29q0 -39 -3.5 -51t-14.5 -12h-736q-10 0 -14 12t-4 45v19q0 38 16 65l510 783h-483q-11 0 -15 12.5t-4 52.5v29q0 38 4 50.5t15 12.5zM373 1356q0 47 34.5 80.5t81.5 33.5t81 -33.5
t34 -80.5t-34 -82t-81 -35t-81.5 35t-34.5 82z" />
    <glyph glyph-name="Zcaron" unicode="&#x17d;" horiz-adv-x="1120" 
d="M143 1475h815q41 0 56.5 -6t15.5 -23v-88q0 -32 -43 -103l-682 -1091h723q19 0 19 -68v-24q0 -72 -19 -72h-872q-40 0 -56 7t-16 22v88q0 46 37 104l684 1092h-662q-10 0 -14 16t-4 60v14q0 72 18 72zM287 1829l16 18q14 16 32 25t25 2l230 -201l223 195q7 6 21.5 0
t29.5 -23l13 -14q34 -36 18 -55l-186 -199q-24 -27 -91 -27h-77q-67 0 -92 29l-183 193q-15 15 21 57z" />
    <glyph glyph-name="zcaron" unicode="&#x17e;" horiz-adv-x="931" 
d="M125 1081h698q19 0 19 -57v-14q0 -44 -17 -70l-510 -782h521q11 0 14.5 -13t3.5 -53v-29q0 -39 -3.5 -51t-14.5 -12h-736q-10 0 -14 12t-4 45v19q0 38 16 65l510 783h-483q-11 0 -15 12.5t-4 52.5v29q0 38 4 50.5t15 12.5zM190 1456l17 19q14 16 32 24.5t25 1.5l230 -201
l223 195q7 7 21.5 1t29.5 -23l12 -15q34 -37 19 -55l-187 -199q-23 -26 -90 -26h-78q-68 0 -92 28l-182 193q-16 16 20 57z" />
    <glyph glyph-name="longs" unicode="&#x17f;" horiz-adv-x="614" 
d="M393 1133v-1108q0 -9 -3.5 -13t-22.5 -8t-58 -4h-12q-39 0 -59 3t-24.5 8t-4.5 14v911h-129q-11 0 -15 12.5t-4 50.5v17q0 40 4 52.5t15 12.5h129v49q0 219 93 333t280 114q107 0 206 -45q9 -5 9.5 -18t-9.5 -54l-2 -8q-9 -39 -16.5 -51t-19.5 -8q-85 30 -162 30
q-111 0 -153 -71.5t-42 -218.5z" />
    <glyph glyph-name="florin" unicode="&#x192;" 
d="M274 897h224l12 102q63 496 414 496q78 0 153 -33q19 -8 2 -69l-6 -21q-8 -28 -19 -45t-20 -14q-52 20 -106 20q-103 0 -155.5 -81.5t-72.5 -239.5l-14 -115h254q10 0 14 -12t4 -45v-27q0 -34 -4 -46.5t-14 -12.5h-272l-56 -455q-16 -124 -41.5 -213t-70 -162.5
t-116.5 -111t-171 -37.5q-110 0 -182 37q-21 9 0 71l8 23q9 27 19.5 41.5t19.5 11.5q55 -22 121 -22q103 0 152.5 82.5t70.5 259.5l57 475h-205q-10 0 -14 12.5t-4 46.5v27q0 33 4 45t14 12z" />
    <glyph glyph-name="Acaron" unicode="&#x1cd;" horiz-adv-x="1327" 
d="M641 1475h39q83 0 92 -23l508 -1429q3 -22 -88 -23h-31q-85 0 -94 23l-121 360h-577l-121 -360q-9 -23 -90 -23h-27q-93 0 -84 23l500 1429q5 12 25 17.5t69 5.5zM655 1270l-239 -725h481zM367 1849l16 19q14 16 32 24.5t25 1.5l230 -200l223 194q7 7 21.5 1t29.5 -23
l12 -15q34 -37 19 -55l-187 -199q-23 -26 -90 -26h-77q-69 0 -93 28l-182 193q-15 15 21 57z" />
    <glyph glyph-name="acaron" unicode="&#x1ce;" horiz-adv-x="1161" 
d="M924 1081h4q38 0 55.5 -3t21 -7t3.5 -14q0 -14 -2 -125t-2 -187v-286q0 -170 14 -434q0 -13 -15 -19t-59 -6h-8q-46 0 -61 5.5t-17 19.5l-12 94q-51 -62 -135 -100.5t-181 -38.5q-109 0 -194 43t-137.5 118t-79.5 171.5t-27 209.5q0 259 133 419.5t338 160.5
q88 0 160 -36t117 -95l10 86q1 18 13 21t61 3zM819 506v291q-37 59 -101.5 99t-133.5 40q-140 0 -219.5 -109t-79.5 -295q0 -77 14.5 -143t45 -123t86.5 -90t132 -33q130 0 205 80q32 35 41.5 91t9.5 192zM287 1456l16 19q14 16 32 24.5t25 1.5l230 -201l223 195q7 7 21.5 1
t29.5 -23l13 -15q34 -36 18 -55l-186 -199q-23 -26 -91 -26h-77q-68 0 -92 28l-183 193q-15 15 21 57z" />
    <glyph glyph-name="Aringacute" unicode="&#x1fa;" horiz-adv-x="1327" 
d="M774 1442l506 -1419q3 -22 -88 -23h-31q-85 0 -94 23l-121 360h-577l-121 -360q-9 -23 -90 -23h-27q-93 0 -84 23l498 1425q-74 54 -74 145q0 76 57.5 130.5t135.5 54.5q79 0 135.5 -54t56.5 -131q0 -46 -22 -86t-60 -65zM655 1270l-239 -725h481zM578 1593q0 -38 25 -62
t61 -24t60 25t24 61t-24 61t-60 25t-61 -24t-25 -62zM735 2130h25q87 0 83 -23l-3 -6l-193 -262q-11 -18 -74 -18h-16q-64 0 -64 16q0 3 3 8l149 262q13 23 90 23z" />
    <glyph glyph-name="aringacute" unicode="&#x1fb;" horiz-adv-x="1161" 
d="M924 1081h4q38 0 55.5 -3t21 -7t3.5 -14q0 -14 -2 -125t-2 -187v-286q0 -170 14 -434q0 -13 -15 -19t-59 -6h-8q-46 0 -61 5.5t-17 19.5l-12 94q-51 -62 -135 -100.5t-181 -38.5q-109 0 -194 43t-137.5 118t-79.5 171.5t-27 209.5q0 259 133 419.5t338 160.5
q88 0 160 -36t117 -95l10 86q1 18 13 21t61 3zM819 506v291q-37 59 -101.5 99t-133.5 40q-140 0 -219.5 -109t-79.5 -295q0 -77 14.5 -143t45 -123t86.5 -90t132 -33q130 0 205 80q32 35 41.5 91t9.5 192zM647 1886h25q88 0 83 -23q-1 -2 -3 -5l-193 -263q-11 -18 -74 -18
h-16q-66 0 -64 17l3 8l149 262q13 22 90 22zM381 1348q0 76 57 130t135 54q79 0 136 -53.5t57 -130.5t-57 -131t-136 -54q-78 0 -135 54.5t-57 130.5zM487 1348q0 -38 25 -62t61 -24t60 25t24 61t-24 61t-60 25t-61 -24t-25 -62z" />
    <glyph glyph-name="AEacute" unicode="&#x1fc;" horiz-adv-x="1826" 
d="M920 1475h776q18 0 18 -68v-25q0 -69 -18 -69h-604v-486h510q18 0 18 -67v-25q0 -69 -18 -69h-510v-502h612q18 0 18 -68v-26q0 -70 -18 -70h-807v393h-469l-205 -370q-13 -23 -94 -23h-29q-86 0 -93 18q-1 2 1 5l813 1421q10 16 31 23.5t68 7.5zM897 1237l-379 -682h379
v682zM1337 1872h25q87 0 83 -23q-1 -3 -3 -6l-193 -262q-8 -11 -22.5 -14.5t-50.5 -3.5h-17q-64 0 -64 16q0 3 3 8l149 262q13 23 90 23z" />
    <glyph glyph-name="aeacute" unicode="&#x1fd;" horiz-adv-x="1755" 
d="M172 932l-8 26q-20 60 0 70q67 35 164.5 54.5t187.5 19.5q261 0 358 -168q130 168 355 168q129 0 221 -59.5t145 -165.5q66 -138 66 -328q0 -45 -4.5 -59.5t-16.5 -14.5h-700q9 -177 98 -254q80 -74 234 -74q133 0 264 60q9 4 16.5 5t16.5 -9.5t18 -34.5l10 -25
q17 -38 17.5 -53.5t-12.5 -21.5q-152 -88 -365 -88q-261 0 -387 167q-76 -76 -166.5 -121.5t-226.5 -45.5q-73 0 -138.5 21.5t-118 62t-83.5 106t-31 147.5q0 169 115 266t317 97q129 0 234 -43v33q0 144 -58.5 206t-193.5 62q-145 0 -281 -53q-10 -5 -23 6t-24 41zM788 264
q-37 101 -40 228q-108 38 -226 38q-113 0 -181.5 -49.5t-68.5 -148.5q0 -89 63 -140t163 -51q94 0 170 36.5t120 86.5zM946 627h527q-1 81 -26.5 148.5t-81.5 113t-134 45.5q-113 0 -189 -77t-96 -230zM1047 1499h24q87 0 83 -23q-1 -3 -3 -6l-193 -262q-11 -18 -73 -18h-17
q-64 0 -64 16q0 3 3 8l149 263q13 22 91 22z" />
    <glyph glyph-name="Oslashacute" unicode="&#x1fe;" horiz-adv-x="1468" 
d="M1094 1399l100 145q4 11 24 9t44 -21l49 -35q22 -14 29 -30.5t-1 -22.5l-120 -168q141 -190 141 -516q0 -358 -175.5 -569t-469.5 -211q-210 0 -348 106l-113 -156q-5 -10 -25 -7.5t-43 20.5l-47 34q-19 14 -27 30t-1 26l133 184q-127 187 -127 500q0 358 175.5 568
t469.5 210q192 0 332 -96zM1092 1112l-625 -868q99 -99 256 -99q202 0 319 161t117 446q0 217 -67 360zM375 383l618 862q-96 84 -239 84q-203 0 -320 -159t-117 -445q0 -201 58 -342zM862 1872h25q87 0 83 -23q-1 -3 -3 -6l-193 -262q-8 -11 -23 -14.5t-51 -3.5h-16
q-64 0 -64 16q0 3 3 8l149 262q13 23 90 23z" />
    <glyph glyph-name="oslashacute" unicode="&#x1ff;" horiz-adv-x="1193" 
d="M840 1057l69 100q15 23 62 -12l49 -35q44 -30 29 -49l-78 -109q116 -144 116 -387q0 -284 -136.5 -434.5t-372.5 -150.5q-160 0 -261 65l-73 -100q-15 -23 -62 12l-43 35q-42 29 -28 49l88 123q-90 137 -90 352q0 284 136.5 435t372.5 151q131 0 222 -45zM846 795
l-430 -594q69 -56 170 -56q64 0 118 23t97.5 69.5t68.5 127t25 186.5q0 149 -49 244zM330 332l411 573q-57 31 -131 31q-64 0 -118 -23t-97.5 -69.5t-68.5 -127t-25 -186.5q0 -121 29 -198zM705 1499h24q87 0 83 -23q-1 -3 -3 -6l-193 -262q-11 -18 -73 -18h-17
q-64 0 -64 16q0 3 3 8l149 263q13 22 91 22z" />
    <glyph glyph-name="Scommaaccent" unicode="&#x218;" horiz-adv-x="1062" 
d="M903 1319l-10 -19q-16 -28 -31.5 -37.5t-25.5 -2.5q-109 71 -256 71q-122 0 -186 -63.5t-64 -153.5q0 -48 22.5 -88t60.5 -70t87 -57t103.5 -53.5t108.5 -55.5t103 -66t87 -81t60.5 -106t22.5 -136q0 -192 -122 -306.5t-349 -114.5q-126 0 -235.5 31.5t-178.5 84.5
q-24 21 13 84l14 25q14 24 31 34.5t26 4.5q67 -46 153.5 -73.5t154.5 -27.5q131 0 216 62t85 172q0 56 -22.5 102.5t-60 79.5t-87 61.5t-103.5 54t-108 52.5t-103.5 61t-87 74t-60 97.5t-22.5 127.5q0 187 123 297.5t303 110.5q94 0 192.5 -27.5t157.5 -76.5q18 -15 -12 -72
zM424 -600l-18 20q-23 25 -3 45q97 97 97 166q0 23 -11.5 41t-25.5 29t-25.5 32.5t-11.5 49.5q0 42 31.5 69t74.5 27q55 0 88 -37t33 -94q0 -98 -49 -192.5t-133 -159.5q-24 -16 -47 4z" />
    <glyph glyph-name="scommaaccent" unicode="&#x219;" horiz-adv-x="937" 
d="M807 915l-14 -20q-26 -37 -39.5 -45t-22.5 4q-64 44 -119 67t-118 23q-48 0 -91 -11.5t-78.5 -46t-35.5 -87.5q0 -32 14 -57.5t31 -40.5t52 -29.5t55 -20t61 -16.5q60 -15 101.5 -29t91.5 -40t80.5 -57.5t51.5 -80.5t21 -111q0 -158 -117 -247.5t-293 -89.5
q-93 0 -183.5 29t-152.5 73q-14 13 -12 24.5t21 49.5l10 22q20 42 30.5 49t30.5 -6q142 -82 267 -82q37 0 75 9.5t72.5 28.5t56 52.5t21.5 75.5q0 39 -20.5 69t-60 49.5t-73 30t-82.5 21.5q-172 40 -243 105q-82 76 -82 198q0 146 110 235t269 89q95 0 180 -30.5t143 -82.5
q27 -24 -8 -74zM358 -600l-18 20q-22 25 -2 45q96 96 96 166q0 23 -11.5 41t-25.5 29t-25.5 32.5t-11.5 49.5q0 41 32 68.5t75 27.5q55 0 88 -37t33 -94q0 -98 -49 -192.5t-133 -159.5q-25 -17 -48 4z" />
    <glyph glyph-name="uni021A" unicode="&#x21a;" horiz-adv-x="1048" 
d="M47 1475h954q19 0 19 -68v-25q0 -69 -19 -69h-380v-1290q0 -23 -89 -23h-22q-84 0 -84 23v1290h-379q-18 0 -18 69v25q0 68 18 68zM414 -600l-19 20q-22 25 -2 45q96 96 96 166q0 23 -11.5 41t-25 29t-25 32.5t-11.5 49.5q0 42 31.5 69t74.5 27q55 0 88 -37t33 -94
q0 -98 -49 -192.5t-133 -159.5q-24 -16 -47 4z" />
    <glyph glyph-name="uni021B" unicode="&#x21b;" horiz-adv-x="753" 
d="M287 1384h12q39 0 58 -3.5t22.5 -7.5t3.5 -13v-279h258q11 0 14.5 -12t3.5 -51v-17q0 -40 -3.5 -52.5t-14.5 -12.5h-258v-604q0 -123 33 -158q34 -37 104 -37q47 0 139 27q15 4 22 -4t15 -37l6 -27q8 -32 7 -45t-13 -20q-37 -24 -96.5 -37.5t-118.5 -13.5q-135 0 -205 67
q-43 40 -60 102t-17 168v619h-129q-11 0 -15 12.5t-4 52.5v17q0 38 4 50.5t15 12.5h129v279q0 9 4.5 13.5t24 7.5t59.5 3zM350 -600l-18 20q-22 25 -2 45q96 96 96 166q0 23 -11.5 41t-25.5 29t-25.5 32.5t-11.5 49.5q0 41 32 68.5t75 27.5q55 0 88 -37t33 -94
q0 -98 -49.5 -192.5t-133.5 -159.5q-24 -16 -47 4z" />
    <glyph glyph-name="circumflex" unicode="&#x2c6;" horiz-adv-x="716" 
d="M45 1284l186 199q23 26 91 26h77q69 0 93 -28l182 -193q17 -17 -21 -59l-16 -19q-13 -17 -29.5 -23.5t-23.5 1.5l-226 196l-229 -194q-5 -7 -20 -1t-29 23l-14 17q-35 38 -21 55z" />
    <glyph glyph-name="caron" unicode="&#x2c7;" horiz-adv-x="716" 
d="M63 1456l17 19q14 16 32 24.5t25 1.5l230 -201l223 195q7 7 21.5 1t29.5 -23l12 -15q34 -37 19 -55l-187 -199q-23 -26 -90 -26h-78q-68 0 -92 28l-182 193q-16 16 20 57z" />
    <glyph glyph-name="breve" unicode="&#x2d8;" horiz-adv-x="716" 
d="M119 1479h24q59 0 62 -21q6 -58 46 -89.5t105 -31.5q64 0 104 32t48 89q3 21 61 21h27q66 0 66 -21q-7 -121 -90.5 -182.5t-219.5 -61.5q-132 0 -212 60.5t-87 183.5q0 21 66 21z" />
    <glyph glyph-name="dotaccent" unicode="&#x2d9;" horiz-adv-x="716" 
d="M242 1356q0 47 34.5 80.5t81.5 33.5t81 -33.5t34 -80.5t-34 -82t-81 -35t-81.5 35t-34.5 82z" />
    <glyph glyph-name="ring" unicode="&#x2da;" horiz-adv-x="716" 
d="M166 1368q0 76 57 130t135 54q79 0 136 -53.5t57 -130.5t-57 -130.5t-136 -53.5q-78 0 -135 54t-57 130zM272 1368q0 -38 25 -62t61 -24t60 25t24 61t-24 61t-60 25t-61 -24t-25 -62z" />
    <glyph glyph-name="ogonek" unicode="&#x2db;" horiz-adv-x="716" 
d="M403 31h39q46 0 46 -17q0 -5 -5 -8q-159 -110 -159 -227q0 -76 100 -76q49 0 84 12q10 3 16.5 -7.5t12.5 -37.5l4 -18q10 -49 -4 -55q-71 -29 -148 -29q-109 0 -168 55t-59 133q0 77 47 145.5t125 112.5q30 17 69 17z" />
    <glyph glyph-name="tilde" unicode="&#x2dc;" horiz-adv-x="716" 
d="M74 1303l-15 20q-29 40 -16 55q82 97 197 97q51 0 92.5 -19t77 -38t73.5 -19q54 0 105 55q14 14 53 -31l12 -16q12 -15 17.5 -31t-0.5 -24q-33 -45 -83.5 -76t-107.5 -31q-52 0 -124 38t-119 38q-61 0 -109 -55q-15 -15 -53 37z" />
    <glyph glyph-name="hungarumlaut" unicode="&#x2dd;" horiz-adv-x="716" 
d="M256 1499h20q83 0 81 -21l-3 -8l-172 -262q-11 -20 -69 -20h-17q-29 0 -43.5 3t-16 9t2.5 14l131 263q9 22 86 22zM600 1499h21q81 0 80 -21q0 -3 -3 -8l-172 -262q-11 -20 -69 -20h-17q-29 0 -43.5 3t-16 9t2.5 14l131 263q9 22 86 22z" />
    <glyph glyph-name="commaaccent" unicode="&#x326;" horiz-adv-x="716" 
d="M262 -600l-18 20q-22 25 -2 45q96 96 96 166q0 23 -11.5 41t-25.5 29t-25.5 32.5t-11.5 49.5q0 41 32 68.5t75 27.5q55 0 88 -37t33 -94q0 -98 -49.5 -192.5t-133.5 -159.5q-24 -16 -47 4z" />
    <glyph glyph-name="Delta" unicode="&#x394;" horiz-adv-x="1230" 
d="M604 1475h35q84 0 92 -21l418 -1233q18 -56 18 -102v-90q0 -16 -15.5 -22.5t-55.5 -6.5h-961q-40 0 -56 7t-16 22v90q0 43 19 102l428 1233q5 12 24 16.5t70 4.5zM614 1270l-354 -1108h696z" />
    <glyph glyph-name="Delta" unicode="&#x2206;" horiz-adv-x="1230" 
d="M604 1475h35q84 0 92 -21l418 -1233q18 -56 18 -102v-90q0 -16 -15.5 -22.5t-55.5 -6.5h-961q-40 0 -56 7t-16 22v90q0 43 19 102l428 1233q5 12 24 16.5t70 4.5zM614 1270l-354 -1108h696z" />
    <glyph glyph-name="Omega" unicode="&#x3a9;" horiz-adv-x="1531" 
d="M123 152h248q-108 89 -166 236t-58 343q0 356 174 560t461 204q285 0 448 -203t163 -540q0 -405 -242 -600h258q18 0 18 -62v-24q0 -66 -18 -66h-530q-19 0 -19 59v33q0 50 19 55q104 29 174.5 115t101.5 205.5t31 269.5q0 289 -108.5 440.5t-299.5 151.5
q-199 0 -314.5 -156.5t-115.5 -451.5q0 -488 305 -576q19 -5 19 -55v-31q0 -59 -19 -59h-530q-19 0 -19 66v24q0 62 19 62z" />
    <glyph glyph-name="Omega" unicode="&#x2126;" horiz-adv-x="1531" 
d="M123 152h248q-108 89 -166 236t-58 343q0 356 174 560t461 204q285 0 448 -203t163 -540q0 -405 -242 -600h258q18 0 18 -62v-24q0 -66 -18 -66h-530q-19 0 -19 59v33q0 50 19 55q104 29 174.5 115t101.5 205.5t31 269.5q0 289 -108.5 440.5t-299.5 151.5
q-199 0 -314.5 -156.5t-115.5 -451.5q0 -488 305 -576q19 -5 19 -55v-31q0 -59 -19 -59h-530q-19 0 -19 66v24q0 62 19 62z" />
    <glyph glyph-name="pi" unicode="&#x3c0;" horiz-adv-x="1327" 
d="M61 1081h1158q11 0 14.5 -12t3.5 -51v-17q0 -40 -3.5 -52.5t-14.5 -12.5h-238v-576q0 -51 1 -79t6.5 -58.5t16 -44.5t29.5 -23.5t47 -9.5q59 0 117 35q20 11 47 -45l8 -16q29 -56 11 -68q-102 -71 -230 -71q-61 0 -104 17.5t-69 46.5t-40.5 77t-19 98t-4.5 121v596h-371
v-911q0 -9 -3.5 -13t-22.5 -8t-58 -4h-12q-39 0 -59 3t-24.5 8t-4.5 14v911h-181q-11 0 -14.5 12.5t-3.5 52.5v17q0 39 3.5 51t14.5 12z" />
    <glyph glyph-name="Wgrave" unicode="&#x1e80;" horiz-adv-x="1951" 
d="M147 1475h29q90 0 96 -25l303 -1255l299 1257q6 23 93 23h47q86 0 92 -23l307 -1257l295 1255q6 25 86 25h23q87 0 81 -25l-366 -1430q-6 -22 -96 -22h-62q-88 0 -94 22l-295 1209l-285 -1204q-7 -27 -96 -27h-63q-88 0 -95 27l-389 1425q-6 25 90 25zM883 1892h26
q82 0 95 -22l149 -262q2 -6 0.5 -11.5t-18.5 -9.5t-48 -4h-18q-61 0 -76 19l-192 262q-12 15 22 23q22 5 60 5z" />
    <glyph glyph-name="wgrave" unicode="&#x1e81;" horiz-adv-x="1591" 
d="M236 1059l231 -846l217 840q5 16 22 22t70 6h43q47 0 63 -6t21 -22l225 -842q57 181 88.5 287t70.5 262t63 297q2 13 19 18.5t73 5.5q58 0 74 -7t10 -34q-104 -476 -295 -1009q-6 -17 -28.5 -24t-72.5 -7h-30q-85 0 -94 29l-129 481q-39 142 -86 369q-27 -145 -89 -371
l-127 -481q-5 -15 -25.5 -21t-74.5 -6h-18q-61 0 -82.5 5.5t-26.5 21.5l-305 1026q-4 18 12 23t70 5q61 0 83.5 -5t27.5 -17zM686 1499h27q81 0 94 -22l149 -263q2 -6 0.5 -11.5t-18 -9t-47.5 -3.5h-19q-61 0 -75 18l-193 262q-12 14 20 23q22 6 62 6z" />
    <glyph glyph-name="Wacute" unicode="&#x1e82;" horiz-adv-x="1951" 
d="M147 1475h29q90 0 96 -25l303 -1255l299 1257q6 23 93 23h47q86 0 92 -23l307 -1257l295 1255q6 25 86 25h23q87 0 81 -25l-366 -1430q-6 -22 -96 -22h-62q-88 0 -94 22l-295 1209l-285 -1204q-7 -27 -96 -27h-63q-88 0 -95 27l-389 1425q-6 25 90 25zM1075 1892h25
q88 0 83 -23q-1 -2 -3 -5l-193 -262q-14 -19 -74 -19h-16q-66 0 -64 17l3 8l149 262q13 22 90 22z" />
    <glyph glyph-name="wacute" unicode="&#x1e83;" horiz-adv-x="1591" 
d="M236 1059l231 -846l217 840q5 16 22 22t70 6h43q47 0 63 -6t21 -22l225 -842q57 181 88.5 287t70.5 262t63 297q2 13 19 18.5t73 5.5q58 0 74 -7t10 -34q-104 -476 -295 -1009q-6 -17 -28.5 -24t-72.5 -7h-30q-85 0 -94 29l-129 481q-39 142 -86 369q-27 -145 -89 -371
l-127 -481q-5 -15 -25.5 -21t-74.5 -6h-18q-61 0 -82.5 5.5t-26.5 21.5l-305 1026q-4 18 12 23t70 5q61 0 83.5 -5t27.5 -17zM887 1499h24q87 0 83 -23q-1 -3 -3 -6l-192 -262q-11 -18 -74 -18h-16q-66 0 -65 17q0 3 3 7l150 263q13 22 90 22z" />
    <glyph glyph-name="Wdieresis" unicode="&#x1e84;" horiz-adv-x="1951" 
d="M147 1475h29q90 0 96 -25l303 -1255l299 1257q6 23 93 23h47q86 0 92 -23l307 -1257l295 1255q6 25 86 25h23q87 0 81 -25l-366 -1430q-6 -22 -96 -22h-62q-88 0 -94 22l-295 1209l-285 -1204q-7 -27 -96 -27h-63q-88 0 -95 27l-389 1425q-6 25 90 25zM621 1735
q0 49 33.5 82.5t82.5 33.5q50 0 83.5 -33.5t33.5 -82.5t-34 -83t-83 -34t-82.5 33.5t-33.5 83.5zM1098 1735q0 49 33 82.5t83 33.5t83.5 -33.5t33.5 -82.5t-33.5 -83t-83.5 -34q-49 0 -82.5 33.5t-33.5 83.5z" />
    <glyph glyph-name="wdieresis" unicode="&#x1e85;" horiz-adv-x="1591" 
d="M236 1059l231 -846l217 840q5 16 22 22t70 6h43q47 0 63 -6t21 -22l225 -842q57 181 88.5 287t70.5 262t63 297q2 13 19 18.5t73 5.5q58 0 74 -7t10 -34q-104 -476 -295 -1009q-6 -17 -28.5 -24t-72.5 -7h-30q-85 0 -94 29l-129 481q-39 142 -86 369q-27 -145 -89 -371
l-127 -481q-5 -15 -25.5 -21t-74.5 -6h-18q-61 0 -82.5 5.5t-26.5 21.5l-305 1026q-4 18 12 23t70 5q61 0 83.5 -5t27.5 -17zM440 1341q0 49 34 83t83 34t83 -34t34 -83t-33.5 -82.5t-83.5 -33.5t-83.5 33.5t-33.5 82.5zM918 1341q0 50 33.5 83.5t82.5 33.5q50 0 83.5 -34
t33.5 -83t-33.5 -82.5t-83.5 -33.5t-83 33.5t-33 82.5z" />
    <glyph glyph-name="Ygrave" unicode="&#x1ef2;" horiz-adv-x="1112" 
d="M111 1475h30q87 0 99 -23l325 -692l320 692q11 23 94 23h22q86 0 87 -21q0 -2 -1 -4l-438 -879v-548q0 -23 -88 -23h-22q-84 0 -84 23v548l-435 879q-6 13 25 19q25 6 66 6zM414 1892h26q82 0 95 -22l149 -262q2 -6 0.5 -11.5t-18.5 -9.5t-48 -4h-18q-61 0 -76 19
l-192 262q-12 15 22 23q23 5 60 5z" />
    <glyph glyph-name="ygrave" unicode="&#x1ef3;" horiz-adv-x="1038" 
d="M238 1059l192 -510q74 -197 113 -350q26 105 104 336l182 524q4 13 24 17.5t69 4.5q61 0 80.5 -5.5t13.5 -22.5l-387 -1078q-79 -225 -174 -327q-117 -125 -305 -125q-95 0 -164 37q-16 8 -16 23t10 42l8 25q12 37 20 46t25 5q67 -18 110 -18q103 0 170 67t131 238
l-407 1065q-7 18 12 23t84 5q97 0 105 -22zM385 1499h27q81 0 94 -22l149 -263q2 -6 0.5 -11.5t-18 -9t-47.5 -3.5h-19q-61 0 -75 18l-193 262q-12 14 20 23q22 6 62 6z" />
    <glyph glyph-name="endash" unicode="&#x2013;" horiz-adv-x="1024" 
d="M98 647h828q10 0 14 -12t4 -45v-17q0 -63 -18 -63h-828q-18 0 -18 63v17q0 33 4 45t14 12z" />
    <glyph glyph-name="emdash" unicode="&#x2014;" horiz-adv-x="2048" 
d="M98 647h1852q10 0 14 -12t4 -45v-17q0 -63 -18 -63h-1852q-18 0 -18 63v17q0 33 4 45t14 12z" />
    <glyph glyph-name="quoteleft" unicode="&#x2018;" horiz-adv-x="481" 
d="M352 1491l19 -21q29 -30 4 -55q-111 -111 -111 -201q0 -28 14 -49t30 -33t30 -38.5t14 -63.5q0 -52 -34.5 -83.5t-86.5 -31.5q-67 0 -107 44.5t-40 111.5q0 117 57 231t152 193q11 11 28.5 10.5t30.5 -14.5z" />
    <glyph glyph-name="quoteright" unicode="&#x2019;" horiz-adv-x="481" 
d="M129 920l-18 20q-10 10 -13.5 23.5t8.5 31.5q111 111 111 201q0 23 -9 40.5t-22 29.5t-26 25t-22 35.5t-9 53.5q0 52 34.5 83.5t86.5 31.5q67 0 107 -44.5t40 -111.5q0 -117 -57 -231t-152 -193q-11 -11 -28.5 -10t-30.5 15z" />
    <glyph glyph-name="quotesinglbase" unicode="&#x201a;" horiz-adv-x="493" 
d="M131 -330l-20 23q-30 30 -5 55q119 115 119 205q0 23 -9.5 40t-22.5 28.5t-26 24.5t-22.5 36t-9.5 55q0 51 36.5 84t88.5 33q69 0 109.5 -45t40.5 -113q0 -120 -60 -235.5t-160 -194.5q-29 -26 -59 4z" />
    <glyph glyph-name="quotedblleft" unicode="&#x201c;" horiz-adv-x="884" 
d="M756 1489l18 -21q6 -6 10 -14t3.5 -20t-9.5 -21q-110 -110 -110 -201q0 -28 14 -49t30 -33t30 -38.5t14 -63.5q0 -52 -34.5 -83.5t-86.5 -31.5q-67 0 -107.5 45t-40.5 111q0 117 57 231t152 193q11 11 29 10.5t31 -14.5zM352 1489l19 -21q29 -30 4 -55
q-111 -111 -111 -201q0 -28 14 -49t30 -33t30 -38.5t14 -63.5q0 -52 -34.5 -83.5t-86.5 -31.5q-67 0 -107 44.5t-40 111.5q0 117 57 231t152 193q11 11 28.5 10.5t30.5 -14.5z" />
    <glyph glyph-name="quotedblright" unicode="&#x201d;" horiz-adv-x="884" 
d="M129 920l-18 20q-10 10 -13.5 23.5t8.5 31.5q111 111 111 201q0 23 -9 40.5t-22 29.5t-26 25t-22 35.5t-9 53.5q0 52 34.5 83.5t86.5 31.5q67 0 107 -44.5t40 -111.5q0 -117 -57 -231t-152 -193q-11 -11 -28.5 -10t-30.5 15zM532 920l-18 20q-6 6 -10 14t-3.5 20t9.5 21
q111 111 111 201q0 23 -9 40.5t-22.5 29.5t-26.5 25t-22 35.5t-9 53.5q0 52 34.5 83.5t86.5 31.5q67 0 107.5 -45t40.5 -111q0 -117 -57 -231t-152 -193q-11 -11 -29 -10t-31 15z" />
    <glyph glyph-name="quotedblbase" unicode="&#x201e;" horiz-adv-x="897" 
d="M131 -330l-20 23q-30 30 -5 55q119 115 119 205q0 23 -9.5 40t-22.5 28.5t-26 24.5t-22.5 36t-9.5 55q0 51 36.5 84t88.5 33q69 0 109.5 -45t40.5 -113q0 -120 -60 -235.5t-160 -194.5q-29 -26 -59 4zM535 -330l-21 23q-30 29 -4 55q119 115 119 205q0 23 -9.5 40
t-22.5 28.5t-26 24.5t-22.5 36t-9.5 55q0 51 36.5 84t88.5 33q69 0 109 -45t40 -113q0 -120 -59.5 -235.5t-159.5 -194.5q-29 -26 -59 4z" />
    <glyph glyph-name="dagger" unicode="&#x2020;" horiz-adv-x="960" 
d="M467 1475h18q80 0 80 -21v-473h344q11 0 15 -13t4 -53v-20q0 -39 -4 -51.5t-15 -12.5h-344v-1091q0 -21 -78 -21h-18q-80 0 -80 21v1091h-338q-11 0 -14.5 12.5t-3.5 51.5v20q0 41 3.5 53.5t14.5 12.5h338v473q0 21 78 21z" />
    <glyph glyph-name="daggerdbl" unicode="&#x2021;" horiz-adv-x="989" 
d="M481 1475h19q80 0 80 -21v-432h344q11 0 14.5 -12.5t3.5 -53.5v-20q0 -39 -3.5 -51.5t-14.5 -12.5h-344v-550h344q11 0 14.5 -13t3.5 -53v-20q0 -39 -3.5 -51.5t-14.5 -12.5h-344v-432q0 -21 -78 -21h-19q-80 0 -80 21v432h-337q-11 0 -15 12.5t-4 51.5v20q0 40 4 53
t15 13h337v550h-337q-11 0 -15 12.5t-4 51.5v20q0 40 4 53t15 13h337v432q0 21 78 21z" />
    <glyph glyph-name="bullet" unicode="&#x2022;" horiz-adv-x="686" 
d="M340 967q106 0 180 -74t74 -180q0 -103 -74 -175.5t-180 -72.5q-103 0 -175.5 72.5t-72.5 175.5q0 106 72.5 180t175.5 74z" />
    <glyph glyph-name="ellipsis" unicode="&#x2026;" horiz-adv-x="1480" 
d="M254 256q58 0 98.5 -40t40.5 -99q0 -57 -40.5 -97t-98.5 -40q-57 0 -97 40t-40 97q0 58 40 98.5t97 40.5zM748 256q58 0 98.5 -40t40.5 -99q0 -57 -40.5 -97t-98.5 -40q-57 0 -97.5 40t-40.5 97q0 58 40.5 98.5t97.5 40.5zM1241 256q59 0 99 -40t40 -99q0 -57 -40.5 -97
t-98.5 -40q-57 0 -97 40t-40 97q0 58 40 98.5t97 40.5z" />
    <glyph glyph-name="perthousand" unicode="&#x2030;" horiz-adv-x="2603" 
d="M1227 1509h35q67 -1 59 -22l-688 -1503q-9 -19 -68 -19h-37q-23 0 -37.5 3t-19.5 8t-2 12l690 1503q9 18 68 18zM1382 676q-76 0 -119.5 -74t-43.5 -211q0 -266 153 -266q80 0 123 75t43 214q0 129 -39.5 195.5t-116.5 66.5zM1389 821q157 0 245 -100.5t88 -302.5
q0 -209 -93.5 -323.5t-260.5 -114.5q-156 0 -245 102t-89 301q0 211 94.5 324.5t260.5 113.5zM430 1350q-76 0 -120 -74t-44 -211q0 -130 39 -198t115 -68q80 0 123 74.5t43 213.5q0 129 -39.5 196t-116.5 67zM436 1495q157 0 245.5 -101t88.5 -302q0 -209 -93.5 -324
t-260.5 -115q-156 0 -245 102.5t-89 301.5q0 211 94 324.5t260 113.5zM2181 676q-76 0 -120 -74t-44 -211q0 -130 39 -198t115 -68q80 0 123 75t43 214q0 129 -39.5 195.5t-116.5 66.5zM2187 821q157 0 245.5 -101t88.5 -302q0 -209 -93.5 -323.5t-260.5 -114.5
q-156 0 -245 102t-89 301q0 211 94 324.5t260 113.5z" />
    <glyph glyph-name="guilsinglleft" unicode="&#x2039;" horiz-adv-x="620" 
d="M442 1061l17 -6q30 -12 42.5 -23t6.5 -20l-238 -385l246 -398q13 -19 -45 -47l-16 -8q-61 -30 -76 -8l-270 391q-15 23 -15 53v19q0 29 15 51l264 385q11 17 69 -4z" />
    <glyph glyph-name="guilsinglright" unicode="&#x203a;" horiz-adv-x="620" 
d="M150 1047l16 8q61 30 76 8l270 -381q14 -21 14 -53v-19q0 -30 -14 -51l-264 -395q-11 -17 -70 4l-16 6q-30 12 -42.5 23t-6.5 20l237 395l-246 387q-13 19 46 48z" />
    <glyph glyph-name="fraction" unicode="&#x2044;" horiz-adv-x="790" 
d="M723 1509h35q67 -1 59 -22l-688 -1503q-9 -19 -68 -19h-36q-23 0 -37.5 3t-20 8t-2.5 12l690 1503q9 18 68 18z" />
    <glyph glyph-name="Euro" unicode="&#x20ac;" 
d="M82 946h137q16 94 45 174.5t77.5 150.5t111.5 119t150.5 77t191.5 28q210 0 354 -102q9 -7 7 -26.5t-13 -43.5l-13 -25q-12 -25 -26 -38.5t-23 -8.5q-135 78 -264 78q-147 0 -253 -96.5t-144 -286.5h489q19 0 19 -55v-27q0 -57 -19 -57h-506q-2 -25 -2 -78t2 -78h480
q18 0 18 -55v-27q0 -57 -18 -57h-461q74 -362 385 -362q139 0 264 67q10 5 24 -7t25 -38l13 -27q25 -56 6 -69q-162 -96 -369 -96q-238 0 -376.5 140.5t-178.5 391.5h-160q-18 0 -18 57v27q0 55 18 55h146v66q0 59 2 90h-121q-19 0 -19 57v27q0 55 19 55z" />
    <glyph glyph-name="litre" unicode="&#x2113;" horiz-adv-x="524" 
d="M223 1556h13q48 0 64 -5.5t19 -20.5q13 -74 13 -606v-680q0 -60 14.5 -81.5t63.5 -21.5h20q8 0 10 -10t2 -45v-6q0 -42 -1.5 -52.5t-10.5 -13.5q-46 -16 -96 -16q-105 0 -152 70q-35 51 -35 215v686q0 465 -12 561q-2 15 17 20.5t71 5.5z" />
    <glyph glyph-name="numero" unicode="&#x2116;" horiz-adv-x="2197" 
d="M2116 958q0 -212 -105 -328t-285 -116q-172 0 -264 112t-92 298q0 212 104.5 328t284.5 116q172 0 264.5 -112t92.5 -298zM1946 948q0 52 -9 96t-29.5 84t-60 63t-94.5 23q-94 0 -153.5 -69t-59.5 -211q0 -52 9 -96t29.5 -84t60 -63t94.5 -23q94 0 153.5 69t59.5 211z
M252 1475h10q62 0 82.5 -5.5t30.5 -21.5l682 -1135v1139q0 23 78 23h16q82 0 82 -23v-1429q0 -14 -19.5 -18.5t-76.5 -4.5h-7q-62 0 -82 5.5t-30 21.5l-686 1132v-1136q0 -23 -78 -23h-16q-82 0 -82 23v1429q0 14 19.5 18.5t76.5 4.5z" />
    <glyph glyph-name="trademark" unicode="&#x2122;" horiz-adv-x="1816" 
d="M88 1475h641q19 0 19 -54v-12q0 -55 -19 -55h-246v-682q0 -21 -61 -21h-23q-65 0 -65 21v682h-246q-18 0 -18 55v12q0 54 18 54zM940 1475h43q51 0 61 -21l211 -485l205 485q10 21 62 21h43q62 0 65 -27l51 -776q0 -21 -65 -21h-19q-61 0 -61 21l-35 553l-172 -416
q-11 -21 -61 -21h-29q-55 0 -65 21l-175 401l-34 -538q0 -21 -62 -21h-16q-66 0 -66 21l53 776q3 27 66 27z" />
    <glyph glyph-name="estimated" unicode="&#x212e;" horiz-adv-x="1888" 
d="M1786 721h-1364q-10 0 -10 -12v-414q0 -25 18 -49q102 -102 236.5 -161.5t281.5 -59.5q161 0 302 66t239 183h123q-118 -136 -292.5 -215t-373.5 -79q-171 0 -327.5 60t-269.5 161.5t-180 241.5t-67 294q0 155 67 295.5t180 241.5t269.5 161t327.5 60t326.5 -60t268 -161
t179 -241.5t66.5 -295.5v-16zM1477 772v416q0 26 -21 51q-101 99 -232 155t-276 56q-148 0 -280.5 -57.5t-235.5 -159.5q-20 -20 -20 -53v-408q0 -12 10 -12h1044q11 0 11 12z" />
    <glyph glyph-name="arrowleft" unicode="&#x2190;" horiz-adv-x="1363" 
d="M348 514l246 -272q14 -14 -33 -60l-18 -18q-27 -27 -39 -33t-19 2l-360 412q-27 29 -27 45v16q0 16 27 45l360 412q7 8 19 2t39 -33l18 -18q47 -46 33 -60l-246 -272h907q11 0 15 -14.5t4 -55.5v-28q0 -41 -4 -55.5t-15 -14.5h-907z" />
    <glyph glyph-name="arrowup" unicode="&#x2191;" horiz-adv-x="1363" 
d="M598 926l-272 -246q-14 -14 -60 33l-18 18q-27 27 -33 38.5t2 18.5l412 361q29 27 45 27h16q16 0 45 -27l412 -361q8 -7 2 -18.5t-33 -38.5l-18 -18q-46 -47 -60 -33l-272 246v-908q0 -11 -14.5 -14.5t-55.5 -3.5h-28q-41 0 -55.5 3.5t-14.5 14.5v908z" />
    <glyph glyph-name="arrowright" unicode="&#x2192;" horiz-adv-x="1363" 
d="M770 242l246 272h-907q-11 0 -15 14.5t-4 55.5v28q0 41 4 55.5t15 14.5h907l-246 272q-14 14 33 60l18 18q27 27 39 33t19 -2l360 -412q27 -29 27 -45v-16q0 -16 -27 -45l-360 -412q-7 -8 -19 -2t-39 33l-18 18q-47 46 -33 60z" />
    <glyph glyph-name="arrowdown" unicode="&#x2193;" horiz-adv-x="1363" 
d="M326 496l272 -246v907q0 11 14.5 15t55.5 4h28q41 0 55.5 -4t14.5 -15v-907l272 246q14 14 60 -33l18 -19q27 -27 33 -38.5t-2 -18.5l-412 -360q-29 -27 -45 -27h-16q-16 0 -45 27l-412 360q-8 7 -2 18.5t33 38.5l18 19q46 47 60 33z" />
    <glyph glyph-name="partialdiff" unicode="&#x2202;" horiz-adv-x="1120" 
d="M188 1327l-14 33q-23 50 -2 63q132 72 287 72q94 0 172 -27.5t133.5 -74t98.5 -112t69 -136.5t42.5 -153.5t23 -157t6.5 -152.5q0 -160 -27 -286.5t-83 -220.5t-148.5 -144.5t-217.5 -50.5q-203 0 -321.5 127.5t-118.5 336.5q0 217 121.5 341t308.5 124q165 0 283 -88
q-2 108 -23.5 197.5t-62.5 162t-111 113.5t-162 41q-102 0 -211 -53q-8 -5 -19 5.5t-24 39.5zM809 643q-114 105 -262 105q-129 0 -197.5 -88t-68.5 -216q0 -79 25 -145t83.5 -111t142.5 -45q277 0 277 500z" />
    <glyph glyph-name="product" unicode="&#x220f;" horiz-adv-x="1421" 
d="M63 1475h1295q18 0 18 -68v-25q0 -69 -18 -69h-182v-1632q0 -23 -84 -23h-23q-88 0 -88 23v1632h-551v-1632q0 -23 -84 -23h-22q-88 0 -88 23v1632h-173q-18 0 -18 69v25q0 68 18 68z" />
    <glyph glyph-name="summation" unicode="&#x2211;" horiz-adv-x="1153" 
d="M115 1475h977q18 0 18 -68v-25q0 -69 -18 -69h-783l535 -643q16 -16 16 -64v-39q0 -48 -18 -69l-545 -678h809q18 0 18 -68v-24q0 -70 -18 -70h-991q-41 0 -56.5 6t-15.5 23v67q0 40 41 90l594 727l-594 717q-41 47 -41 90v68q0 17 15.5 23t56.5 6z" />
    <glyph glyph-name="minus" unicode="&#x2212;" 
d="M88 815h991q19 0 19 -59v-19q0 -61 -19 -61h-991q-18 0 -18 61v19q0 59 18 59z" />
    <glyph glyph-name="radical" unicode="&#x221a;" horiz-adv-x="1310" 
d="M33 991h260q19 0 30 -13t23 -52l281 -865l485 1598q6 24 80 24h43q20 0 34.5 -1t23.5 -4t12.5 -7.5t1.5 -11.5l-578 -1802q-8 -21 -70 -21h-71q-64 0 -72 21l-344 974h-139q-21 0 -21 64v35q0 61 21 61z" />
    <glyph glyph-name="infinity" unicode="&#x221e;" horiz-adv-x="1677" 
d="M842 776q95 109 186 164t211 55q150 0 244 -86.5t94 -238.5q0 -80 -28 -143.5t-76 -103t-109.5 -60.5t-130.5 -21q-105 0 -197 51.5t-196 165.5q-184 -221 -406 -221q-141 0 -237.5 88t-96.5 240q0 149 93.5 241t244.5 92q114 0 211 -55.5t193 -167.5zM948 672
q90 -102 142 -139t120 -37q90 0 145.5 50.5t55.5 129.5t-58 124.5t-139 45.5q-42 0 -79.5 -13t-70.5 -39t-58.5 -53.5t-57.5 -68.5zM733 672q-77 90 -138.5 134t-143.5 44q-85 0 -137 -48.5t-52 -129.5q0 -82 54 -129t137 -47q82 0 148.5 46t131.5 130z" />
    <glyph glyph-name="integral" unicode="&#x222b;" horiz-adv-x="737" 
d="M692 1411l-6 -27q-8 -37 -15.5 -52t-19.5 -11q-40 12 -80 12q-55 0 -91.5 -17.5t-55 -52.5t-25 -75.5t-6.5 -97.5q0 -117 24.5 -252t53.5 -239t53.5 -241.5t24.5 -257.5q0 -185 -91.5 -293t-275.5 -108q-75 0 -133 18q-16 5 -6 72l2 16q6 40 13.5 56t19.5 12
q38 -14 94 -14q100 0 139 64t39 177q0 107 -23.5 235.5t-52 231.5t-52 242.5t-23.5 265.5q0 420 360 420q73 0 125 -16q20 -6 8 -68z" />
    <glyph glyph-name="approxequal" unicode="&#x2248;" 
d="M137 829l-26 7q-50 11 -50 30q21 114 104 175t206 61q59 0 111.5 -16t92 -38.5t77.5 -45t84 -38.5t95 -16q57 0 93 27.5t47 73.5q0 22 59 12l23 -4q53 -9 53 -29q-20 -117 -102.5 -170t-202.5 -53q-67 0 -122 15.5t-92 37.5t-70.5 44.5t-75.5 38t-91 15.5
q-63 0 -103.5 -31t-49.5 -87q-3 -21 -60 -9zM137 412l-26 6q-21 5 -33 10.5t-15 10t-2 10.5q27 117 107.5 177t202.5 60q71 0 136 -24.5t106.5 -53.5t99.5 -53.5t118 -24.5q59 0 97.5 27.5t42.5 73.5q3 21 59 12l23 -4q32 -6 43.5 -12.5t9.5 -16.5q-6 -61 -33.5 -106
t-70.5 -70t-93 -37t-108 -12q-67 0 -122 16t-92 38.5t-70.5 45t-75.5 38.5t-91 16q-63 0 -103.5 -31.5t-49.5 -87.5q-3 -20 -60 -8z" />
    <glyph glyph-name="notequal" unicode="&#x2260;" 
d="M88 1024h576l96 174q12 21 63 21h31q61 0 57 -21l-2 -4l-94 -170h264q19 0 19 -59v-19q0 -61 -19 -61h-336l-151 -279h487q19 0 19 -59v-19q0 -61 -19 -61h-563l-117 -215q-11 -21 -63 -21h-33q-61 0 -57 21l2 4l114 211h-274q-18 0 -18 61v19q0 59 18 59h352l152 279
h-504q-18 0 -18 61v19q0 59 18 59z" />
    <glyph glyph-name="lessequal" unicode="&#x2264;" 
d="M104 139h951q18 0 18 -59v-19q0 -61 -18 -61h-951q-18 0 -18 61v19q0 59 18 59zM111 981l864 434q9 5 19.5 -5t27.5 -40l10 -18q32 -60 12 -70l-776 -373l787 -387q8 -7 3.5 -25.5t-16.5 -39.5l-12 -21q-31 -52 -49 -43l-870 432q-17 10 -17 68v22q0 56 17 66z" />
    <glyph glyph-name="greaterequal" unicode="&#x2265;" 
d="M113 139h950q18 0 18 -59v-19q0 -61 -18 -61h-950q-19 0 -19 61v19q0 59 19 59zM195 1421l864 -428q16 -10 16 -67v-23q0 -55 -16 -65l-871 -439q-9 -5 -19.5 5t-27.5 40l-10 19q-32 59 -12 69l782 377l-780 383q-8 6 -3.5 26t15.5 40l12 20q13 21 27 34t23 9z" />
    <glyph glyph-name="lozenge" unicode="&#x25ca;" horiz-adv-x="1107" 
d="M559 1307l-315 -564l315 -557l311 564zM547 1540h28q59 0 68 -18l381 -676q18 -32 18 -78v-27q0 -50 -18 -82l-391 -686q-11 -18 -66 -18h-32q-59 0 -70 18l-381 674q-18 32 -18 82v29q0 46 18 78l395 686q11 18 68 18z" />
    <glyph glyph-name="uni266A" unicode="&#x266a;" horiz-adv-x="1413" 
d="M1051 836q-5 -4 -11.5 -0.5t-17.5 20.5l-8 12q-12 18 -13 23.5t5 9.5q65 46 65 103q0 22 -9 40t-19 29.5t-35.5 24.5t-39.5 18.5t-50 18.5t-50 18q-74 23 -127 68v-967q0 -131 -77.5 -202.5t-221.5 -71.5q-110 0 -173.5 47t-63.5 116t62.5 116.5t166.5 47.5
q114 0 197 -55v1204q0 11 8 15t39 4h16q31 0 39 -4t8 -15v-51q10 -7 20.5 -14t19.5 -12.5t22 -12t20.5 -10.5t22 -10.5t21 -9t22.5 -9t21 -8t23 -8.5t21 -8q122 -44 164 -72q89 -60 90 -168q0 -64 -41.5 -124.5t-115.5 -102.5z" />
    <glyph glyph-name="grave.cap" horiz-adv-x="716" 
d="M236 1872h26q81 0 94 -23l150 -262q2 -6 0 -11.5t-18.5 -9t-47.5 -3.5h-18q-62 0 -76 18l-192 262q-12 14 20 23q22 6 62 6z" />
    <glyph glyph-name="acute.cap" horiz-adv-x="716" 
d="M453 1872h24q87 0 83 -23q-1 -3 -3 -6l-192 -262q-8 -11 -23 -14.5t-51 -3.5h-17q-64 0 -64 16q0 3 3 8l149 262q13 23 91 23z" />
    <glyph glyph-name="dieresis.cap" horiz-adv-x="716" 
d="M2 1663q0 49 34 83t83 34t83 -34t34 -83t-34 -83t-83 -34t-83 34t-34 83zM479 1663q0 49 33.5 83t83.5 34t83.5 -34t33.5 -83t-33.5 -83t-83.5 -34t-83.5 34t-33.5 83z" />
    <glyph glyph-name="circumflex.cap" horiz-adv-x="716" 
d="M45 1636l186 199q24 27 91 27h77q68 0 93 -29l182 -193q17 -17 -21 -59l-16 -18q-13 -17 -29.5 -24t-23.5 1l-226 197l-229 -195q-6 -7 -20 -0.5t-29 23.5l-14 16q-35 38 -21 55z" />
    <glyph glyph-name="tilde.cap" horiz-adv-x="716" 
d="M74 1634l-15 21q-29 40 -16 55q35 42 86.5 69t110.5 27q51 0 92.5 -19t77 -37.5t73.5 -18.5q54 0 105 55q14 14 53 -31l12 -16q12 -15 17.5 -31.5t-0.5 -24.5q-33 -44 -83.5 -75t-107.5 -31q-52 0 -124 38t-119 38q-60 0 -109 -56q-15 -15 -53 37z" />
    <glyph glyph-name="macron.cap" horiz-adv-x="716" 
d="M76 1790h563q20 0 20 -59v-25q0 -66 -20 -66h-563q-21 0 -21 66v25q0 59 21 59z" />
    <glyph glyph-name="breve.cap" horiz-adv-x="716" 
d="M119 1868h24q59 0 62 -21q6 -58 46 -89.5t105 -31.5q64 0 104 32t48 89q3 21 61 21h27q66 0 66 -21q-7 -120 -90.5 -181.5t-219.5 -61.5q-132 0 -212 60t-87 183q0 21 66 21z" />
    <glyph glyph-name="dotaccent.cap" horiz-adv-x="716" 
d="M242 1724q0 47 34.5 81t81.5 34t81 -34t34 -81t-34 -81.5t-81 -34.5t-81.5 34.5t-34.5 81.5z" />
    <glyph glyph-name="ring.cap" horiz-adv-x="716" 
d="M166 1704q0 76 57 130t135 54q79 0 136 -53.5t57 -130.5t-57 -130.5t-136 -53.5q-78 0 -135 54t-57 130zM272 1704q0 -38 25 -62t61 -24t60 25t24 61t-24 61t-60 25t-61 -24t-25 -62z" />
    <glyph glyph-name="hungarumlaut.cap" horiz-adv-x="716" 
d="M256 1872h20q83 0 81 -21l-3 -8l-172 -262q-11 -20 -69 -20h-17q-29 0 -43.5 3t-16 9t2.5 14l131 262q10 23 86 23zM600 1872h21q81 0 80 -21q0 -3 -3 -8l-172 -262q-11 -20 -69 -20h-17q-29 0 -43.5 3t-16 9t2.5 14l131 262q10 23 86 23z" />
    <glyph glyph-name="caron.cap" horiz-adv-x="716" 
d="M63 1849l17 19q14 16 32 24.5t25 1.5l230 -200l223 194q7 7 21.5 1t29.5 -23l12 -15q34 -37 19 -55l-187 -199q-23 -26 -90 -26h-78q-68 0 -92 28l-182 193q-16 16 20 57z" />
    <glyph glyph-name="apple" horiz-adv-x="1067" 
d="M401 1110h551v-135h-411v-135h411v-414h-551v135h414v141h-414v408zM131 1384h821v-135h-684v-1112h152v-137h-289v1384z" />
    </font>
</defs>
</svg>
